<svg id="eDdj3OJNTEC1" xmlns="http://www.w3.org/2000/svg" xmlns:xlink="http://www.w3.org/1999/xlink" viewBox="0 0 2540 1502" shape-rendering="geometricPrecision" text-rendering="geometricPrecision"><style><![CDATA[#eDdj3OJNTEC9_to {animation: eDdj3OJNTEC9_to__to 10000ms linear infinite normal forwards}@keyframes eDdj3OJNTEC9_to__to { 0% {transform: translate(-9.519989px,275.410023px)} 50% {transform: translate(192.955509px,72.934535px)} 100% {transform: translate(-9.519989px,275.410023px)}} #eDdj3OJNTEC11_to {animation: eDdj3OJNTEC11_to__to 10000ms linear infinite normal forwards}@keyframes eDdj3OJNTEC11_to__to { 0% {transform: translate(141.095001px,286.020024px)} 25% {transform: translate(193.80557px,233.309467px)} 50% {transform: translate(-165.128256px,592.243291px)} 100% {transform: translate(141.095001px,286.020024px)}} #eDdj3OJNTEC13_to {animation: eDdj3OJNTEC13_to__to 10000ms linear infinite normal forwards}@keyframes eDdj3OJNTEC13_to__to { 0% {transform: translate(97.250031px,489.665043px)} 50% {transform: translate(339.885954px,247.029129px)} 100% {transform: translate(97.250031px,489.665043px)}} #eDdj3OJNTEC19_to {animation: eDdj3OJNTEC19_to__to 10000ms linear infinite normal forwards}@keyframes eDdj3OJNTEC19_to__to { 0% {transform: translate(262.920013px,804.825115px)} 50% {transform: translate(500.535881px,567.209261px)} 100% {transform: translate(262.920013px,804.825115px)}} #eDdj3OJNTEC21_to {animation: eDdj3OJNTEC21_to__to 10000ms linear infinite normal forwards}@keyframes eDdj3OJNTEC21_to__to { 0% {transform: translate(347.785034px,881.180035px)} 25% {transform: translate(631.418062px,597.547037px)} 50% {transform: translate(198.856787px,1030.108325px)} 100% {transform: translate(347.785034px,881.180035px)}} #eDdj3OJNTEC28_to {animation: eDdj3OJNTEC28_to__to 10000ms linear infinite normal forwards}@keyframes eDdj3OJNTEC28_to__to { 0% {transform: translate(609.794895px,1098.594982px)} 25% {transform: translate(1007.215805px,701.174094px)} 50% {transform: translate(972.912105px,735.477792px)} 100% {transform: translate(609.794895px,1098.594982px)}} #eDdj3OJNTEC41_to {animation: eDdj3OJNTEC41_to__to 10000ms linear infinite normal forwards}@keyframes eDdj3OJNTEC41_to__to { 0% {transform: translate(951.374969px,1237.130047px)} 25% {transform: translate(953.885004px,1234.620028px)} 50% {transform: translate(1317.838879px,870.666152px)} 100% {transform: translate(951.374969px,1237.130047px)}} #eDdj3OJNTEC43_to {animation: eDdj3OJNTEC43_to__to 10000ms linear infinite normal forwards}@keyframes eDdj3OJNTEC43_to__to { 0% {transform: translate(1061.134796px,900.32005px)} 50% {transform: translate(1347.277851px,614.177007px)} 100% {transform: translate(1061.134796px,900.32005px)}} #eDdj3OJNTEC48_to {animation: eDdj3OJNTEC48_to__to 10000ms linear infinite normal forwards}@keyframes eDdj3OJNTEC48_to__to { 0% {transform: translate(1324.789886px,1345.265148px)} 25% {transform: translate(1434.394407px,1235.660665px)} 50% {transform: translate(1135.701216px,1534.353834px)} 100% {transform: translate(1324.789886px,1345.265148px)}} #eDdj3OJNTEC49_to {animation: eDdj3OJNTEC49_to__to 10000ms linear infinite normal forwards}@keyframes eDdj3OJNTEC49_to__to { 0% {transform: translate(1324.789886px,1345.265148px)} 25% {transform: translate(1434.394407px,1235.660665px)} 50% {transform: translate(1135.701216px,1534.353834px)} 100% {transform: translate(1324.789886px,1345.265148px)}} #eDdj3OJNTEC53_to {animation: eDdj3OJNTEC53_to__to 10000ms linear infinite normal forwards}@keyframes eDdj3OJNTEC53_to__to { 0% {transform: translate(1553.180054px,1435.774975px)} 50% {transform: translate(1782.429174px,1206.525875px)} 100% {transform: translate(1553.180054px,1435.774975px)}} #eDdj3OJNTEC59_to {animation: eDdj3OJNTEC59_to__to 10000ms linear infinite normal forwards}@keyframes eDdj3OJNTEC59_to__to { 0% {transform: translate(2301.299927px,1172.024975px)} 50% {transform: translate(1980.016515px,1493.308412px)} 100% {transform: translate(2301.299927px,1172.024975px)}} #eDdj3OJNTEC62_to {animation: eDdj3OJNTEC62_to__to 10000ms linear infinite normal forwards}@keyframes eDdj3OJNTEC62_to__to { 0% {transform: translate(1941.950073px,1686.290039px)} 50% {transform: translate(2293.35383px,1334.886302px)} 100% {transform: translate(1941.950073px,1686.290039px)}} #eDdj3OJNTEC64_to {animation: eDdj3OJNTEC64_to__to 10000ms linear infinite normal forwards}@keyframes eDdj3OJNTEC64_to__to { 0% {transform: translate(2074.180054px,1714.579956px)} 100% {transform: translate(2074.180054px,1714.579956px)}}]]></style><path id="eDdj3OJNTEC2" d="M111.75,-248.98C89.97,-227.2,54.33,-227.2,32.55,-248.98L31.84,-249.69C10.06,-271.47,10.06,-307.11,31.84,-328.89L669.65,-966.7C691.43,-988.48,727.07,-988.48,748.85,-966.7L749.56,-965.99C771.34,-944.21,771.34,-908.57,749.56,-886.79L111.75,-248.98Z" fill="rgb(230,230,230)" stroke="none" stroke-width="1"/><path id="eDdj3OJNTEC3" d="M-518.28,381.05C-540.06,402.83,-575.7,402.83,-597.48,381.05L-598.19,380.34C-619.97,358.56,-619.97,322.92,-598.19,301.14L39.62,-336.66C61.4,-358.44,97.04,-358.44,118.82,-336.66L119.53,-335.95C141.31,-314.17,141.31,-278.53,119.53,-256.75L-518.28,381.05Z" fill="rgb(51,51,51)" stroke="none" stroke-width="1"/><path id="eDdj3OJNTEC4" d="M244.69,-219.99C222.91,-198.21,187.27,-198.21,165.49,-219.99L164.78,-220.7C143,-242.48,143,-278.12,164.78,-299.9L802.59,-937.7C824.37,-959.48,860.01,-959.48,881.79,-937.7L882.5,-936.99C904.28,-915.21,904.28,-879.57,882.5,-857.79L244.69,-219.99Z" fill="rgb(230,230,230)" stroke="none" stroke-width="1"/><path id="eDdj3OJNTEC5" d="M-386.05,409.34C-407.83,431.12,-443.47,431.12,-465.25,409.34L-465.96,408.63C-487.74,386.85,-487.74,351.21,-465.96,329.43L171.85,-308.38C193.63,-330.16,229.27,-330.16,251.05,-308.38L251.76,-307.67C273.54,-285.89,273.54,-250.25,251.76,-228.47L-386.05,409.34Z" fill="rgb(51,51,51)" stroke="none" stroke-width="1"/><path id="eDdj3OJNTEC6" d="M284.28,-97.66C262.5,-75.88,226.86,-75.88,205.08,-97.66L204.37,-98.37C182.59,-120.15,182.59,-155.79,204.37,-177.57L842.18,-815.38C863.96,-837.16,899.6,-837.16,921.38,-815.38L922.09,-814.67C943.87,-792.89,943.87,-757.25,922.09,-735.47L284.28,-97.66Z" fill="rgb(230,230,230)" stroke="none" stroke-width="1"/><path id="eDdj3OJNTEC7" d="M-215.64,399.44C-237.42,421.22,-273.06,421.22,-294.84,399.44L-295.55,398.73C-317.33,376.95,-317.33,341.31,-295.55,319.53L342.26,-318.28C364.04,-340.06,399.68,-340.06,421.46,-318.28L422.17,-317.57C443.95,-295.79,443.95,-260.15,422.17,-238.37L-215.64,399.44Z" fill="rgb(77,77,77)" stroke="none" stroke-width="1"/><path id="eDdj3OJNTEC8" d="M212.16,135.69C190.38,157.47,154.74,157.47,132.96,135.69L132.25,134.98C110.47,113.2,110.47,77.56,132.25,55.78L990.68,-802.65C1012.46,-824.43,1048.1,-824.43,1069.88,-802.65L1070.59,-801.94C1092.37,-780.16,1092.37,-744.52,1070.59,-722.74L212.16,135.69Z" fill="rgb(230,230,230)" stroke="none" stroke-width="1"/><g id="eDdj3OJNTEC9_to" transform="translate(-9.519989,275.410023)"><path id="eDdj3OJNTEC9" d="M-288.47,632.07C-310.25,653.85,-345.89,653.85,-367.67,632.07L-368.38,631.36C-390.16,609.58,-390.16,573.94,-368.38,552.16L269.43,-85.64C291.21,-107.42,326.85,-107.42,348.63,-85.64L349.34,-84.93C371.12,-63.15,371.12,-27.51,349.34,-5.73L-288.47,632.07Z" transform="translate(9.519989,-273.215004)" fill="rgb(51,51,51)" stroke="none" stroke-width="1"/></g><path id="eDdj3OJNTEC10" d="M466.98,42.08C445.2,63.86,409.56,63.86,387.78,42.08L387.07,41.37C365.29,19.59,365.29,-16.05,387.07,-37.83L1581.05,-1231.8C1602.83,-1253.58,1638.47,-1253.58,1660.25,-1231.8L1660.96,-1231.09C1682.74,-1209.31,1682.74,-1173.67,1660.96,-1151.89L466.98,42.08Z" fill="rgb(230,230,230)" stroke="none" stroke-width="1"/><g id="eDdj3OJNTEC11_to" transform="translate(141.095001,286.020024)"><path id="eDdj3OJNTEC11" d="M-137.86,642.68C-159.64,664.46,-195.28,664.46,-217.06,642.68L-217.77,641.97C-239.55,620.19,-239.55,584.55,-217.77,562.77L420.05,-75.03C441.83,-96.81,477.47,-96.81,499.25,-75.03L499.96,-74.32C521.74,-52.54,521.74,-16.9,499.96,4.88L-137.86,642.68Z" transform="translate(-141.095001,-283.825005)" fill="rgb(51,51,51)" stroke="none" stroke-width="1"/></g><path id="eDdj3OJNTEC12" d="M357.82,312.46C336.04,334.24,300.4,334.24,278.62,312.46L277.91,311.75C256.13,289.97,256.13,254.33,277.91,232.55L1465.63,-955.15C1487.41,-976.93,1523.05,-976.93,1544.83,-955.15L1545.54,-954.44C1567.32,-932.66,1567.32,-897.02,1545.54,-875.24L357.82,312.46Z" fill="rgb(230,230,230)" stroke="none" stroke-width="1"/><g id="eDdj3OJNTEC13_to" transform="translate(97.250031,489.665043)"><path id="eDdj3OJNTEC13" d="M-181.7,846.33C-203.48,868.11,-239.12,868.11,-260.9,846.33L-261.61,845.62C-283.39,823.84,-283.39,788.2,-261.61,766.42L376.2,128.61C397.98,106.83,433.62,106.83,455.4,128.61L456.11,129.32C477.89,151.1,477.89,186.74,456.11,208.52L-181.7,846.33Z" transform="translate(-97.250031,-487.470024)" fill="rgb(77,77,77)" stroke="none" stroke-width="1"/></g><path id="eDdj3OJNTEC14" d="M422.52,404.03C400.74,425.81,365.1,425.81,343.32,404.03L342.61,403.32C320.83,381.54,320.83,345.9,342.61,324.12L1845.9,-1179.15C1867.68,-1200.93,1903.32,-1200.93,1925.1,-1179.15L1925.81,-1178.44C1947.59,-1156.66,1947.59,-1121.02,1925.81,-1099.24L422.52,404.03Z" fill="rgb(230,230,230)" stroke="none" stroke-width="1"/><path id="eDdj3OJNTEC15" d="M-49.47,874.61C-71.25,896.39,-106.89,896.39,-128.67,874.61L-129.38,873.9C-151.16,852.12,-151.16,816.48,-129.38,794.7L508.44,156.9C530.22,135.12,565.86,135.12,587.64,156.9L588.35,157.61C610.13,179.39,610.13,215.03,588.35,236.81L-49.47,874.61Z" fill="rgb(51,51,51)" stroke="none" stroke-width="1"/><path id="eDdj3OJNTEC16" d="M739.34,249.14C717.56,270.92,681.92,270.92,660.14,249.14L659.43,248.43C637.65,226.65,637.65,191.01,659.43,169.23L1853.4,-1024.74C1875.18,-1046.52,1910.82,-1046.52,1932.6,-1024.74L1933.31,-1024.03C1955.09,-1002.25,1955.09,-966.61,1933.31,-944.83L739.34,249.14Z" fill="rgb(242,242,242)" stroke="none" stroke-width="1"/><path id="eDdj3OJNTEC17" d="M-126.07,1111.73C-147.85,1133.51,-183.49,1133.51,-205.27,1111.73L-205.98,1111.02C-227.76,1089.24,-227.76,1053.6,-205.98,1031.82L678.85,147C700.63,125.22,736.27,125.22,758.05,147L758.76,147.71C780.54,169.49,780.54,205.13,758.76,226.91L-126.07,1111.73Z" fill="rgb(51,51,51)" stroke="none" stroke-width="1"/><path id="eDdj3OJNTEC18" d="M548.74,600.96C526.96,622.74,491.32,622.74,469.54,600.96L468.83,600.25C447.05,578.47,447.05,542.83,468.83,521.05L2113.56,-1123.68C2135.34,-1145.46,2170.98,-1145.46,2192.76,-1123.68L2193.47,-1122.97C2215.25,-1101.19,2215.25,-1065.55,2193.47,-1043.77L548.74,600.96Z" fill="rgb(230,230,230)" stroke="none" stroke-width="1"/><g id="eDdj3OJNTEC19_to" transform="translate(262.920013,804.825115)"><path id="eDdj3OJNTEC19" d="M-80.17,1225.63C-101.95,1247.41,-137.59,1247.41,-159.37,1225.63L-160.08,1224.92C-181.86,1203.14,-181.86,1167.5,-160.08,1145.72L606.01,379.63C627.79,357.85,663.43,357.85,685.21,379.63L685.92,380.34C707.7,402.12,707.7,437.76,685.92,459.54L-80.17,1225.63Z" transform="translate(-262.920013,-802.630096)" fill="rgb(58,96,112)" stroke="none" stroke-width="1"/></g><path id="eDdj3OJNTEC20" d="M699.36,611.57C677.58,633.35,641.94,633.35,620.16,611.57L619.45,610.86C597.67,589.08,597.67,553.44,619.45,531.66L1768.5,-617.38C1790.28,-639.16,1825.92,-639.16,1847.7,-617.38L1848.41,-616.67C1870.19,-594.89,1870.19,-559.25,1848.41,-537.47L699.36,611.57Z" fill="rgb(230,230,230)" stroke="none" stroke-width="1"/><g id="eDdj3OJNTEC21_to" transform="translate(347.785034,881.180035)"><path id="eDdj3OJNTEC21" d="M-61.06,1367.74C-82.84,1389.52,-118.48,1389.52,-140.26,1367.74L-140.97,1367.03C-162.75,1345.25,-162.75,1309.61,-140.97,1287.83L756.63,390.23C778.41,368.45,814.05,368.45,835.83,390.23L836.54,390.94C858.32,412.72,858.32,448.36,836.54,470.14L-61.06,1367.74Z" transform="translate(-347.785034,-878.985016)" fill="rgb(51,51,51)" stroke="none" stroke-width="1"/></g><path id="eDdj3OJNTEC22" d="M924.92,540.15C903.14,561.93,867.5,561.93,845.72,540.15L845.01,539.44C823.23,517.66,823.23,482.02,845.01,460.24L1873.86,-568.59C1895.64,-590.37,1931.28,-590.37,1953.06,-568.59L1953.77,-567.88C1975.55,-546.1,1975.55,-510.46,1953.77,-488.68L924.92,540.15Z" fill="rgb(230,230,230)" stroke="none" stroke-width="1"/><path id="eDdj3OJNTEC23" d="M-173.37,1638.44C-195.15,1660.22,-230.79,1660.22,-252.57,1638.44L-253.28,1637.73C-275.06,1615.95,-275.06,1580.31,-253.28,1558.53L852.8,452.47C874.58,430.69,910.22,430.69,932,452.47L932.71,453.18C954.49,474.96,954.49,510.6,932.71,532.38L-173.37,1638.44Z" fill="rgb(51,51,51)" stroke="none" stroke-width="1"/><path id="eDdj3OJNTEC24" d="M1057.86,569.14C1036.08,590.92,1000.44,590.92,978.66,569.14L977.95,568.43C956.17,546.65,956.17,511.01,977.95,489.23L1862.19,-395C1883.97,-416.78,1919.61,-416.78,1941.39,-395L1942.1,-394.29C1963.88,-372.51,1963.88,-336.87,1942.1,-315.09L1057.86,569.14Z" fill="rgb(242,242,242)" stroke="none" stroke-width="1"/><path id="eDdj3OJNTEC25" d="M-16.61,1642.19C-38.39,1663.97,-74.03,1663.97,-95.81,1642.19L-96.52,1641.48C-118.3,1619.7,-118.3,1584.06,-96.52,1562.28L985.03,480.75C1006.81,458.97,1042.45,458.97,1064.23,480.75L1064.94,481.46C1086.72,503.24,1086.72,538.88,1064.94,560.66L-16.61,1642.19Z" fill="rgb(77,77,77)" stroke="none" stroke-width="1"/><path id="eDdj3OJNTEC26" d="M253.05,1692.85C231.27,1714.63,195.63,1714.63,173.85,1692.85L173.14,1692.14C151.36,1670.36,151.36,1634.72,173.14,1612.94L1082.6,703.48C1104.38,681.7,1140.02,681.7,1161.8,703.48L1162.51,704.19C1184.29,725.97,1184.29,761.61,1162.51,783.39L253.05,1692.85Z" transform="matrix(1 0 0 1 -80 -140)" fill="rgb(51,51,51)" stroke="none" stroke-width="1"/><path id="eDdj3OJNTEC27" d="M1097.46,691.47C1075.68,713.25,1040.04,713.25,1018.26,691.47L1017.55,690.76C995.77,668.98,995.77,633.34,1017.55,611.56L2007.5,-378.39C2029.28,-400.17,2064.92,-400.17,2086.7,-378.39L2087.41,-377.68C2109.19,-355.9,2109.19,-320.26,2087.41,-298.48L1097.46,691.47Z" fill="rgb(230,230,230)" stroke="none" stroke-width="1"/><g id="eDdj3OJNTEC28_to" transform="translate(609.794895,1098.594982)"><path id="eDdj3OJNTEC28" d="M64.15,1721.95C42.37,1743.73,6.73,1743.73,-15.05,1721.95L-15.76,1721.24C-37.54,1699.46,-37.54,1663.82,-15.76,1642.04L1155.44,470.85C1177.22,449.07,1212.86,449.07,1234.64,470.85L1235.35,471.56C1257.13,493.34,1257.13,528.98,1235.35,550.76L64.15,1721.95Z" transform="translate(-609.794895,-1096.399963)" fill="rgb(77,77,77)" stroke="none" stroke-width="1"/></g><path id="eDdj3OJNTEC29" d="M1025.33,924.82C1003.55,946.6,967.91,946.6,946.13,924.82L945.42,924.11C923.64,902.33,923.64,866.69,945.42,844.91L1986.29,-195.95C2008.07,-217.73,2043.71,-217.73,2065.49,-195.95L2066.2,-195.24C2087.98,-173.46,2087.98,-137.82,2066.2,-116.04L1025.33,924.82Z" fill="rgb(204,204,204)" stroke="none" stroke-width="1"/><path id="eDdj3OJNTEC30" d="M1025.33,924.82C1003.55,946.6,967.91,946.6,946.13,924.82L945.42,924.11C923.64,902.33,923.64,866.69,945.42,844.91L1657.56,132.77C1679.34,110.99,1714.98,110.99,1736.76,132.77L1737.47,133.48C1759.25,155.26,1759.25,190.9,1737.47,212.68L1025.33,924.82Z" fill="rgb(230,230,230)" stroke="none" stroke-width="1"/><path id="eDdj3OJNTEC31" d="M253.05,1692.85C231.27,1714.63,195.63,1714.63,173.85,1692.85L173.14,1692.14C151.36,1670.36,151.36,1634.72,173.14,1612.94L1082.6,703.48C1104.38,681.7,1140.02,681.7,1161.8,703.48L1162.51,704.19C1184.29,725.97,1184.29,761.61,1162.51,783.39L253.05,1692.85Z" fill="rgb(51,51,51)" stroke="none" stroke-width="1"/><path id="eDdj3OJNTEC32" d="M1175.24,934.72C1153.46,956.5,1117.82,956.5,1096.04,934.72L1095.33,934.01C1073.55,912.23,1073.55,876.59,1095.33,854.81L2161.98,-211.83C2183.76,-233.61,2219.4,-233.61,2241.18,-211.83L2241.89,-211.12C2263.67,-189.34,2263.67,-153.7,2241.89,-131.92L1175.24,934.72Z" fill="rgb(230,230,230)" stroke="none" stroke-width="1"/><path id="eDdj3OJNTEC33" d="M400.45,1705.26C378.67,1727.04,343.03,1727.04,321.25,1705.26L320.54,1704.55C298.76,1682.77,298.76,1647.13,320.54,1625.35L1232.5,713.39C1254.28,691.61,1289.92,691.61,1311.7,713.39L1312.41,714.1C1334.19,735.88,1334.19,771.52,1312.41,793.3L400.45,1705.26Z" fill="rgb(102,102,102)" stroke="none" stroke-width="1"/><path id="eDdj3OJNTEC34" d="M1518.73,748.9C1496.95,770.68,1461.31,770.68,1439.53,748.9L1438.82,748.19C1417.04,726.41,1417.04,690.77,1438.82,668.99L2410.39,-302.58C2432.17,-324.36,2467.81,-324.36,2489.59,-302.58L2490.3,-301.87C2512.08,-280.09,2512.08,-244.45,2490.3,-222.67L1518.73,748.9Z" fill="rgb(242,242,242)" stroke="none" stroke-width="1"/><path id="eDdj3OJNTEC35" d="M1539.08,890.49C1517.3,912.27,1481.66,912.27,1459.88,890.49L1459.17,889.78C1437.39,868,1437.39,832.36,1459.17,810.58L2430.74,-160.99C2452.52,-182.77,2488.16,-182.77,2509.94,-160.99L2510.65,-160.28C2532.43,-138.5,2532.43,-102.86,2510.65,-81.08L1539.08,890.49Z" fill="rgb(242,242,242)" stroke="none" stroke-width="1"/><path id="eDdj3OJNTEC36" d="M1395.86,1194.93C1374.08,1216.71,1338.44,1216.71,1316.66,1194.93L1315.95,1194.22C1294.17,1172.44,1294.17,1136.8,1315.95,1115.02L2659.54,-228.56C2681.32,-250.34,2716.96,-250.34,2738.74,-228.56L2739.45,-227.85C2761.23,-206.07,2761.23,-170.43,2739.45,-148.65L1395.86,1194.93Z" fill="rgb(242,242,242)" stroke="none" stroke-width="1"/><path id="eDdj3OJNTEC37" d="M1579.06,1172.95C1557.28,1194.73,1521.64,1194.73,1499.86,1172.95L1499.15,1172.24C1477.37,1150.46,1477.37,1114.82,1499.15,1093.04L2662.43,-70.23C2684.21,-92.01,2719.85,-92.01,2741.63,-70.23L2742.34,-69.52C2764.12,-47.74,2764.12,-12.1,2742.34,9.68L1579.06,1172.95Z" fill="rgb(242,242,242)" stroke="none" stroke-width="1"/><path id="eDdj3OJNTEC38" d="M1873.74,1032.41C1851.96,1054.19,1816.32,1054.19,1794.54,1032.41L1793.83,1031.7C1772.05,1009.92,1772.05,974.28,1793.83,952.5L2765.4,-19.07C2787.18,-40.85,2822.82,-40.85,2844.6,-19.07L2845.31,-18.36C2867.09,3.42,2867.09,39.06,2845.31,60.84L1873.74,1032.41Z" fill="rgb(242,242,242)" stroke="none" stroke-width="1"/><path id="eDdj3OJNTEC39" d="M2030.87,1037.21C2009.09,1058.99,1973.45,1058.99,1951.67,1037.21L1950.96,1036.5C1929.18,1014.72,1929.18,979.08,1950.96,957.3L2922.53,-14.27C2944.31,-36.05,2979.95,-36.05,3001.73,-14.27L3002.44,-13.56C3024.22,8.22,3024.22,43.86,3002.44,65.64L2030.87,1037.21Z" fill="rgb(242,242,242)" stroke="none" stroke-width="1"/><path id="eDdj3OJNTEC40" d="M1428.38,839.26C1406.6,861.04,1370.96,861.04,1349.18,839.26L1348.47,838.55C1326.69,816.77,1326.69,781.13,1348.47,759.35L1986.28,121.54C2008.06,99.76,2043.7,99.76,2065.48,121.54L2066.19,122.25C2087.97,144.03,2087.97,179.67,2066.19,201.45L1428.38,839.26Z" fill="rgb(230,230,230)" stroke="none" stroke-width="1"/><g id="eDdj3OJNTEC41_to" transform="translate(951.374969,1237.130047)"><path id="eDdj3OJNTEC41" d="M547.21,1719.01C525.43,1740.79,489.79,1740.79,468.01,1719.01L467.3,1718.3C445.52,1696.52,445.52,1660.88,467.3,1639.1L1355.54,750.86C1377.32,729.08,1412.96,729.08,1434.74,750.86L1435.45,751.57C1457.23,773.35,1457.23,808.99,1435.45,830.77L547.21,1719.01Z" transform="translate(-951.374969,-1234.935028)" fill="rgb(51,51,51)" stroke="none" stroke-width="1"/></g><path id="eDdj3OJNTEC42" d="M1467.98,961.59C1446.2,983.37,1410.56,983.37,1388.78,961.59L1388.07,960.88C1366.29,939.1,1366.29,903.46,1388.07,881.68L2025.88,243.87C2047.66,222.09,2083.3,222.09,2105.08,243.87L2105.79,244.58C2127.57,266.36,2127.57,302,2105.79,323.78L1467.98,961.59Z" fill="rgb(242,242,242)" stroke="none" stroke-width="1"/><g id="eDdj3OJNTEC43_to" transform="translate(1061.134796,900.32005)"><path id="eDdj3OJNTEC43" d="M716.97,1709.77C695.19,1731.55,659.55,1731.55,637.77,1709.77L637.06,1709.06C615.28,1687.28,615.28,1651.64,637.06,1629.86L1525.96,740.96C1547.74,719.18,1583.38,719.18,1605.16,740.96L1605.87,741.67C1627.65,763.45,1627.65,799.09,1605.87,820.87L716.97,1709.77Z" transform="translate(-1121.464874,-1225.365021)" fill="rgb(128,128,128)" stroke="none" stroke-width="1"/></g><path id="eDdj3OJNTEC44" d="M716.97,1709.77C695.19,1731.55,659.55,1731.55,637.77,1709.77L637.06,1709.06C615.28,1687.28,615.28,1651.64,637.06,1629.86L1525.96,740.96C1547.74,719.18,1583.38,719.18,1605.16,740.96L1605.87,741.67C1627.65,763.45,1627.65,799.09,1605.87,820.87L716.97,1709.77Z" fill="rgb(128,128,128)" stroke="none" stroke-width="1"/><path id="eDdj3OJNTEC45" d="M1395.86,1194.93C1374.08,1216.71,1338.44,1216.71,1316.66,1194.93L1315.95,1194.22C1294.17,1172.44,1294.17,1136.8,1315.95,1115.02L2207.61,223.36C2229.39,201.58,2265.03,201.58,2286.81,223.36L2287.52,224.07C2309.3,245.85,2309.3,281.49,2287.52,303.27L1395.86,1194.93Z" fill="rgb(230,230,230)" stroke="none" stroke-width="1"/><path id="eDdj3OJNTEC46" d="M895.22,1691.32C873.44,1713.1,837.8,1713.1,816.02,1691.32L815.31,1690.61C793.53,1668.83,793.53,1633.19,815.31,1611.41L1453.12,973.6C1474.9,951.82,1510.54,951.82,1532.32,973.6L1533.03,974.31C1554.81,996.09,1554.81,1031.73,1533.03,1053.51L895.22,1691.32Z" fill="rgb(51,51,51)" stroke="none" stroke-width="1"/><path id="eDdj3OJNTEC47" d="M1546.47,1205.54C1524.69,1227.32,1489.05,1227.32,1467.27,1205.54L1466.56,1204.83C1444.78,1183.05,1444.78,1147.41,1466.56,1125.63L2235.19,357C2256.97,335.22,2292.61,335.22,2314.39,357L2315.1,357.71C2336.88,379.49,2336.88,415.13,2315.1,436.91L1546.47,1205.54Z" fill="rgb(230,230,230)" stroke="none" stroke-width="1"/><g id="eDdj3OJNTEC48_to" transform="translate(1324.789886,1345.265148)"><path id="eDdj3OJNTEC48" d="M1045.84,1701.93C1024.06,1723.71,988.42,1723.71,966.64,1701.93L965.93,1701.22C944.15,1679.44,944.15,1643.8,965.93,1622.02L1603.74,984.21C1625.52,962.43,1661.16,962.43,1682.94,984.21L1683.65,984.92C1705.43,1006.7,1705.43,1042.34,1683.65,1064.12L1045.84,1701.93Z" transform="translate(-1324.789886,-1343.070129)" fill="rgb(77,77,77)" stroke="none" stroke-width="1"/></g><g id="eDdj3OJNTEC49_to" transform="translate(1324.789886,1345.265148)"><path id="eDdj3OJNTEC49" d="M1045.84,1701.93C1024.06,1723.71,988.42,1723.71,966.64,1701.93L965.93,1701.22C944.15,1679.44,944.15,1643.8,965.93,1622.02L1603.74,984.21C1625.52,962.43,1661.16,962.43,1682.94,984.21L1683.65,984.92C1705.43,1006.7,1705.43,1042.34,1683.65,1064.12L1045.84,1701.93Z" transform="translate(-1324.789886,-1343.070129)" fill="rgb(77,77,77)" stroke="none" stroke-width="1"/></g><path id="eDdj3OJNTEC50" d="M1772.04,1134.12C1750.26,1155.9,1714.62,1155.9,1692.84,1134.12L1692.13,1133.41C1670.35,1111.63,1670.35,1075.99,1692.13,1054.21L2329.94,416.4C2351.72,394.62,2387.36,394.62,2409.14,416.4L2409.85,417.11C2431.63,438.89,2431.63,474.53,2409.85,496.31L1772.04,1134.12Z" fill="rgb(242,242,242)" stroke="none" stroke-width="1"/><path id="eDdj3OJNTEC51" d="M1142,1764.15C1120.22,1785.93,1084.58,1785.93,1062.8,1764.15L1062.09,1763.44C1040.31,1741.66,1040.31,1706.02,1062.09,1684.24L1699.9,1046.43C1721.68,1024.65,1757.32,1024.65,1779.1,1046.43L1779.81,1047.14C1801.59,1068.92,1801.59,1104.56,1779.81,1126.34L1142,1764.15Z" fill="rgb(51,51,51)" stroke="none" stroke-width="1"/><path id="eDdj3OJNTEC52" d="M1904.97,1163.11C1883.19,1184.89,1847.55,1184.89,1825.77,1163.11L1825.06,1162.4C1803.28,1140.62,1803.28,1104.98,1825.06,1083.2L2462.87,445.39C2484.65,423.61,2520.29,423.61,2542.07,445.39L2542.78,446.1C2564.56,467.88,2564.56,503.52,2542.78,525.3L1904.97,1163.11Z" fill="rgb(230,230,230)" stroke="none" stroke-width="1"/><g id="eDdj3OJNTEC53_to" transform="translate(1553.180054,1435.774975)"><path id="eDdj3OJNTEC53" d="M1274.23,1792.44C1252.45,1814.22,1216.81,1814.22,1195.03,1792.44L1194.32,1791.73C1172.54,1769.95,1172.54,1734.31,1194.32,1712.53L1832.13,1074.72C1853.91,1052.94,1889.55,1052.94,1911.33,1074.72L1912.04,1075.43C1933.82,1097.21,1933.82,1132.85,1912.04,1154.63L1274.23,1792.44Z" transform="translate(-1553.180054,-1433.579956)" fill="rgb(77,77,77)" stroke="none" stroke-width="1"/></g><path id="eDdj3OJNTEC54" d="M1944.57,1285.44C1922.79,1307.22,1887.15,1307.22,1865.37,1285.44L1864.66,1284.73C1842.88,1262.95,1842.88,1227.31,1864.66,1205.53L2502.47,567.72C2524.25,545.94,2559.89,545.94,2581.67,567.72L2582.38,568.43C2604.16,590.21,2604.16,625.85,2582.38,647.63L1944.57,1285.44Z" fill="rgb(230,230,230)" stroke="none" stroke-width="1"/><path id="eDdj3OJNTEC55" d="M1444.65,1782.54C1422.87,1804.32,1387.23,1804.32,1365.45,1782.54L1364.74,1781.83C1342.96,1760.05,1342.96,1724.41,1364.74,1702.63L2002.55,1064.82C2024.33,1043.04,2059.97,1043.04,2081.75,1064.82L2082.46,1065.53C2104.24,1087.31,2104.24,1122.95,2082.46,1144.73L1444.65,1782.54Z" fill="rgb(51,51,51)" stroke="none" stroke-width="1"/><path id="eDdj3OJNTEC56" d="M1872.45,1518.79C1850.67,1540.57,1815.03,1540.57,1793.25,1518.79L1792.54,1518.08C1770.76,1496.3,1770.76,1460.66,1792.54,1438.88L2615.11,616.31C2636.89,594.53,2672.53,594.53,2694.31,616.31L2695.02,617.02C2716.8,638.8,2716.8,674.44,2695.02,696.22L1872.45,1518.79Z" fill="rgb(204,204,204)" stroke="none" stroke-width="1"/><path id="eDdj3OJNTEC57" d="M1872.45,1518.79C1850.67,1540.57,1815.03,1540.57,1793.25,1518.79L1792.54,1518.08C1770.76,1496.3,1770.76,1460.66,1792.54,1438.88L2430.35,801.07C2452.13,779.29,2487.77,779.29,2509.55,801.07L2510.26,801.78C2532.04,823.56,2532.04,859.2,2510.26,880.98L1872.45,1518.79Z" fill="rgb(230,230,230)" stroke="none" stroke-width="1"/><path id="eDdj3OJNTEC58" d="M1371.81,2015.18C1350.03,2036.96,1314.39,2036.96,1292.61,2015.18L1291.9,2014.47C1270.12,1992.69,1270.12,1957.05,1291.9,1935.27L1929.71,1297.46C1951.49,1275.68,1987.13,1275.68,2008.91,1297.46L2009.62,1298.17C2031.4,1319.95,2031.4,1355.59,2009.62,1377.37L1371.81,2015.18Z" fill="rgb(51,51,51)" stroke="none" stroke-width="1"/><g id="eDdj3OJNTEC59_to" transform="translate(2301.299927,1172.024975)"><path id="eDdj3OJNTEC59" d="M2022.35,1528.69C2000.57,1550.47,1964.93,1550.47,1943.15,1528.69L1942.44,1527.98C1920.66,1506.2,1920.66,1470.56,1942.44,1448.78L2580.25,810.97C2602.03,789.19,2637.67,789.19,2659.45,810.97L2660.16,811.68C2681.94,833.46,2681.94,869.1,2660.16,890.88L2022.35,1528.69Z" transform="translate(-2301.299927,-1169.829956)" fill="rgb(230,230,230)" stroke="none" stroke-width="1"/></g><path id="eDdj3OJNTEC60" d="M1521.72,2025.07C1499.94,2046.85,1464.3,2046.85,1442.52,2025.07L1441.81,2024.36C1420.03,2002.58,1420.03,1966.94,1441.81,1945.16L2079.62,1307.35C2101.4,1285.57,2137.04,1285.57,2158.82,1307.35L2159.53,1308.06C2181.31,1329.84,2181.31,1365.48,2159.53,1387.26L1521.72,2025.07Z" fill="rgb(51,51,51)" stroke="none" stroke-width="1"/><path id="eDdj3OJNTEC61" d="M2293.04,1415.12C2271.26,1436.9,2235.62,1436.9,2213.84,1415.12L2213.13,1414.41C2191.35,1392.63,2191.35,1356.99,2213.13,1335.21L2850.94,697.4C2872.72,675.62,2908.36,675.62,2930.14,697.4L2930.85,698.11C2952.63,719.89,2952.63,755.53,2930.85,777.31L2293.04,1415.12Z" fill="rgb(242,242,242)" stroke="none" stroke-width="1"/><g id="eDdj3OJNTEC62_to" transform="translate(1941.950073,1686.290039)"><path id="eDdj3OJNTEC62" d="M1663,2045.15C1641.22,2066.93,1605.58,2066.93,1583.8,2045.15L1583.09,2044.44C1561.31,2022.66,1561.31,1987.02,1583.09,1965.24L2220.9,1327.43C2242.68,1305.65,2278.32,1305.65,2300.1,1327.43L2300.81,1328.14C2322.59,1349.92,2322.59,1385.56,2300.81,1407.34L1663,2045.15Z" transform="translate(-1941.950073,-1686.290039)" fill="rgb(51,51,51)" stroke="none" stroke-width="1"/></g><path id="eDdj3OJNTEC63" d="M2425.97,1444.11C2404.19,1465.89,2368.55,1465.89,2346.77,1444.11L2346.06,1443.4C2324.28,1421.62,2324.28,1385.98,2346.06,1364.2L2983.87,726.39C3005.65,704.61,3041.29,704.61,3063.07,726.39L3063.78,727.1C3085.56,748.88,3085.56,784.52,3063.78,806.3L2425.97,1444.11Z" fill="rgb(230,230,230)" stroke="none" stroke-width="1"/><g id="eDdj3OJNTEC64_to" transform="translate(2074.180054,1714.579956)"><path id="eDdj3OJNTEC64" d="M1795.23,2073.44C1773.45,2095.22,1737.81,2095.22,1716.03,2073.44L1715.32,2072.73C1693.54,2050.95,1693.54,2015.31,1715.32,1993.53L2353.13,1355.72C2374.91,1333.94,2410.55,1333.94,2432.33,1355.72L2433.04,1356.43C2454.82,1378.21,2454.82,1413.85,2433.04,1435.63L1795.23,2073.44Z" transform="translate(-2074.180054,-1714.579956)" fill="rgb(77,77,77)" stroke="none" stroke-width="1"/></g><path id="eDdj3OJNTEC65" d="M2465.57,1566.44C2443.79,1588.22,2408.15,1588.22,2386.37,1566.44L2385.66,1565.73C2363.88,1543.95,2363.88,1508.31,2385.66,1486.53L3023.47,848.72C3045.25,826.94,3080.89,826.94,3102.67,848.72L3103.38,849.43C3125.16,871.21,3125.16,906.85,3103.38,928.63L2465.57,1566.44Z" fill="rgb(230,230,230)" stroke="none" stroke-width="1"/><path id="eDdj3OJNTEC66" d="M1965.65,2063.54C1943.87,2085.32,1908.23,2085.32,1886.45,2063.54L1885.74,2062.83C1863.96,2041.05,1863.96,2005.41,1885.74,1983.63L2523.55,1345.82C2545.33,1324.04,2580.97,1324.04,2602.75,1345.82L2603.46,1346.53C2625.24,1368.31,2625.24,1403.95,2603.46,1425.73L1965.65,2063.54Z" fill="rgb(51,51,51)" stroke="none" stroke-width="1"/></svg>