<svg id="e3xZk4y2B5H1" xmlns="http://www.w3.org/2000/svg" xmlns:xlink="http://www.w3.org/1999/xlink" viewBox="0 0 777.55 955.2" shape-rendering="geometricPrecision" text-rendering="geometricPrecision"><style><![CDATA[#e3xZk4y2B5H2_to {animation: e3xZk4y2B5H2_to__to 10000ms linear infinite normal forwards}@keyframes e3xZk4y2B5H2_to__to { 0% {transform: translate(635.689987px,91.855003px)} 51% {transform: translate(635.689987px,91.855003px)} 64% {transform: translate(635.689987px,505.855381px)} 80% {transform: translate(635.689987px,91.855003px)} 100% {transform: translate(635.689987px,91.855003px)}} #e3xZk4y2B5H4_to {animation: e3xZk4y2B5H4_to__to 10000ms linear infinite normal forwards}@keyframes e3xZk4y2B5H4_to__to { 0% {transform: translate(291.825005px,101.099998px)} 28% {transform: translate(291.825005px,101.099998px)} 46% {transform: translate(291.825006px,665.848433px)} 69% {transform: translate(291.825005px,101.099998px)} 100% {transform: translate(291.825005px,101.099998px)}} #e3xZk4y2B5H5_tr {animation: e3xZk4y2B5H5_tr__tr 10000ms linear infinite normal forwards}@keyframes e3xZk4y2B5H5_tr__tr { 0% {transform: translate(291.825005px,338.449997px) rotate(0deg)} 10% {transform: translate(291.825005px,338.449997px) rotate(0deg)} 70% {transform: translate(291.825005px,338.449997px) rotate(360deg)} 100% {transform: translate(291.825005px,338.449997px) rotate(360deg)}} #e3xZk4y2B5H6_to {animation: e3xZk4y2B5H6_to__to 10000ms linear infinite normal forwards}@keyframes e3xZk4y2B5H6_to__to { 0% {transform: translate(97.275002px,101.099998px)} 20% {transform: translate(97.275002px,575.799998px)} 40% {transform: translate(551.065px,574.125px)} 60% {transform: translate(546.845px,101.1px)} 100% {transform: translate(97.275002px,101.099998px)}} #e3xZk4y2B5H9_to {animation: e3xZk4y2B5H9_to__to 10000ms linear infinite normal forwards}@keyframes e3xZk4y2B5H9_to__to { 0% {transform: translate(97.269999px,467.459976px)} 24% {transform: translate(97.269999px,467.459976px)} 57% {transform: translate(680.269999px,467.459976px)} 90% {transform: translate(97.269999px,467.459976px)} 100% {transform: translate(97.269999px,467.459976px)}} #e3xZk4y2B5H10_to {animation: e3xZk4y2B5H10_to__to 10000ms linear infinite normal forwards}@keyframes e3xZk4y2B5H10_to__to { 0% {transform: translate(600.034988px,238.274994px)} 13% {transform: translate(600.034988px,238.274994px)} 53% {transform: translate(194.549988px,238.274994px)} 97% {transform: translate(600.034988px,238.274994px)} 100% {transform: translate(600.034988px,238.274994px)}} #e3xZk4y2B5H12_to {animation: e3xZk4y2B5H12_to__to 10000ms linear infinite normal forwards}@keyframes e3xZk4y2B5H12_to__to { 0% {transform: translate(340.799988px,646.190033px)} 20% {transform: translate(600.034988px,646.190033px)} 50% {transform: translate(600.034988px,238.275033px)} 80% {transform: translate(340.139988px,238.275033px)} 100% {transform: translate(340.799988px,646.190033px)}} #e3xZk4y2B5H13_to {animation: e3xZk4y2B5H13_to__to 10000ms linear infinite normal forwards}@keyframes e3xZk4y2B5H13_to__to { 0% {transform: translate(146.090006px,887.955017px)} 50% {transform: translate(146.090006px,73.38501px)} 100% {transform: translate(146.090006px,887.955017px)}} #e3xZk4y2B5H16_to {animation: e3xZk4y2B5H16_to__to 10000ms linear infinite normal forwards}@keyframes e3xZk4y2B5H16_to__to { 0% {transform: translate(510.439987px,415.939987px)} 50% {transform: translate(510.439987px,77.090932px)} 100% {transform: translate(510.439987px,415.939987px)}} #e3xZk4y2B5H22_to {animation: e3xZk4y2B5H22_to__to 10000ms linear infinite normal forwards}@keyframes e3xZk4y2B5H22_to__to { 0% {transform: translate(504.555008px,811.670013px)} 5% {transform: translate(504.555008px,811.670013px)} 23% {transform: translate(504.555008px,451.670013px)} 41% {transform: translate(504.555008px,811.670013px)} 100% {transform: translate(504.555008px,811.670013px)}} #e3xZk4y2B5H23_to {animation: e3xZk4y2B5H23_to__to 10000ms linear infinite normal forwards}@keyframes e3xZk4y2B5H23_to__to { 0% {transform: translate(533.055008px,840.174957px)} 17% {transform: translate(533.055008px,840.174957px)} 42% {transform: translate(180.290008px,840.174957px)} 72% {transform: translate(533.055008px,840.174957px)} 100% {transform: translate(533.055008px,840.174957px)}} #e3xZk4y2B5H24_to {animation: e3xZk4y2B5H24_to__to 10000ms linear infinite normal forwards}@keyframes e3xZk4y2B5H24_to__to { 0% {transform: translate(713.360016px,890.700012px)} 46% {transform: translate(713.360016px,890.700012px)} 87% {transform: translate(713.360016px,327.839258px)} 100% {transform: translate(713.360016px,327.839258px)}} #e3xZk4y2B5H25_to {animation: e3xZk4y2B5H25_to__to 10000ms linear infinite normal forwards}@keyframes e3xZk4y2B5H25_to__to { 0% {transform: translate(583.990005px,651.165009px)} 40% {transform: translate(583.990005px,651.165009px)} 65% {transform: translate(195.549983px,651.165011px)} 90% {transform: translate(583.990005px,651.165009px)} 100% {transform: translate(583.990005px,651.165009px)}}]]></style><g id="e3xZk4y2B5H2_to" transform="translate(635.689987,91.855003)"><polygon id="e3xZk4y2B5H2" points="778.54,0 635.69,183.71 492.84,0" transform="translate(-635.689987,-91.855003)" fill="rgb(86,94,118)" fill-rule="evenodd" stroke="none" stroke-width="1"/></g><polygon id="e3xZk4y2B5H3" points="389.77,476.55 636.91,707.82 389.1,955.62" fill="rgb(255,255,255)" stroke="none" stroke-width="1"/><g id="e3xZk4y2B5H4_to" transform="translate(291.825005,101.099998)"><polygon id="e3xZk4y2B5H4" points="194.55,0 389.1,0 389.1,202.2" transform="translate(-291.825005,-101.099998)" fill="rgb(46,119,206)" fill-rule="evenodd" stroke="none" stroke-width="1"/></g><g id="e3xZk4y2B5H5_tr" transform="translate(291.825005,338.449997) rotate(0)"><polygon id="e3xZk4y2B5H5" points="194.55,474.7 389.1,474.7 389.1,202.2" transform="translate(-291.825005,-338.449997)" fill="rgb(216,216,216)" fill-rule="evenodd" stroke="none" stroke-width="1"/></g><g id="e3xZk4y2B5H6_to" transform="translate(97.275002,101.099998)"><polygon id="e3xZk4y2B5H6" points="0,0 194.55,0 194.55,202.2" transform="translate(-111.065,-101.1)" fill="rgb(46,119,206)" fill-rule="evenodd" stroke="none" stroke-width="1"/></g><polygon id="e3xZk4y2B5H7" points="0,472.69 -0.01,202.2 194.55,202.2" fill="rgb(255,0,244)" fill-rule="evenodd" stroke="none" stroke-width="1"/><polygon id="e3xZk4y2B5H8" points="194.54,202.2 -0.01,202.2 -0.01,0" fill="rgb(0,123,255)" fill-rule="evenodd" stroke="none" stroke-width="1"/><g id="e3xZk4y2B5H9_to" transform="translate(97.269999,467.459976)"><polygon id="e3xZk4y2B5H9" points="194.54,202.2 194.55,474.7 -0.01,732.72 0,472.69" transform="translate(-97.269999,-467.459976)" fill="rgb(86,94,118)" fill-rule="evenodd" stroke="none" stroke-width="1"/></g><g id="e3xZk4y2B5H10_to" transform="translate(600.034988,238.274994)"><polygon id="e3xZk4y2B5H10" points="778.54,0 778.54,309.64 631.11,476.55 421.53,394.6" transform="translate(-600.034988,-238.274994)" fill="rgb(236,233,231)" fill-rule="evenodd" stroke="none" stroke-width="1"/></g><polygon id="e3xZk4y2B5H11" points="194.55,474.7 291.83,474.7 291.83,817.67 -0.01,817.68 -0.01,732.72" fill="rgb(236,233,231)" fill-rule="evenodd" stroke="none" stroke-width="1"/><g id="e3xZk4y2B5H12_to" transform="translate(340.799988,646.190033)"><rect id="e3xZk4y2B5H12" width="97.94" height="342.98" rx="0" ry="0" transform="translate(-48.969988,-171.490033)" fill="rgb(46,119,206)" fill-rule="evenodd" stroke="none" stroke-width="1"/></g><g id="e3xZk4y2B5H13_to" transform="translate(146.090006,887.955017)"><g id="e3xZk4y2B5H13" transform="translate(-146.090006,-887.955017)"><g id="e3xZk4y2B5H14"><path id="e3xZk4y2B5H15" d="M146.09,814.57C226.78,814.57,292.19,880.28,292.19,961.34L-0.01,961.34C-0.01,880.28,65.4,814.57,146.09,814.57Z" fill="rgb(145,202,234)" stroke="none" stroke-width="1"/></g></g></g><g id="e3xZk4y2B5H16_to" transform="translate(510.439987,415.939987)"><g id="e3xZk4y2B5H16" transform="translate(-510.439987,-415.939987)"><g id="e3xZk4y2B5H17"><path id="e3xZk4y2B5H18" d="M510.44,355.33C577.08,355.33,631.11,409.6,631.11,476.55L389.77,476.55C389.77,409.61,443.79,355.33,510.44,355.33Z" fill="rgb(86,94,118)" stroke="none" stroke-width="1"/></g></g></g><polygon id="e3xZk4y2B5H19" points="648.51,955.48 648.51,696.08 778.21,825.78" fill="rgb(86,94,118)" stroke="none" stroke-width="1"/><path id="e3xZk4y2B5H20" d="M648.51,696.22L587.59,757.14C569.99,739.53,545.67,728.64,518.81,728.64C465.09,728.64,421.53,772.19,421.53,825.92C421.53,852.78,432.42,877.1,450.03,894.7L389.11,955.62L389.11,696.22L648.51,696.22Z" fill="rgb(255,255,255)" stroke="none" stroke-width="1"/><path id="e3xZk4y2B5H21" d="M648.51,696.22L648.51,955.62L389.1,955.62L450.02,894.7C467.62,912.31,491.94,923.19,518.8,923.19C572.52,923.19,616.07,879.64,616.07,825.91C616.07,799.05,605.18,774.73,587.58,757.13L648.51,696.22Z" fill="rgb(86,94,118)" stroke="none" stroke-width="1"/><g id="e3xZk4y2B5H22_to" transform="translate(504.555008,811.670013)"><path id="e3xZk4y2B5H22" d="M587.59,757.14L450.02,894.7C432.42,877.1,421.52,852.78,421.52,825.92C421.52,772.2,465.07,728.64,518.8,728.64C545.67,728.64,569.99,739.53,587.59,757.14Z" transform="translate(-504.555008,-811.670013)" fill="rgb(236,233,231)" stroke="none" stroke-width="1"/></g><g id="e3xZk4y2B5H23_to" transform="translate(533.055008,840.174957)"><path id="e3xZk4y2B5H23" d="M616.08,825.92C616.08,879.64,572.53,923.2,518.81,923.2C491.95,923.2,467.63,912.32,450.03,894.71L587.59,757.15C605.19,774.74,616.08,799.06,616.08,825.92Z" transform="translate(-533.055008,-840.174957)" fill="rgb(236,233,231)" stroke="none" stroke-width="1"/></g><g id="e3xZk4y2B5H24_to" transform="translate(713.360016,890.700012)"><polygon id="e3xZk4y2B5H24" points="648.51,955.62 778.21,955.48 778.21,825.78" transform="translate(-713.360016,-890.700012)" fill="rgb(216,216,216)" stroke="none" stroke-width="1"/></g><g id="e3xZk4y2B5H25_to" transform="translate(583.990005,651.165009)"><g id="e3xZk4y2B5H25" transform="translate(-583.990005,-651.165009)"><polygon id="e3xZk4y2B5H26" points="778.21,825.78 778.21,476.55 389.77,476.55" fill="rgb(145,234,229)" stroke="none" stroke-width="1"/></g></g><polygon id="e3xZk4y2B5H27" points="389.77,476.55 631.11,476.55 631.11,702.97" fill="rgb(145,202,234)" fill-rule="evenodd" stroke="none" stroke-width="1"/><polygon id="e3xZk4y2B5H28" points="636.91,707.82 778.21,825.78 778.54,530.57" fill="rgb(46,119,206)" stroke="none" stroke-width="1"/></svg>