<svg id="etSCLJVPIis1" xmlns="http://www.w3.org/2000/svg" xmlns:xlink="http://www.w3.org/1999/xlink" viewBox="0 0 3000 3000" shape-rendering="geometricPrecision" text-rendering="geometricPrecision"><style><![CDATA[#etSCLJVPIis4_ts {animation: etSCLJVPIis4_ts__ts 10000ms linear infinite normal forwards}@keyframes etSCLJVPIis4_ts__ts { 0% {transform: translate(1502px,2389.73px) scale(1,1)} 25% {transform: translate(1502px,2389.73px) scale(1,1.094871)} 50% {transform: translate(1502px,2389.73px) scale(1,1)} 75% {transform: translate(1502px,2389.73px) scale(1,1.079035)} 100% {transform: translate(1502px,2389.73px) scale(1,1)}} #etSCLJVPIis5_ts {animation: etSCLJVPIis5_ts__ts 10000ms linear infinite normal forwards}@keyframes etSCLJVPIis5_ts__ts { 0% {transform: translate(1502px,553.904125px) scale(1,1.057257)} 50% {transform: translate(1502px,553.904125px) scale(1,0.96163)} 100% {transform: translate(1502px,553.904125px) scale(1,1.057257)}}]]></style><g id="etSCLJVPIis2"><polygon id="etSCLJVPIis3" points="0.5,0.5 2999.5,0.5 2999.5,2999.5 0.5,2999.5 0.5,0.5" fill="rgb(0,0,0)" fill-rule="evenodd" stroke="none" stroke-width="1"/><g id="etSCLJVPIis4_ts" transform="translate(1502,2389.73) scale(1,1)"><path id="etSCLJVPIis4" d="M2209.07,1491.9L2209.07,2399.2L790.93,2399.2L790.93,1465.21C822.31,1475.72,852.46,1479.59,878,1476.28C995.6,1461.04,1105.04,1381.88,1198.05,1314.6C1239.69,1284.48,1277.82,1256.9,1309.88,1240.4C1387.66,1200.37,1472.72,1173.66,1553.84,1187.85C1619.34,1199.3,1683.46,1238.04,1740.87,1319.09C1623.03,1292.18,1530.88,1326.55,1470.53,1385.96C1442.83,1413.23,1421.95,1445.81,1408.43,1480.24C1394.85,1514.82,1388.67,1551.39,1390.44,1586.42C1394.31,1662.82,1435.13,1731.62,1518.24,1758.71C1684.44,1812.89,1802.29,1723.37,1920.26,1633.75C2030.78,1549.79,2105.38,1503.32,2209.07,1491.9L2209.07,1491.9Z" transform="translate(-1502,-2389.73)" fill="rgb(63,169,245)" fill-rule="evenodd" stroke="rgb(0,0,0)" stroke-width="0.5" stroke-miterlimit="2.6131"/></g><g id="etSCLJVPIis5_ts" transform="translate(1502,553.904125) scale(1,1.057257)"><path id="etSCLJVPIis5" d="M1025.91,1364.28C986.99,1385.82,946.4,1403.46,904.69,1412.88L790.93,1412.88L790.93,1364.28L1025.91,1364.28L1025.91,1364.28ZM790.93,522.07L2209.07,522.07L2209.07,572.77L790.93,572.77L790.93,522.07L790.93,522.07ZM2209.07,600.55L2209.07,649.15L790.93,649.15L790.93,600.55L2209.07,600.55L2209.07,600.55ZM2209.07,676.92L2209.07,725.52L790.93,725.52L790.93,676.92L2209.07,676.92L2209.07,676.92ZM2209.07,753.29L2209.07,801.89L790.93,801.89L790.93,753.29L2209.07,753.29L2209.07,753.29ZM2209.07,829.67L2209.07,878.27L790.93,878.27L790.93,829.67L2209.07,829.67L2209.07,829.67ZM2209.07,906.04L2209.07,954.64L790.93,954.64L790.93,906.04L2209.07,906.04L2209.07,906.04ZM2209.07,982.41L2209.07,1031.01L790.93,1031.01L790.93,982.41L2209.07,982.41L2209.07,982.41ZM2209.07,1058.79L2209.07,1107.39L790.93,1107.39L790.93,1058.79L2209.07,1058.79L2209.07,1058.79ZM1143.29,1287.9C1120.54,1304.21,1096.83,1320.81,1072.31,1336.5L790.93,1336.5L790.93,1287.9L1143.29,1287.9L1143.29,1287.9ZM1252.53,1211.53C1230.07,1225.6,1206.54,1242.28,1181.78,1260.13L790.93,1260.13L790.93,1211.53L1252.53,1211.53L1252.53,1211.53ZM1447.71,1135.16C1398.18,1143.55,1349.4,1161.28,1303.01,1183.76L790.93,1183.76L790.93,1135.16L1447.71,1135.16L1447.71,1135.16ZM1775.83,1669.77C1703.3,1712.86,1625.85,1737.12,1534.15,1707.23C1509.77,1699.28,1490.5,1686.22,1476.08,1669.77L1775.83,1669.77L1775.83,1669.77ZM1884.79,1593.39C1862.89,1610.02,1840.97,1626.58,1818.76,1641.99L1457.66,1641.99C1450.34,1627.01,1445.8,1610.55,1443.93,1593.39L1884.79,1593.39L1884.79,1593.39ZM1991.03,1517.02C1967.39,1532.05,1944.37,1548.6,1921.55,1565.62L1443.13,1565.62C1443.91,1549.52,1446.77,1533.14,1451.63,1517.02L1991.03,1517.02L1991.03,1517.02ZM2209.07,1440.65L2209.07,1443.59C2149.48,1442.92,2098.86,1462.34,2063.62,1477.72C2055.41,1481.31,2047.31,1485.16,2039.3,1489.24L1462.14,1489.24C1470.01,1472.07,1480.23,1455.63,1492.68,1440.64L2209.07,1440.64L2209.07,1440.65ZM2209.07,1364.28L2209.07,1412.88L1520.3,1412.88C1560.25,1378.89,1603.1,1365.47,1647.14,1364.28L1660.59,1364.28C1722.08,1365.95,1785.51,1389.53,1846.28,1412.62C1839.92,1395.42,1833.58,1379.43,1826.9,1364.28L2209.07,1364.28L2209.07,1364.28ZM2209.07,1287.9L2209.07,1336.5L1813.74,1336.5C1805.1,1319.59,1795.63,1303.58,1784.73,1287.9L2209.07,1287.9L2209.07,1287.9ZM2209.07,1211.53L2209.07,1260.13L1763.61,1260.13C1754.5,1249.13,1744.49,1238.13,1733.34,1226.9C1728,1221.52,1722.61,1216.4,1717.18,1211.53L2209.07,1211.53L2209.07,1211.53ZM2209.07,1135.16L2209.07,1183.76L1682.1,1183.76C1644.85,1158.04,1606.04,1142.59,1566.56,1135.16L2209.07,1135.16L2209.07,1135.16Z" transform="translate(-1502,-522.070001)" fill="rgb(241,90,36)" fill-rule="evenodd" stroke="none" stroke-width="1"/></g><polygon id="etSCLJVPIis6" points="719.73,450.1 1020.04,450.1 1020.04,469.6 729.49,469.6 729.49,2451.67 2270.51,2451.67 2270.51,469.6 1979.96,469.6 1979.96,450.1 2280.27,450.1 2290.02,450.1 2290.02,459.85 2290.02,2461.42 2290.02,2471.17 2280.27,2471.17 719.73,2471.17 709.98,2471.17 709.98,2461.42 709.98,459.85 709.98,450.1 719.73,450.1" fill="rgb(128,128,128)" stroke="none" stroke-width="1"/></g><rect id="etSCLJVPIis7" width="1318.8" height="294.52" rx="0" ry="0" transform="matrix(1 0 0 1 842.6 1935.95)" fill="none" stroke="none" stroke-width="1"/><text id="etSCLJVPIis8" dx="0" dy="0" font-family="&quot;Mobley-Sans&quot;" font-size="340" font-weight="400" transform="matrix(1 0 0 1 842.599 2206.59)" fill="rgb(0,0,0)" stroke="none" stroke-width="1"><![CDATA[SANDBAR]]></text><rect id="etSCLJVPIis9" width="1318.8" height="294.52" rx="0" ry="0" transform="matrix(1 0 0 1 842.6 2242.47)" fill="none" stroke="none" stroke-width="1"/><text id="etSCLJVPIis10" dx="0" dy="0" font-family="&quot;BrandonGrotesque-Black&quot;" font-size="72" font-weight="400" transform="matrix(1 0 0 1 842.599 2292.87)" fill="rgb(0,0,0)" stroke="none" stroke-width="1"><![CDATA[S]]></text><text id="etSCLJVPIis11" dx="0" dy="0" font-family="&quot;BrandonGrotesque-Black&quot;" font-size="72" font-weight="400" transform="matrix(1 0 0 1 897.174 2292.87)" fill="rgb(0,0,0)" stroke="none" stroke-width="1"><![CDATA[U]]></text><text id="etSCLJVPIis12" dx="0" dy="0" font-family="&quot;BrandonGrotesque-Black&quot;" font-size="72" font-weight="400" transform="matrix(1 0 0 1 964.206 2292.87)" fill="rgb(0,0,0)" stroke="none" stroke-width="1"><![CDATA[R]]></text><text id="etSCLJVPIis13" dx="0" dy="0" font-family="&quot;BrandonGrotesque-Black&quot;" font-size="72" font-weight="400" transform="matrix(1 0 0 1 1027.56 2292.87)" fill="rgb(0,0,0)" stroke="none" stroke-width="1"><![CDATA[F]]></text><text id="etSCLJVPIis14" dx="0" dy="0" font-family="&quot;BrandonGrotesque-Black&quot;" font-size="72" font-weight="400" transform="matrix(1 0 0 1 1083.22 2292.87)" fill="rgb(0,0,0)" stroke="none" stroke-width="1"><![CDATA[ ]]></text><text id="etSCLJVPIis15" dx="0" dy="0" font-family="&quot;BrandonGrotesque-Black&quot;" font-size="72" font-weight="400" transform="matrix(1 0 0 1 1114.25 2292.87)" fill="rgb(0,0,0)" stroke="none" stroke-width="1"><![CDATA[S]]></text><text id="etSCLJVPIis16" dx="0" dy="0" font-family="&quot;BrandonGrotesque-Black&quot;" font-size="72" font-weight="400" transform="matrix(1 0 0 1 1168.83 2292.87)" fill="rgb(0,0,0)" stroke="none" stroke-width="1"><![CDATA[C]]></text><text id="etSCLJVPIis17" dx="0" dy="0" font-family="&quot;BrandonGrotesque-Black&quot;" font-size="72" font-weight="400" transform="matrix(1 0 0 1 1232.4 2292.87)" fill="rgb(0,0,0)" stroke="none" stroke-width="1"><![CDATA[H]]></text><text id="etSCLJVPIis18" dx="0" dy="0" font-family="&quot;BrandonGrotesque-Black&quot;" font-size="72" font-weight="400" transform="matrix(1 0 0 1 1303.1 2292.87)" fill="rgb(0,0,0)" stroke="none" stroke-width="1"><![CDATA[O]]></text><text id="etSCLJVPIis19" dx="0" dy="0" font-family="&quot;BrandonGrotesque-Black&quot;" font-size="72" font-weight="400" transform="matrix(1 0 0 1 1375.03 2292.87)" fill="rgb(0,0,0)" stroke="none" stroke-width="1"><![CDATA[O]]></text><text id="etSCLJVPIis20" dx="0" dy="0" font-family="&quot;BrandonGrotesque-Black&quot;" font-size="72" font-weight="400" transform="matrix(1 0 0 1 1446.96 2292.87)" fill="rgb(0,0,0)" stroke="none" stroke-width="1"><![CDATA[L]]></text><text id="etSCLJVPIis21" dx="0" dy="0" font-family="&quot;BrandonGrotesque-Black&quot;" font-size="72" font-weight="400" transform="matrix(1 0 0 1 1498.87 2292.87)" fill="rgb(0,0,0)" stroke="none" stroke-width="1"><![CDATA[ ]]></text><text id="etSCLJVPIis22" dx="0" dy="0" font-family="&quot;BrandonGrotesque-Black&quot;" font-size="72" font-weight="400" transform="matrix(1 0 0 1 1529.9 2292.87)" fill="rgb(0,0,0)" stroke="none" stroke-width="1"><![CDATA[P]]></text><text id="etSCLJVPIis23" dx="0" dy="0" font-family="&quot;BrandonGrotesque-Black&quot;" font-size="72" font-weight="400" transform="matrix(1 0 0 1 1587.21 2292.87)" fill="rgb(0,0,0)" stroke="none" stroke-width="1"><![CDATA[I]]></text><text id="etSCLJVPIis24" dx="0" dy="0" font-family="&quot;BrandonGrotesque-Black&quot;" font-size="72" font-weight="400" transform="matrix(1 0 0 1 1626.09 2292.87)" fill="rgb(0,0,0)" stroke="none" stroke-width="1"><![CDATA[S]]></text><text id="etSCLJVPIis25" dx="0" dy="0" font-family="&quot;BrandonGrotesque-Black&quot;" font-size="72" font-weight="400" transform="matrix(1 0 0 1 1680.67 2292.87)" fill="rgb(0,0,0)" stroke="none" stroke-width="1"><![CDATA[M]]></text><text id="etSCLJVPIis26" dx="0" dy="0" font-family="&quot;BrandonGrotesque-Black&quot;" font-size="72" font-weight="400" transform="matrix(1 0 0 1 1759 2292.87)" fill="rgb(0,0,0)" stroke="none" stroke-width="1"><![CDATA[O]]></text><text id="etSCLJVPIis27" dx="0" dy="0" font-family="&quot;BrandonGrotesque-Black&quot;" font-size="72" font-weight="400" transform="matrix(1 0 0 1 1830.93 2292.87)" fill="rgb(0,0,0)" stroke="none" stroke-width="1"><![CDATA[ ]]></text><text id="etSCLJVPIis28" dx="0" dy="0" font-family="&quot;BrandonGrotesque-Black&quot;" font-size="72" font-weight="400" transform="matrix(1 0 0 1 1861.96 2292.87)" fill="rgb(0,0,0)" stroke="none" stroke-width="1"><![CDATA[B]]></text><text id="etSCLJVPIis29" dx="0" dy="0" font-family="&quot;BrandonGrotesque-Black&quot;" font-size="72" font-weight="400" transform="matrix(1 0 0 1 1921.15 2292.87)" fill="rgb(0,0,0)" stroke="none" stroke-width="1"><![CDATA[E]]></text><text id="etSCLJVPIis30" dx="0" dy="0" font-family="&quot;BrandonGrotesque-Black&quot;" font-size="72" font-weight="400" transform="matrix(1 0 0 1 1978.46 2292.87)" fill="rgb(0,0,0)" stroke="none" stroke-width="1"><![CDATA[A]]></text><text id="etSCLJVPIis31" dx="0" dy="0" font-family="&quot;BrandonGrotesque-Black&quot;" font-size="72" font-weight="400" transform="matrix(1 0 0 1 2040.81 2292.87)" fill="rgb(0,0,0)" stroke="none" stroke-width="1"><![CDATA[C]]></text><text id="etSCLJVPIis32" dx="0" dy="0" font-family="&quot;BrandonGrotesque-Black&quot;" font-size="72" font-weight="400" transform="matrix(1 0 0 1 2104.38 2292.87)" fill="rgb(0,0,0)" stroke="none" stroke-width="1"><![CDATA[H]]></text><text id="etSCLJVPIis33" dx="0" dy="0" font-family="&quot;BrandonGrotesque-Black&quot;" font-size="56" font-weight="400" transform="matrix(1 0 0 1 1045.96 472.548)" fill="rgb(153,153,153)" stroke="none" stroke-width="1"><![CDATA[L]]></text><text id="etSCLJVPIis34" dx="0" dy="0" font-family="&quot;BrandonGrotesque-Black&quot;" font-size="56" font-weight="400" transform="matrix(1 0 0 1 1080.74 472.548)" fill="rgb(153,153,153)" stroke="none" stroke-width="1"><![CDATA[E]]></text><text id="etSCLJVPIis35" dx="0" dy="0" font-family="&quot;BrandonGrotesque-Black&quot;" font-size="56" font-weight="400" transform="matrix(1 0 0 1 1119.71 472.548)" fill="rgb(153,153,153)" stroke="none" stroke-width="1"><![CDATA[S]]></text><text id="etSCLJVPIis36" dx="0" dy="0" font-family="&quot;BrandonGrotesque-Black&quot;" font-size="56" font-weight="400" transform="matrix(1 0 0 1 1156.56 472.548)" fill="rgb(153,153,153)" stroke="none" stroke-width="1"><![CDATA[S]]></text><text id="etSCLJVPIis37" dx="0" dy="0" font-family="&quot;BrandonGrotesque-Black&quot;" font-size="56" font-weight="400" transform="matrix(1 0 0 1 1193.41 472.548)" fill="rgb(153,153,153)" stroke="none" stroke-width="1"><![CDATA[O]]></text><text id="etSCLJVPIis38" dx="0" dy="0" font-family="&quot;BrandonGrotesque-Black&quot;" font-size="56" font-weight="400" transform="matrix(1 0 0 1 1243.75 472.548)" fill="rgb(153,153,153)" stroke="none" stroke-width="1"><![CDATA[N]]></text><text id="etSCLJVPIis39" dx="0" dy="0" font-family="&quot;BrandonGrotesque-Black&quot;" font-size="56" font-weight="400" transform="matrix(1 0 0 1 1293.2 472.548)" fill="rgb(153,153,153)" stroke="none" stroke-width="1"><![CDATA[S]]></text><text id="etSCLJVPIis40" dx="0" dy="0" font-family="&quot;BrandonGrotesque-Black&quot;" font-size="56" font-weight="400" transform="matrix(1 0 0 1 1330.05 472.548)" fill="rgb(153,153,153)" stroke="none" stroke-width="1"><![CDATA[ ]]></text><text id="etSCLJVPIis41" dx="0" dy="0" font-family="&quot;BrandonGrotesque-Black&quot;" font-size="56" font-weight="400" transform="matrix(1 0 0 1 1348.58 472.548)" fill="rgb(153,153,153)" stroke="none" stroke-width="1"><![CDATA[•]]></text><text id="etSCLJVPIis42" dx="0" dy="0" font-family="&quot;BrandonGrotesque-Black&quot;" font-size="56" font-weight="400" transform="matrix(1 0 0 1 1377.48 472.548)" fill="rgb(153,153,153)" stroke="none" stroke-width="1"><![CDATA[ ]]></text><text id="etSCLJVPIis43" dx="0" dy="0" font-family="&quot;BrandonGrotesque-Black&quot;" font-size="56" font-weight="400" transform="matrix(1 0 0 1 1396.01 472.548)" fill="rgb(153,153,153)" stroke="none" stroke-width="1"><![CDATA[C]]></text><text id="etSCLJVPIis44" dx="0" dy="0" font-family="&quot;BrandonGrotesque-Black&quot;" font-size="56" font-weight="400" transform="matrix(1 0 0 1 1439.86 472.548)" fill="rgb(153,153,153)" stroke="none" stroke-width="1"><![CDATA[A]]></text><text id="etSCLJVPIis45" dx="0" dy="0" font-family="&quot;BrandonGrotesque-Black&quot;" font-size="56" font-weight="400" transform="matrix(1 0 0 1 1483.09 472.548)" fill="rgb(153,153,153)" stroke="none" stroke-width="1"><![CDATA[M]]></text><text id="etSCLJVPIis46" dx="0" dy="0" font-family="&quot;BrandonGrotesque-Black&quot;" font-size="56" font-weight="400" transform="matrix(1 0 0 1 1538.42 472.548)" fill="rgb(153,153,153)" stroke="none" stroke-width="1"><![CDATA[P]]></text><text id="etSCLJVPIis47" dx="0" dy="0" font-family="&quot;BrandonGrotesque-Black&quot;" font-size="56" font-weight="400" transform="matrix(1 0 0 1 1577.56 472.548)" fill="rgb(153,153,153)" stroke="none" stroke-width="1"><![CDATA[S]]></text><text id="etSCLJVPIis48" dx="0" dy="0" font-family="&quot;BrandonGrotesque-Black&quot;" font-size="56" font-weight="400" transform="matrix(1 0 0 1 1614.41 472.548)" fill="rgb(153,153,153)" stroke="none" stroke-width="1"><![CDATA[ ]]></text><text id="etSCLJVPIis49" dx="0" dy="0" font-family="&quot;BrandonGrotesque-Black&quot;" font-size="56" font-weight="400" transform="matrix(1 0 0 1 1632.95 472.548)" fill="rgb(153,153,153)" stroke="none" stroke-width="1"><![CDATA[•]]></text><text id="etSCLJVPIis50" dx="0" dy="0" font-family="&quot;BrandonGrotesque-Black&quot;" font-size="56" font-weight="400" transform="matrix(1 0 0 1 1661.84 472.548)" fill="rgb(153,153,153)" stroke="none" stroke-width="1"><![CDATA[ ]]></text><text id="etSCLJVPIis51" dx="0" dy="0" font-family="&quot;BrandonGrotesque-Black&quot;" font-size="56" font-weight="400" transform="matrix(1 0 0 1 1680.38 472.548)" fill="rgb(153,153,153)" stroke="none" stroke-width="1"><![CDATA[R]]></text><text id="etSCLJVPIis52" dx="0" dy="0" font-family="&quot;BrandonGrotesque-Black&quot;" font-size="56" font-weight="400" transform="matrix(1 0 0 1 1724.06 472.548)" fill="rgb(153,153,153)" stroke="none" stroke-width="1"><![CDATA[E]]></text><text id="etSCLJVPIis53" dx="0" dy="0" font-family="&quot;BrandonGrotesque-Black&quot;" font-size="56" font-weight="400" transform="matrix(1 0 0 1 1763.03 472.548)" fill="rgb(153,153,153)" stroke="none" stroke-width="1"><![CDATA[N]]></text><text id="etSCLJVPIis54" dx="0" dy="0" font-family="&quot;BrandonGrotesque-Black&quot;" font-size="56" font-weight="400" transform="matrix(1 0 0 1 1812.48 472.548)" fill="rgb(153,153,153)" stroke="none" stroke-width="1"><![CDATA[T]]></text><text id="etSCLJVPIis55" dx="0" dy="0" font-family="&quot;BrandonGrotesque-Black&quot;" font-size="56" font-weight="400" transform="matrix(1 0 0 1 1845.18 472.548)" fill="rgb(153,153,153)" stroke="none" stroke-width="1"><![CDATA[A]]></text><text id="etSCLJVPIis56" dx="0" dy="0" font-family="&quot;BrandonGrotesque-Black&quot;" font-size="56" font-weight="400" transform="matrix(1 0 0 1 1888.42 472.548)" fill="rgb(153,153,153)" stroke="none" stroke-width="1"><![CDATA[L]]></text><text id="etSCLJVPIis57" dx="0" dy="0" font-family="&quot;BrandonGrotesque-Black&quot;" font-size="56" font-weight="400" transform="matrix(1 0 0 1 1923.19 472.548)" fill="rgb(153,153,153)" stroke="none" stroke-width="1"><![CDATA[S]]></text></svg>