<?xml version="1.0" encoding="utf-8"?>
<!-- Generator: Adobe Illustrator 26.0.1, SVG Export Plug-In . SVG Version: 6.00 Build 0)  -->
<svg version="1.2" baseProfile="tiny" id="Layer_1" xmlns="http://www.w3.org/2000/svg" xmlns:xlink="http://www.w3.org/1999/xlink"
	 x="0px" y="0px" viewBox="0 0 500 500" overflow="visible" xml:space="preserve">
<path d="M-24.98-43.47v550.24h550.24V-43.47H-24.98z M323.78,410.47c-7.56,3.64-15.86,6.48-24.88,8.5
	c-9.03,2.03-19.43,3.04-31.19,3.04c-12.04,0-23.03-1.93-32.97-5.78c-9.94-3.85-18.48-9.24-25.62-16.17s-12.71-15.19-16.69-24.78
	c-3.99-9.59-5.98-20.19-5.98-31.81c0-11.9,2.06-22.64,6.19-32.24c4.13-9.59,9.8-17.75,17.01-24.46c7.21-6.72,15.71-11.9,25.52-15.54
	c9.8-3.64,20.44-5.46,31.92-5.46c11.9,0,22.79,1.72,32.66,5.14c9.87,3.43,17.81,7.95,23.83,13.54l-18.27,19.74
	c-3.78-4.2-9.07-7.77-15.85-10.71c-6.79-2.94-14.17-4.41-22.16-4.41c-7.84,0-14.95,1.4-21.31,4.2c-6.37,2.8-11.8,6.65-16.28,11.55
	c-4.48,4.9-7.95,10.64-10.4,17.22c-2.45,6.58-3.67,13.72-3.67,21.42c0,7.98,1.22,15.3,3.67,21.94c2.45,6.65,5.95,12.43,10.5,17.33
	c4.55,4.9,10.08,8.71,16.59,11.45c6.51,2.73,13.89,4.09,22.15,4.09c11.34,0,21.21-1.75,29.61-5.25v-37.8h-31.29V333.4h56.91V410.47z
	 M434.03,418.24h-23.94v-16.17h-0.42c-2.24,5.04-6.13,9.49-11.66,13.33c-5.53,3.85-12.08,5.78-19.63,5.78
	c-6.58,0-12.22-1.16-16.91-3.47c-4.69-2.31-8.54-5.35-11.55-9.13c-3.01-3.78-5.22-8.12-6.62-13.02c-1.4-4.9-2.1-9.94-2.1-15.12v-63
	h25.2v55.86c0,2.94,0.21,6.02,0.63,9.24c0.42,3.22,1.33,6.13,2.73,8.71c1.4,2.59,3.32,4.73,5.78,6.41c2.45,1.68,5.7,2.52,9.76,2.52
	c3.92,0,7.38-0.8,10.4-2.42c3.01-1.61,5.46-3.68,7.35-6.2c1.89-2.52,3.32-5.42,4.3-8.71c0.98-3.29,1.47-6.62,1.47-9.98v-55.44h25.2
	V418.24z"/>
<g>
</g>
<g>
</g>
<g>
</g>
<g>
</g>
<g>
</g>
<g>
</g>
</svg>
