<?xml version="1.0" encoding="UTF-8"?>
<svg id="Layer_1" xmlns="http://www.w3.org/2000/svg" version="1.1" viewBox="0 0 741.1 66.99">
  <!-- Generator: Adobe Illustrator 29.8.3, SVG Export Plug-In . SVG Version: 2.1.1 Build 3)  -->
  <path d="M.2,11.78v-6.39h5.56v6.39H.2ZM.2,50.67V17.87h5.56v32.81H.2Z"/>
  <path d="M14.23,50.67V5.39h5.56v16.25c2.59-3.01,5.87-4.51,9.82-4.51,2.43,0,4.54.48,6.33,1.44,1.79.96,3.07,2.28,3.85,3.97.77,1.69,1.16,4.14,1.16,7.35v20.79h-5.56v-20.79c0-2.78-.6-4.8-1.81-6.07-1.21-1.27-2.91-1.9-5.11-1.9-1.65,0-3.2.43-4.65,1.28-1.45.86-2.49,2.01-3.1,3.48-.62,1.46-.93,3.48-.93,6.05v17.95h-5.56Z"/>
  <path d="M47.34,34.27c0-6.07,1.69-10.57,5.07-13.5,2.82-2.43,6.26-3.64,10.32-3.64,4.51,0,8.2,1.48,11.06,4.43,2.86,2.96,4.29,7.04,4.29,12.25,0,4.22-.63,7.54-1.9,9.96-1.27,2.42-3.11,4.3-5.53,5.64-2.42,1.34-5.06,2.01-7.92,2.01-4.59,0-8.3-1.47-11.14-4.42-2.83-2.95-4.25-7.19-4.25-12.73ZM53.06,34.27c0,4.2.92,7.35,2.75,9.44,1.83,2.09,4.14,3.14,6.92,3.14s5.06-1.05,6.89-3.15,2.75-5.3,2.75-9.61c0-4.06-.92-7.13-2.76-9.22-1.84-2.09-4.13-3.13-6.87-3.13s-5.09,1.04-6.92,3.12-2.75,5.22-2.75,9.42Z"/>
  <path d="M84.53,50.67V17.87h5v4.97c1.28-2.33,2.46-3.86,3.54-4.6,1.08-.74,2.27-1.11,3.57-1.11,1.87,0,3.78.6,5.71,1.79l-1.92,5.16c-1.36-.8-2.72-1.21-4.08-1.21-1.21,0-2.31.37-3.27,1.1-.97.73-1.66,1.75-2.07,3.04-.62,1.98-.93,4.14-.93,6.49v17.17h-5.56Z"/>
  <path d="M117.8,45.7l.8,4.91c-1.56.33-2.96.49-4.2.49-2.02,0-3.58-.32-4.7-.96-1.11-.64-1.89-1.48-2.35-2.52-.45-1.04-.68-3.23-.68-6.56v-18.87h-4.08v-4.32h4.08v-8.12l5.53-3.34v11.46h5.59v4.32h-5.59v19.18c0,1.59.1,2.61.29,3.06.2.45.51.81.96,1.08.44.27,1.08.4,1.9.4.62,0,1.43-.07,2.44-.22Z"/>
  <path d="M121.17,34.27c0-6.07,1.69-10.57,5.07-13.5,2.82-2.43,6.26-3.64,10.32-3.64,4.51,0,8.2,1.48,11.06,4.43s4.29,7.04,4.29,12.25c0,4.22-.63,7.54-1.9,9.96-1.27,2.42-3.11,4.3-5.53,5.64-2.42,1.34-5.06,2.01-7.92,2.01-4.59,0-8.3-1.47-11.14-4.42-2.83-2.95-4.25-7.19-4.25-12.73ZM126.88,34.27c0,4.2.92,7.35,2.75,9.44,1.83,2.09,4.14,3.14,6.92,3.14s5.06-1.05,6.89-3.15,2.75-5.3,2.75-9.61c0-4.06-.92-7.13-2.76-9.22-1.84-2.09-4.13-3.13-6.87-3.13s-5.09,1.04-6.92,3.12-2.75,5.22-2.75,9.42Z"/>
  <path d="M158.42,50.67V17.87h5v4.66c2.41-3.6,5.89-5.41,10.44-5.41,1.98,0,3.79.35,5.45,1.07,1.66.71,2.9,1.64,3.72,2.8.82,1.15,1.4,2.52,1.73,4.11.21,1.03.31,2.83.31,5.41v20.17h-5.56v-19.96c0-2.27-.22-3.96-.65-5.08-.43-1.12-1.2-2.02-2.3-2.69-1.1-.67-2.39-1-3.88-1-2.37,0-4.41.75-6.13,2.25-1.72,1.5-2.58,4.36-2.58,8.56v17.92h-5.56Z"/>
  <path d="M195.18,50.67v-6.33h6.33v6.33h-6.33Z"/>
  <path d="M216.31,50.67h-5.16V5.39h5.56v16.16c2.35-2.94,5.34-4.42,8.99-4.42,2.02,0,3.93.41,5.73,1.22s3.29,1.96,4.45,3.43c1.16,1.47,2.08,3.25,2.73,5.33.66,2.08.99,4.3.99,6.67,0,5.62-1.39,9.97-4.17,13.04s-6.12,4.6-10.01,4.6-6.91-1.62-9.11-4.85v4.11ZM216.25,34.02c0,3.93.54,6.78,1.61,8.53,1.75,2.86,4.12,4.29,7.1,4.29,2.43,0,4.53-1.06,6.3-3.17,1.77-2.11,2.66-5.26,2.66-9.44s-.85-7.45-2.55-9.48c-1.7-2.04-3.75-3.06-6.16-3.06s-4.53,1.06-6.3,3.17c-1.77,2.11-2.66,5.16-2.66,9.16Z"/>
  <path d="M244.3,34.27c0-6.07,1.69-10.57,5.07-13.5,2.82-2.43,6.26-3.64,10.32-3.64,4.51,0,8.2,1.48,11.06,4.43s4.29,7.04,4.29,12.25c0,4.22-.63,7.54-1.9,9.96-1.27,2.42-3.11,4.3-5.53,5.64-2.42,1.34-5.06,2.01-7.92,2.01-4.59,0-8.3-1.47-11.14-4.42-2.83-2.95-4.25-7.19-4.25-12.73ZM250.01,34.27c0,4.2.92,7.35,2.75,9.44,1.83,2.09,4.14,3.14,6.92,3.14s5.06-1.05,6.89-3.15,2.75-5.3,2.75-9.61c0-4.06-.92-7.13-2.76-9.22-1.84-2.09-4.13-3.13-6.87-3.13s-5.09,1.04-6.92,3.12-2.75,5.22-2.75,9.42Z"/>
  <path d="M279.48,34.27c0-6.07,1.69-10.57,5.07-13.5,2.82-2.43,6.26-3.64,10.32-3.64,4.51,0,8.2,1.48,11.06,4.43,2.86,2.96,4.29,7.04,4.29,12.25,0,4.22-.63,7.54-1.9,9.96-1.27,2.42-3.11,4.3-5.53,5.64-2.42,1.34-5.06,2.01-7.92,2.01-4.59,0-8.3-1.47-11.14-4.42-2.83-2.95-4.25-7.19-4.25-12.73ZM285.2,34.27c0,4.2.92,7.35,2.75,9.44,1.83,2.09,4.14,3.14,6.92,3.14s5.06-1.05,6.89-3.15,2.75-5.3,2.75-9.61c0-4.06-.92-7.13-2.76-9.22-1.84-2.09-4.13-3.13-6.87-3.13s-5.09,1.04-6.92,3.12-2.75,5.22-2.75,9.42Z"/>
  <path d="M316.77,50.67V5.39h5.56v25.82l13.16-13.34h7.2l-12.54,12.17,13.81,20.63h-6.86l-10.84-16.77-3.92,3.77v13h-5.56Z"/>
  <path d="M346.15,40.88l5.5-.87c.31,2.2,1.17,3.89,2.58,5.07,1.41,1.17,3.38,1.76,5.92,1.76s4.45-.52,5.68-1.56c1.24-1.04,1.85-2.26,1.85-3.66,0-1.26-.55-2.24-1.64-2.97-.76-.49-2.66-1.12-5.68-1.88-4.08-1.03-6.9-1.92-8.48-2.67-1.58-.75-2.77-1.79-3.58-3.12-.81-1.33-1.22-2.8-1.22-4.4,0-1.46.33-2.82,1-4.06.67-1.25,1.58-2.28,2.73-3.1.87-.64,2.04-1.18,3.54-1.62s3.09-.66,4.8-.66c2.57,0,4.83.37,6.78,1.11,1.95.74,3.38,1.75,4.31,3.01.93,1.27,1.56,2.96,1.92,5.08l-5.44.74c-.25-1.69-.96-3.01-2.15-3.95-1.18-.95-2.86-1.42-5.02-1.42-2.55,0-4.38.42-5.47,1.27-1.09.84-1.64,1.83-1.64,2.97,0,.72.23,1.37.68,1.95.45.6,1.16,1.09,2.13,1.48.56.21,2.19.68,4.91,1.42,3.93,1.05,6.68,1.91,8.23,2.58,1.55.67,2.78,1.64,3.66,2.92.88,1.28,1.33,2.86,1.33,4.76s-.54,3.6-1.62,5.24c-1.08,1.64-2.64,2.9-4.68,3.8-2.04.9-4.35,1.34-6.92,1.34-4.26,0-7.51-.88-9.75-2.66-2.24-1.77-3.66-4.4-4.28-7.88Z"/>
  <path d="M411.7,45.64c-1.34,1.54-2.84,2.79-4.49,3.72-1.66.94-3.32,1.41-4.99,1.41-1.83,0-3.61-.54-5.34-1.61-1.73-1.07-3.14-2.72-4.22-4.94-1.08-2.22-1.62-4.67-1.62-7.32,0-3.27.84-6.55,2.52-9.84,1.68-3.28,3.76-5.75,6.26-7.4,2.49-1.65,4.91-2.47,7.26-2.47,1.79,0,3.5.47,5.13,1.41,1.63.94,3.03,2.36,4.2,4.28l1.05-4.79h5.53l-4.45,20.73c-.62,2.88-.93,4.48-.93,4.79,0,.56.21,1.04.63,1.44s.93.6,1.53.6c1.09,0,2.52-.63,4.29-1.88,2.35-1.65,4.21-3.86,5.58-6.63,1.37-2.77,2.06-5.63,2.06-8.57,0-3.44-.88-6.65-2.64-9.64-1.76-2.99-4.39-5.38-7.88-7.17-3.49-1.79-7.35-2.69-11.57-2.69-4.82,0-9.22,1.13-13.21,3.38-3.98,2.26-7.07,5.49-9.27,9.7-2.19,4.21-3.29,8.73-3.29,13.54s1.1,9.39,3.29,13.04c2.19,3.65,5.36,6.34,9.51,8.08s8.75,2.61,13.79,2.61c5.4,0,9.92-.91,13.56-2.72,3.64-1.81,6.37-4.02,8.19-6.61h5.59c-1.05,2.16-2.85,4.37-5.4,6.61-2.55,2.24-5.59,4.02-9.11,5.33-3.52,1.31-7.76,1.96-12.73,1.96-4.57,0-8.79-.59-12.65-1.76s-7.15-2.94-9.87-5.3c-2.72-2.36-4.77-5.07-6.15-8.14-1.73-3.89-2.59-8.09-2.59-12.6,0-5.03,1.03-9.81,3.09-14.36,2.51-5.58,6.08-9.85,10.7-12.82,4.62-2.96,10.23-4.45,16.82-4.45,5.11,0,9.69,1.05,13.76,3.14,4.07,2.09,7.27,5.21,9.62,9.34,2,3.56,3,7.43,3,11.61,0,5.97-2.1,11.28-6.3,15.91-3.75,4.16-7.85,6.24-12.29,6.24-1.42,0-2.57-.22-3.44-.65-.88-.43-1.52-1.05-1.93-1.85-.27-.51-.46-1.4-.59-2.66ZM396.74,37.27c0,2.82.67,5.01,2.01,6.58,1.34,1.57,2.87,2.35,4.6,2.35,1.15,0,2.37-.34,3.65-1.03,1.28-.69,2.5-1.71,3.66-3.07,1.16-1.36,2.12-3.08,2.86-5.17.74-2.09,1.11-4.19,1.11-6.29,0-2.8-.7-4.97-2.08-6.52-1.39-1.54-3.08-2.32-5.08-2.32-1.32,0-2.56.33-3.72,1-1.16.67-2.29,1.75-3.38,3.23-1.09,1.48-1.97,3.29-2.63,5.41-.66,2.12-.99,4.07-.99,5.84Z"/>
  <path d="M443.2,53.39l5.41.8c.23,1.67.85,2.88,1.88,3.65,1.38,1.03,3.26,1.54,5.65,1.54,2.57,0,4.56-.51,5.96-1.54,1.4-1.03,2.35-2.47,2.84-4.33.29-1.13.42-3.51.4-7.14-2.43,2.86-5.46,4.29-9.08,4.29-4.51,0-8-1.63-10.47-4.88-2.47-3.25-3.71-7.16-3.71-11.71,0-3.13.57-6.02,1.7-8.67s2.78-4.69,4.93-6.13c2.15-1.44,4.68-2.16,7.58-2.16,3.87,0,7.06,1.57,9.58,4.7v-3.95h5.13v28.36c0,5.11-.52,8.73-1.56,10.86-1.04,2.13-2.69,3.81-4.94,5.05-2.25,1.24-5.03,1.85-8.33,1.85-3.91,0-7.07-.88-9.48-2.64s-3.57-4.41-3.49-7.95ZM447.81,33.68c0,4.3.85,7.45,2.56,9.42,1.71,1.98,3.85,2.97,6.43,2.97s4.7-.98,6.42-2.95,2.59-5.05,2.59-9.25-.89-7.04-2.67-9.08c-1.78-2.04-3.93-3.06-6.44-3.06s-4.57,1-6.3,3.01c-1.73,2.01-2.59,4.99-2.59,8.94Z"/>
  <path d="M479.41,50.67V17.87h4.97v4.6c1.03-1.61,2.4-2.9,4.11-3.88,1.71-.98,3.66-1.47,5.84-1.47,2.43,0,4.42.5,5.98,1.51s2.65,2.42,3.29,4.23c2.59-3.83,5.97-5.75,10.13-5.75,3.25,0,5.76.9,7.51,2.7,1.75,1.8,2.63,4.58,2.63,8.33v22.52h-5.53v-20.67c0-2.22-.18-3.83-.54-4.8-.36-.98-1.01-1.77-1.96-2.36-.95-.6-2.06-.9-3.34-.9-2.31,0-4.22.77-5.75,2.3-1.52,1.53-2.29,3.99-2.29,7.37v19.06h-5.56v-21.31c0-2.47-.45-4.33-1.36-5.56s-2.39-1.85-4.45-1.85c-1.57,0-3.01.41-4.34,1.24-1.33.82-2.29,2.03-2.89,3.61-.6,1.59-.9,3.87-.9,6.86v17.02h-5.56Z"/>
  <path d="M553.51,46.63c-2.06,1.75-4.04,2.99-5.95,3.71-1.91.72-3.95,1.08-6.13,1.08-3.6,0-6.37-.88-8.31-2.64s-2.9-4.01-2.9-6.75c0-1.61.37-3.07,1.1-4.4.73-1.33,1.69-2.39,2.87-3.2,1.18-.8,2.52-1.41,4-1.82,1.09-.29,2.74-.57,4.94-.83,4.49-.54,7.79-1.17,9.92-1.92.02-.76.03-1.25.03-1.45,0-2.26-.52-3.86-1.58-4.79-1.42-1.26-3.53-1.88-6.33-1.88-2.62,0-4.55.46-5.79,1.37-1.25.92-2.17,2.54-2.76,4.87l-5.44-.74c.49-2.33,1.31-4.21,2.44-5.64,1.13-1.43,2.77-2.53,4.91-3.3,2.14-.77,4.62-1.16,7.44-1.16s5.08.33,6.83.99c1.75.66,3.04,1.49,3.86,2.49.82,1,1.4,2.26,1.73,3.78.19.95.28,2.66.28,5.13v7.41c0,5.17.12,8.44.36,9.81.24,1.37.71,2.68,1.41,3.94h-5.81c-.58-1.15-.95-2.5-1.11-4.05ZM553.05,34.21c-2.02.82-5.05,1.52-9.08,2.1-2.29.33-3.9.7-4.85,1.11-.95.41-1.68,1.01-2.19,1.81-.51.79-.77,1.67-.77,2.64,0,1.48.56,2.72,1.68,3.71,1.12.99,2.76,1.48,4.93,1.48s4.05-.47,5.71-1.41,2.89-2.22,3.68-3.85c.6-1.26.9-3.11.9-5.56v-2.04Z"/>
  <path d="M567.32,11.78v-6.39h5.56v6.39h-5.56ZM567.32,50.67V17.87h5.56v32.81h-5.56Z"/>
  <path d="M581.22,50.67V5.39h5.56v45.29h-5.56Z"/>
  <path d="M596.98,50.67v-6.33h6.33v6.33h-6.33Z"/>
  <path d="M634.39,38.66l5.47.71c-.6,3.77-2.13,6.72-4.59,8.85-2.46,2.13-5.48,3.2-9.07,3.2-4.49,0-8.1-1.47-10.83-4.4-2.73-2.93-4.09-7.14-4.09-12.62,0-3.54.59-6.64,1.76-9.3,1.17-2.66,2.96-4.65,5.36-5.98,2.4-1.33,5.01-1.99,7.83-1.99,3.56,0,6.48.9,8.74,2.7,2.27,1.8,3.72,4.36,4.36,7.68l-5.41.83c-.52-2.2-1.43-3.86-2.73-4.97-1.31-1.11-2.89-1.67-4.74-1.67-2.8,0-5.08,1-6.83,3.01s-2.63,5.19-2.63,9.53.84,7.61,2.53,9.61c1.69,2,3.89,3,6.61,3,2.18,0,4-.67,5.47-2.01s2.39-3.4,2.78-6.18Z"/>
  <path d="M642.54,34.27c0-6.07,1.69-10.57,5.07-13.5,2.82-2.43,6.26-3.64,10.32-3.64,4.51,0,8.2,1.48,11.06,4.43s4.29,7.04,4.29,12.25c0,4.22-.63,7.54-1.9,9.96-1.27,2.42-3.11,4.3-5.53,5.64-2.42,1.34-5.06,2.01-7.92,2.01-4.59,0-8.3-1.47-11.14-4.42-2.83-2.95-4.25-7.19-4.25-12.73ZM648.26,34.27c0,4.2.92,7.35,2.75,9.44,1.83,2.09,4.14,3.14,6.92,3.14s5.05-1.05,6.89-3.15c1.83-2.1,2.75-5.3,2.75-9.61,0-4.06-.92-7.13-2.76-9.22-1.84-2.09-4.13-3.13-6.87-3.13s-5.09,1.04-6.92,3.12-2.75,5.22-2.75,9.42Z"/>
  <path d="M679.79,50.67V17.87h4.97v4.6c1.03-1.61,2.4-2.9,4.11-3.88,1.71-.98,3.66-1.47,5.84-1.47,2.43,0,4.42.5,5.98,1.51s2.65,2.42,3.29,4.23c2.59-3.83,5.97-5.75,10.13-5.75,3.25,0,5.76.9,7.51,2.7,1.75,1.8,2.63,4.58,2.63,8.33v22.52h-5.53v-20.67c0-2.22-.18-3.83-.54-4.8-.36-.98-1.01-1.77-1.96-2.36-.95-.6-2.06-.9-3.34-.9-2.31,0-4.22.77-5.75,2.3-1.52,1.53-2.29,3.99-2.29,7.37v19.06h-5.56v-21.31c0-2.47-.45-4.33-1.36-5.56s-2.39-1.85-4.45-1.85c-1.57,0-3.01.41-4.34,1.24-1.33.82-2.29,2.03-2.89,3.61-.6,1.59-.9,3.87-.9,6.86v17.02h-5.56Z"/>
</svg>