<?xml version="1.0" encoding="UTF-8"?>
<svg xmlns="http://www.w3.org/2000/svg" xmlns:xlink="http://www.w3.org/1999/xlink" version="1.1" viewBox="0 0 1920 4000" style="background-color:#161513">
  <!-- Generator: Adobe Illustrator 29.7.1, SVG Export Plug-In . SVG Version: 2.1.1 Build 8)  -->
  <defs>
    <style>
      .st0 {
        fill: none;
      }

      .st1 {
        fill: #161513;
      }

      .st2 {
        fill: #aaaaaa;
      }

      .st3 {
        fill: #161513;
      }

      .st4 {
        fill: #161513;
      }

      .st5 {
        fill: #31343f;
      }

      .st6 {
        fill: #2f0450;
      }

      .st7 {
        clip-path: url(#clippath);
      }
    </style>
    <clipPath id="clippath">
      <path class="st0" d="M-148.09,327.62c.79,7.4-25.59,21.67-77.8,27.27-45.17,4.85-81.01-2.6-81.82-10.13-1.11-10.33,33.72-22.54,77.8-27.27s80.71-.2,81.82,10.13Z"/>
    </clipPath>
  </defs>
  <g id="spaceship" shape-rendering="geometricPrecision" text-rendering="geometricPrecision">
    <g id="spaceshiplayer">
      <g id="eRjIV5bP6BZ2_tr">
        <g>
          <g>
            <circle class="st2" cx="-230.35" cy="313.4" r="24.71"/>
            <path class="st3" d="M-205.77,310.76c-2.08-18.3-22.97-28.06-38.29-17.85-2.02,1.33-3.83,2.96-5.38,4.81,1.53-1.88,3.32-3.54,5.32-4.91,15.42-10.41,36.51-.58,38.36,17.95h0Z"/>
          </g>
          <path class="st1" d="M-148.09,327.62c.79,7.4-25.59,21.67-77.8,27.27-45.17,4.85-81.01-2.6-81.82-10.13-1.11-10.33,33.72-22.54,77.8-27.27s80.71-.2,81.82,10.13Z"/>
          <path class="st6" d="M-304.27,348.32c18.87-13.99,42.32-20.04,65.24-23.43,23.05-3.3,46.77-3.9,69.71.56,6.48,1.42,13.1,3,18.88,6.36-5.82-3.27-12.45-4.74-18.94-6.04-22.92-4.19-46.55-3.48-69.56-.25-22.87,3.35-46.26,9.2-65.33,22.81h0,0Z"/>
          <g class="st7">
            <g>
              <path class="st5" d="M-189.52,344.71c.37,3.43-11.87,10.05-36.1,12.65-20.96,2.25-37.59-1.21-37.97-4.7-.52-4.79,15.65-10.46,36.1-12.65s37.45-.09,37.97,4.7h0Z"/>
              <path class="st2" d="M-199.19,347.16c.21,1.95-8.88,5.94-26.69,7.85-15.4,1.66-27.53-.02-27.75-2.01-.29-2.72,11.66-6.24,26.69-7.85,15.03-1.62,27.46-.71,27.75,2.01Z"/>
            </g>
          </g>
          <g>
            <path class="st4" d="M-147.78,326.36c-4.7-5.74-25.48-28.02-83.51-21.8-55.3,5.94-74.49,33.04-77.14,39.33,6.11-4.23,29.94-21.08,79.88-26.45,48.71-5.23,74.12,5.73,80.78,8.91h0Z"/>
            <path class="st3" d="M-147.78,326.36c-23.82-27.37-73.12-25.48-105.58-17.79-7.22,1.78-14.39,4.16-21.17,7.23-11.83,5.37-23.11,12.84-31.01,23.31-1.1,1.51-2.14,3.07-2.9,4.78.75-1.72,1.78-3.29,2.87-4.81,7.82-10.56,19.11-18.09,30.95-23.49,6.78-3.08,13.96-5.49,21.19-7.29,32.35-7.81,82.12-9.49,105.65,18.06h0Z"/>
          </g>
        </g>
      </g>
    </g>
  </g>
  <style>
  #spaceship {
  animation: moveAndRotate 22s linear infinite;
}

@keyframes moveAndRotate {
  0% {
    transform: translateX(0px) rotate(0deg);
  }
  32% {
    transform: translateX(1160px) rotate(0deg); /* halfway point */
  }
  65% {
    transform: translateX(2320px) rotate(18deg); /* finish movement+rotation at 17s */
  }
  100% {
    transform: translateX(2320px) rotate(18deg); /* pause 3s before looping */
  }
}
</style>
</svg>
