<?xml version="1.0" encoding="UTF-8" standalone="no"?><!DOCTYPE svg PUBLIC "-//W3C//DTD SVG 1.1//EN" "http://www.w3.org/Graphics/SVG/1.1/DTD/svg11.dtd"><svg width="100%" height="100%" viewBox="0 0 246 20" version="1.1" xmlns="http://www.w3.org/2000/svg" xmlns:xlink="http://www.w3.org/1999/xlink" xml:space="preserve" xmlns:serif="http://www.serif.com/" style="fill-rule:evenodd;clip-rule:evenodd;stroke-linejoin:round;stroke-miterlimit:2;"><g id="Artboard1"><rect x="0" y="-0" width="246" height="20" style="fill:none;"/><g><g><g><path d="M-0.38,12.226l1.74,-0.26c0.1,0.68 0.36,1.22 0.8,1.6c0.46,0.36 1.08,0.54 1.88,0.54c0.8,0 1.4,-0.16 1.8,-0.48c0.38,-0.34 0.58,-0.72 0.58,-1.16c0,-0.4 -0.18,-0.72 -0.52,-0.94c-0.24,-0.16 -0.84,-0.36 -1.8,-0.6c-1.28,-0.32 -2.18,-0.6 -2.68,-0.84c-0.5,-0.24 -0.86,-0.56 -1.12,-0.98c-0.26,-0.42 -0.4,-0.88 -0.4,-1.4c0,-0.46 0.12,-0.88 0.32,-1.28c0.22,-0.4 0.5,-0.72 0.86,-0.98c0.28,-0.2 0.66,-0.38 1.12,-0.52c0.48,-0.14 0.98,-0.2 1.52,-0.2c0.82,0 1.54,0.12 2.16,0.34c0.6,0.24 1.06,0.56 1.36,0.96c0.28,0.4 0.48,0.94 0.6,1.6l-1.72,0.24c-0.08,-0.54 -0.3,-0.96 -0.68,-1.26c-0.38,-0.3 -0.9,-0.44 -1.58,-0.44c-0.82,0 -1.38,0.14 -1.74,0.4c-0.34,0.26 -0.52,0.58 -0.52,0.94c0,0.22 0.08,0.44 0.22,0.62c0.14,0.18 0.38,0.34 0.68,0.46c0.18,0.06 0.68,0.22 1.54,0.46c1.26,0.32 2.12,0.6 2.62,0.8c0.48,0.22 0.86,0.52 1.14,0.92c0.28,0.42 0.42,0.92 0.42,1.52c0,0.58 -0.16,1.14 -0.5,1.64c-0.34,0.52 -0.84,0.92 -1.48,1.2c-0.64,0.3 -1.38,0.44 -2.2,0.44c-1.34,0 -2.36,-0.28 -3.08,-0.84c-0.7,-0.56 -1.14,-1.4 -1.34,-2.5Z" style="fill-rule:nonzero;"/></g><g><rect x="10.28" y="1.006" width="1.76" height="14.32"/></g><g><path d="M14.103,10.146c0,-1.92 0.54,-3.34 1.6,-4.28c0.9,-0.76 1.98,-1.14 3.26,-1.14c1.44,0 2.6,0.46 3.5,1.4c0.9,0.94 1.36,2.22 1.36,3.86c0,1.34 -0.2,2.4 -0.6,3.16c-0.4,0.76 -0.98,1.36 -1.74,1.78c-0.78,0.42 -1.6,0.64 -2.52,0.64c-1.44,0 -2.62,-0.48 -3.52,-1.4c-0.88,-0.94 -1.34,-2.28 -1.34,-4.02Zm1.82,0c0,1.32 0.28,2.32 0.86,2.98c0.58,0.66 1.3,0.98 2.18,0.98c0.88,0 1.6,-0.32 2.18,-0.98c0.58,-0.68 0.88,-1.68 0.88,-3.04c0,-1.28 -0.3,-2.26 -0.88,-2.92c-0.58,-0.66 -1.3,-1 -2.18,-1c-0.88,0 -1.6,0.34 -2.18,1c-0.58,0.66 -0.86,1.64 -0.86,2.98Z" style="fill-rule:nonzero;"/></g><g><path d="M32.606,15.326l0,-1.3c-0.66,1.02 -1.62,1.54 -2.9,1.54c-0.82,0 -1.58,-0.24 -2.28,-0.68c-0.68,-0.46 -1.22,-1.1 -1.6,-1.92c-0.38,-0.82 -0.58,-1.76 -0.58,-2.82c0,-1.04 0.18,-1.98 0.52,-2.82c0.34,-0.84 0.86,-1.48 1.56,-1.94c0.68,-0.44 1.46,-0.66 2.3,-0.66c0.64,0 1.2,0.12 1.68,0.4c0.48,0.26 0.88,0.6 1.18,1.02l0,-5.14l1.76,0l0,14.32l-1.64,0Zm-5.54,-5.18c0,1.34 0.28,2.32 0.84,2.98c0.54,0.66 1.22,0.98 1.98,0.98c0.76,0 1.42,-0.3 1.96,-0.94c0.52,-0.62 0.8,-1.58 0.8,-2.86c0,-1.42 -0.28,-2.48 -0.82,-3.14c-0.56,-0.66 -1.22,-1 -2.02,-1c-0.78,0 -1.44,0.32 -1.96,0.96c-0.52,0.64 -0.78,1.66 -0.78,3.02Z" style="fill-rule:nonzero;"/></g><g><path d="M44.109,11.986l1.82,0.22c-0.3,1.06 -0.82,1.88 -1.6,2.48c-0.78,0.58 -1.76,0.88 -2.96,0.88c-1.52,0 -2.72,-0.48 -3.62,-1.4c-0.88,-0.94 -1.32,-2.26 -1.32,-3.94c0,-1.74 0.44,-3.1 1.34,-4.06c0.9,-0.96 2.06,-1.44 3.5,-1.44c1.38,0 2.52,0.46 3.4,1.42c0.88,0.94 1.32,2.26 1.32,3.98c0,0.1 -0.02,0.26 -0.02,0.46l-7.74,0c0.08,1.14 0.4,2.02 0.98,2.62c0.58,0.6 1.3,0.9 2.16,0.9c0.64,0 1.2,-0.16 1.66,-0.5c0.44,-0.34 0.82,-0.88 1.08,-1.62Zm-5.78,-2.84l5.8,0c-0.08,-0.88 -0.3,-1.52 -0.66,-1.96c-0.56,-0.68 -1.3,-1.02 -2.18,-1.02c-0.82,0 -1.5,0.28 -2.04,0.82c-0.56,0.54 -0.86,1.26 -0.92,2.16Z" style="fill-rule:nonzero;"/></g><g><path d="M47.432,12.226l1.74,-0.26c0.1,0.68 0.36,1.22 0.8,1.6c0.46,0.36 1.08,0.54 1.88,0.54c0.8,0 1.4,-0.16 1.8,-0.48c0.38,-0.34 0.58,-0.72 0.58,-1.16c0,-0.4 -0.18,-0.72 -0.52,-0.94c-0.24,-0.16 -0.84,-0.36 -1.8,-0.6c-1.28,-0.32 -2.18,-0.6 -2.68,-0.84c-0.5,-0.24 -0.86,-0.56 -1.12,-0.98c-0.26,-0.42 -0.4,-0.88 -0.4,-1.4c0,-0.46 0.12,-0.88 0.32,-1.28c0.22,-0.4 0.5,-0.72 0.86,-0.98c0.28,-0.2 0.66,-0.38 1.12,-0.52c0.48,-0.14 0.98,-0.2 1.52,-0.2c0.82,0 1.54,0.12 2.16,0.34c0.6,0.24 1.06,0.56 1.36,0.96c0.28,0.4 0.48,0.94 0.6,1.6l-1.72,0.24c-0.08,-0.54 -0.3,-0.96 -0.68,-1.26c-0.38,-0.3 -0.9,-0.44 -1.58,-0.44c-0.82,0 -1.38,0.14 -1.74,0.4c-0.34,0.26 -0.52,0.58 -0.52,0.94c0,0.22 0.08,0.44 0.22,0.62c0.14,0.18 0.38,0.34 0.68,0.46c0.18,0.06 0.68,0.22 1.54,0.46c1.26,0.32 2.12,0.6 2.62,0.8c0.48,0.22 0.86,0.52 1.14,0.92c0.28,0.42 0.42,0.92 0.42,1.52c0,0.58 -0.16,1.14 -0.5,1.64c-0.34,0.52 -0.84,0.92 -1.48,1.2c-0.64,0.3 -1.38,0.44 -2.2,0.44c-1.34,0 -2.36,-0.28 -3.08,-0.84c-0.7,-0.56 -1.14,-1.4 -1.34,-2.5Z" style="fill-rule:nonzero;"/></g><g><path d="M58.132,3.026l0,-2.02l1.76,0l0,2.02l-1.76,0Zm0,12.3l0,-10.38l1.76,0l0,10.38l-1.76,0Z" style="fill-rule:nonzero;"/></g><g><path d="M62.256,16.186l1.7,0.26c0.08,0.52 0.28,0.9 0.6,1.14c0.44,0.34 1.04,0.5 1.78,0.5c0.82,0 1.44,-0.16 1.9,-0.5c0.44,-0.32 0.74,-0.78 0.9,-1.36c0.08,-0.36 0.12,-1.12 0.12,-2.26c-0.78,0.9 -1.72,1.36 -2.88,1.36c-1.42,0 -2.52,-0.52 -3.3,-1.54c-0.78,-1.04 -1.18,-2.26 -1.18,-3.7c-0,-1 0.18,-1.9 0.54,-2.74c0.36,-0.84 0.88,-1.48 1.56,-1.94c0.68,-0.46 1.48,-0.68 2.4,-0.68c1.22,0 2.22,0.48 3.02,1.48l-0,-1.26l1.62,0l-0,8.98c-0,1.6 -0.16,2.76 -0.48,3.42c-0.34,0.68 -0.86,1.22 -1.58,1.6c-0.7,0.4 -1.58,0.58 -2.62,0.58c-1.24,0 -2.24,-0.26 -3,-0.82c-0.76,-0.56 -1.12,-1.4 -1.1,-2.52Zm1.46,-6.24c-0,1.36 0.26,2.36 0.8,2.98c0.54,0.64 1.22,0.94 2.04,0.94c0.8,0 1.48,-0.3 2.02,-0.92c0.56,-0.62 0.82,-1.6 0.82,-2.94c-0,-1.26 -0.28,-2.22 -0.84,-2.86c-0.56,-0.64 -1.24,-0.98 -2.04,-0.98c-0.78,0 -1.44,0.32 -1.98,0.96c-0.56,0.64 -0.82,1.58 -0.82,2.82Z" style="fill-rule:nonzero;"/></g><g><path d="M73.699,15.326l-0,-10.38l1.58,0l-0,1.48c0.76,-1.14 1.86,-1.7 3.3,-1.7c0.62,0 1.2,0.1 1.72,0.34c0.52,0.22 0.92,0.52 1.18,0.88c0.26,0.36 0.44,0.8 0.54,1.3c0.08,0.32 0.1,0.88 0.1,1.7l-0,6.38l-1.76,0l-0,-6.3c-0,-0.72 -0.06,-1.26 -0.2,-1.62c-0.14,-0.34 -0.38,-0.64 -0.72,-0.84c-0.36,-0.22 -0.76,-0.32 -1.22,-0.32c-0.76,0 -1.4,0.24 -1.94,0.72c-0.56,0.46 -0.82,1.36 -0.82,2.7l-0,5.66l-1.76,0Z" style="fill-rule:nonzero;"/></g><g><path d="M84.502,16.186l1.7,0.26c0.08,0.52 0.28,0.9 0.6,1.14c0.44,0.34 1.04,0.5 1.78,0.5c0.82,0 1.44,-0.16 1.9,-0.5c0.44,-0.32 0.74,-0.78 0.9,-1.36c0.08,-0.36 0.12,-1.12 0.12,-2.26c-0.78,0.9 -1.72,1.36 -2.88,1.36c-1.42,0 -2.52,-0.52 -3.3,-1.54c-0.78,-1.04 -1.18,-2.26 -1.18,-3.7c-0,-1 0.18,-1.9 0.54,-2.74c0.36,-0.84 0.88,-1.48 1.56,-1.94c0.68,-0.46 1.48,-0.68 2.4,-0.68c1.22,0 2.22,0.48 3.02,1.48l-0,-1.26l1.62,0l-0,8.98c-0,1.6 -0.16,2.76 -0.48,3.42c-0.34,0.68 -0.86,1.22 -1.58,1.6c-0.7,0.4 -1.58,0.58 -2.62,0.58c-1.24,0 -2.24,-0.26 -3,-0.82c-0.76,-0.56 -1.12,-1.4 -1.1,-2.52Zm1.46,-6.24c-0,1.36 0.26,2.36 0.8,2.98c0.54,0.64 1.22,0.94 2.04,0.94c0.8,0 1.48,-0.3 2.02,-0.92c0.56,-0.62 0.82,-1.6 0.82,-2.94c-0,-1.26 -0.28,-2.22 -0.84,-2.86c-0.56,-0.64 -1.24,-0.98 -2.04,-0.98c-0.78,0 -1.44,0.32 -1.98,0.96c-0.56,0.64 -0.82,1.58 -0.82,2.82Z" style="fill-rule:nonzero;"/></g><g><path d="M95.925,15.326l-0,-10.38l1.58,0l-0,1.58c0.4,-0.74 0.78,-1.22 1.12,-1.46c0.34,-0.22 0.72,-0.34 1.12,-0.34c0.6,0 1.2,0.18 1.82,0.56l-0.62,1.64c-0.42,-0.26 -0.86,-0.38 -1.28,-0.38c-0.38,0 -0.74,0.1 -1.04,0.34c-0.3,0.22 -0.52,0.54 -0.66,0.96c-0.18,0.62 -0.28,1.3 -0.28,2.06l-0,5.42l-1.76,0Z" style="fill-rule:nonzero;"/></g><g><path d="M101.945,10.146c-0,-1.92 0.54,-3.34 1.6,-4.28c0.9,-0.76 1.98,-1.14 3.26,-1.14c1.44,0 2.6,0.46 3.5,1.4c0.9,0.94 1.36,2.22 1.36,3.86c-0,1.34 -0.2,2.4 -0.6,3.16c-0.4,0.76 -0.98,1.36 -1.74,1.78c-0.78,0.42 -1.6,0.64 -2.52,0.64c-1.44,0 -2.62,-0.48 -3.52,-1.4c-0.88,-0.94 -1.34,-2.28 -1.34,-4.02Zm1.82,0c-0,1.32 0.28,2.32 0.86,2.98c0.58,0.66 1.3,0.98 2.18,0.98c0.88,0 1.6,-0.32 2.18,-0.98c0.58,-0.68 0.88,-1.68 0.88,-3.04c-0,-1.28 -0.3,-2.26 -0.88,-2.92c-0.58,-0.66 -1.3,-1 -2.18,-1c-0.88,0 -1.6,0.34 -2.18,1c-0.58,0.66 -0.86,1.64 -0.86,2.98Z" style="fill-rule:nonzero;"/></g><g><path d="M120.528,15.326l-0,-1.52c-0.82,1.16 -1.9,1.76 -3.3,1.76c-0.6,0 -1.18,-0.12 -1.7,-0.36c-0.54,-0.24 -0.94,-0.52 -1.2,-0.88c-0.24,-0.36 -0.42,-0.8 -0.54,-1.3c-0.06,-0.34 -0.1,-0.9 -0.1,-1.64l-0,-6.44l1.76,0l-0,5.76c-0,0.92 0.04,1.54 0.1,1.86c0.12,0.46 0.34,0.82 0.7,1.08c0.36,0.26 0.8,0.4 1.34,0.4c0.52,0 1.02,-0.14 1.48,-0.4c0.46,-0.28 0.78,-0.64 0.98,-1.1c0.2,-0.48 0.28,-1.14 0.28,-2.04l-0,-5.56l1.76,0l-0,10.38l-1.56,0Z" style="fill-rule:nonzero;"/></g><g><path d="M124.851,19.306l-0,-14.36l1.6,0l-0,1.36c0.38,-0.54 0.8,-0.92 1.28,-1.18c0.48,-0.28 1.06,-0.4 1.72,-0.4c0.9,0 1.68,0.22 2.36,0.68c0.66,0.46 1.18,1.1 1.52,1.92c0.34,0.84 0.52,1.74 0.52,2.74c-0,1.06 -0.18,2.02 -0.56,2.86c-0.38,0.86 -0.94,1.5 -1.66,1.96c-0.74,0.44 -1.5,0.68 -2.3,0.68c-0.58,0 -1.12,-0.12 -1.58,-0.38c-0.46,-0.24 -0.84,-0.56 -1.14,-0.94l-0,5.06l-1.76,0Zm1.6,-9.1c-0,1.32 0.26,2.32 0.8,2.96c0.54,0.64 1.2,0.94 1.96,0.94c0.78,0 1.46,-0.32 2.02,-0.98c0.54,-0.66 0.82,-1.68 0.82,-3.08c-0,-1.32 -0.26,-2.3 -0.82,-2.96c-0.54,-0.66 -1.18,-0.98 -1.94,-0.98c-0.74,0 -1.4,0.34 -1.98,1.04c-0.58,0.7 -0.86,1.72 -0.86,3.06Z" style="fill-rule:nonzero;"/></g><g><path d="M145.994,13.726c-0.42,0.5 -0.9,0.88 -1.42,1.18c-0.52,0.3 -1.06,0.44 -1.58,0.44c-0.58,0 -1.14,-0.16 -1.68,-0.5c-0.56,-0.34 -1,-0.86 -1.34,-1.56c-0.34,-0.7 -0.52,-1.48 -0.52,-2.32c-0,-1.04 0.26,-2.06 0.8,-3.1c0.54,-1.04 1.2,-1.82 1.98,-2.34c0.78,-0.52 1.56,-0.78 2.3,-0.78c0.56,0 1.1,0.14 1.62,0.44c0.5,0.3 0.96,0.74 1.32,1.36l0.34,-1.52l1.74,0l-1.4,6.54c-0.2,0.92 -0.3,1.42 -0.3,1.52c-0,0.18 0.06,0.34 0.2,0.46c0.14,0.12 0.3,0.18 0.48,0.18c0.36,0 0.8,-0.2 1.36,-0.58c0.74,-0.52 1.34,-1.22 1.76,-2.1c0.44,-0.88 0.66,-1.78 0.66,-2.72c-0,-1.08 -0.28,-2.1 -0.84,-3.04c-0.56,-0.94 -1.38,-1.7 -2.48,-2.26c-1.12,-0.58 -2.34,-0.86 -3.66,-0.86c-1.52,0 -2.92,0.36 -4.18,1.08c-1.26,0.7 -2.24,1.74 -2.94,3.06c-0.68,1.34 -1.04,2.76 -1.04,4.28c-0,1.6 0.36,2.98 1.04,4.12c0.7,1.16 1.7,2 3.02,2.56c1.3,0.54 2.76,0.82 4.36,0.82c1.7,0 3.14,-0.28 4.28,-0.86c1.16,-0.56 2.02,-1.26 2.6,-2.08l1.76,0c-0.34,0.68 -0.9,1.38 -1.7,2.08c-0.82,0.72 -1.78,1.28 -2.88,1.68c-1.12,0.42 -2.46,0.62 -4.04,0.62c-1.44,0 -2.78,-0.18 -4,-0.54c-1.22,-0.38 -2.26,-0.94 -3.12,-1.68c-0.86,-0.74 -1.5,-1.6 -1.94,-2.58c-0.54,-1.22 -0.82,-2.56 -0.82,-3.98c-0,-1.58 0.32,-3.1 0.98,-4.54c0.8,-1.76 1.92,-3.12 3.38,-4.06c1.46,-0.94 3.24,-1.4 5.32,-1.4c1.62,0 3.06,0.34 4.36,1c1.28,0.66 2.3,1.64 3.04,2.94c0.62,1.14 0.94,2.36 0.94,3.68c-0,1.88 -0.66,3.56 -2,5.02c-1.18,1.32 -2.48,1.98 -3.88,1.98c-0.44,0 -0.8,-0.06 -1.08,-0.2c-0.28,-0.14 -0.48,-0.34 -0.62,-0.6c-0.08,-0.16 -0.14,-0.44 -0.18,-0.84Zm-4.72,-2.64c-0,0.9 0.2,1.58 0.62,2.08c0.42,0.5 0.92,0.74 1.46,0.74c0.36,0 0.74,-0.1 1.16,-0.32c0.4,-0.22 0.78,-0.54 1.16,-0.98c0.36,-0.42 0.66,-0.96 0.9,-1.64c0.22,-0.66 0.34,-1.32 0.34,-1.98c-0,-0.88 -0.22,-1.58 -0.66,-2.06c-0.44,-0.48 -0.96,-0.74 -1.6,-0.74c-0.42,0 -0.8,0.12 -1.18,0.32c-0.36,0.22 -0.72,0.56 -1.06,1.02c-0.36,0.48 -0.62,1.04 -0.84,1.72c-0.2,0.66 -0.3,1.28 -0.3,1.84Z" style="fill-rule:nonzero;"/></g><g><path d="M155.957,16.186l1.7,0.26c0.08,0.52 0.28,0.9 0.6,1.14c0.44,0.34 1.04,0.5 1.78,0.5c0.82,0 1.44,-0.16 1.9,-0.5c0.44,-0.32 0.74,-0.78 0.9,-1.36c0.08,-0.36 0.12,-1.12 0.12,-2.26c-0.78,0.9 -1.72,1.36 -2.88,1.36c-1.42,0 -2.52,-0.52 -3.3,-1.54c-0.78,-1.04 -1.18,-2.26 -1.18,-3.7c-0,-1 0.18,-1.9 0.54,-2.74c0.36,-0.84 0.88,-1.48 1.56,-1.94c0.68,-0.46 1.48,-0.68 2.4,-0.68c1.22,0 2.22,0.48 3.02,1.48l-0,-1.26l1.62,0l-0,8.98c-0,1.6 -0.16,2.76 -0.48,3.42c-0.34,0.68 -0.86,1.22 -1.58,1.6c-0.7,0.4 -1.58,0.58 -2.62,0.58c-1.24,0 -2.24,-0.26 -3,-0.82c-0.76,-0.56 -1.12,-1.4 -1.1,-2.52Zm1.46,-6.24c-0,1.36 0.26,2.36 0.8,2.98c0.54,0.64 1.22,0.94 2.04,0.94c0.8,0 1.48,-0.3 2.02,-0.92c0.56,-0.62 0.82,-1.6 0.82,-2.94c-0,-1.26 -0.28,-2.22 -0.84,-2.86c-0.56,-0.64 -1.24,-0.98 -2.04,-0.98c-0.78,0 -1.44,0.32 -1.98,0.96c-0.56,0.64 -0.82,1.58 -0.82,2.82Z" style="fill-rule:nonzero;"/></g><g><path d="M167.4,15.326l-0,-10.38l1.58,0l-0,1.46c0.32,-0.5 0.74,-0.92 1.28,-1.22c0.54,-0.32 1.16,-0.46 1.86,-0.46c0.76,0 1.4,0.16 1.88,0.48c0.5,0.32 0.84,0.76 1.04,1.34c0.82,-1.22 1.9,-1.82 3.2,-1.82c1.04,0 1.82,0.28 2.38,0.84c0.56,0.58 0.84,1.46 0.84,2.64l-0,7.12l-1.76,0l-0,-6.54c-0,-0.7 -0.06,-1.2 -0.16,-1.52c-0.12,-0.3 -0.32,-0.56 -0.62,-0.74c-0.3,-0.18 -0.66,-0.28 -1.06,-0.28c-0.74,0 -1.34,0.24 -1.82,0.72c-0.48,0.5 -0.72,1.26 -0.72,2.34l-0,6.02l-1.76,0l-0,-6.74c-0,-0.78 -0.14,-1.36 -0.42,-1.76c-0.3,-0.38 -0.76,-0.58 -1.42,-0.58c-0.5,0 -0.94,0.12 -1.36,0.38c-0.42,0.26 -0.74,0.64 -0.92,1.16c-0.18,0.5 -0.28,1.22 -0.28,2.16l-0,5.38l-1.76,0Z" style="fill-rule:nonzero;"/></g><g><path d="M190.82,14.046c-0.64,0.56 -1.28,0.94 -1.88,1.18c-0.6,0.22 -1.24,0.34 -1.94,0.34c-1.14,0 -2,-0.28 -2.62,-0.84c-0.62,-0.56 -0.92,-1.26 -0.92,-2.14c-0,-0.5 0.12,-0.96 0.34,-1.38c0.24,-0.42 0.54,-0.76 0.92,-1.02c0.38,-0.26 0.8,-0.44 1.26,-0.58c0.34,-0.08 0.86,-0.18 1.56,-0.26c1.42,-0.16 2.46,-0.36 3.14,-0.6l-0,-0.46c-0,-0.72 -0.16,-1.22 -0.48,-1.52c-0.46,-0.4 -1.12,-0.6 -2.02,-0.6c-0.82,0 -1.42,0.16 -1.82,0.44c-0.4,0.3 -0.68,0.8 -0.88,1.54l-1.72,-0.24c0.16,-0.72 0.42,-1.32 0.78,-1.78c0.36,-0.44 0.88,-0.8 1.54,-1.04c0.68,-0.24 1.48,-0.36 2.36,-0.36c0.88,0 1.6,0.1 2.16,0.3c0.56,0.22 0.96,0.48 1.22,0.8c0.26,0.3 0.44,0.7 0.54,1.18c0.06,0.3 0.1,0.84 0.1,1.64l-0,2.34c-0,1.62 0.04,2.66 0.1,3.1c0.08,0.42 0.24,0.84 0.46,1.24l-1.84,0c-0.18,-0.36 -0.3,-0.8 -0.36,-1.28Zm-0.14,-3.92c-0.64,0.26 -1.6,0.48 -2.88,0.66c-0.72,0.1 -1.22,0.22 -1.52,0.36c-0.3,0.12 -0.54,0.32 -0.7,0.56c-0.16,0.26 -0.24,0.54 -0.24,0.84c-0,0.46 0.18,0.86 0.52,1.16c0.36,0.32 0.88,0.48 1.56,0.48c0.68,0 1.28,-0.16 1.82,-0.44c0.52,-0.3 0.9,-0.7 1.16,-1.22c0.18,-0.4 0.28,-0.98 0.28,-1.76l-0,-0.64Z" style="fill-rule:nonzero;"/></g><g><path d="M195.183,3.026l-0,-2.02l1.76,0l-0,2.02l-1.76,0Zm-0,12.3l-0,-10.38l1.76,0l-0,10.38l-1.76,0Z" style="fill-rule:nonzero;"/></g><g><rect x="199.587" y="1.006" width="1.76" height="14.32"/></g><g><rect x="204.57" y="13.326" width="2" height="2"/></g><g><path d="M216.387,11.526l1.74,0.22c-0.2,1.2 -0.68,2.12 -1.46,2.8c-0.78,0.68 -1.72,1.02 -2.86,1.02c-1.42,0 -2.56,-0.46 -3.42,-1.4c-0.86,-0.92 -1.3,-2.26 -1.3,-3.98c-0,-1.12 0.18,-2.1 0.56,-2.94c0.36,-0.84 0.94,-1.48 1.7,-1.9c0.76,-0.42 1.58,-0.62 2.46,-0.62c1.14,0 2.06,0.28 2.78,0.84c0.7,0.58 1.16,1.38 1.36,2.44l-1.7,0.26c-0.16,-0.7 -0.46,-1.22 -0.86,-1.58c-0.42,-0.34 -0.92,-0.52 -1.5,-0.52c-0.88,0 -1.6,0.32 -2.16,0.96c-0.56,0.62 -0.84,1.64 -0.84,3c-0,1.4 0.28,2.42 0.8,3.04c0.54,0.64 1.24,0.94 2.1,0.94c0.68,0 1.26,-0.2 1.72,-0.62c0.46,-0.42 0.76,-1.08 0.88,-1.96Z" style="fill-rule:nonzero;"/></g><g><path d="M218.967,10.146c-0,-1.92 0.54,-3.34 1.6,-4.28c0.9,-0.76 1.98,-1.14 3.26,-1.14c1.44,0 2.6,0.46 3.5,1.4c0.9,0.94 1.36,2.22 1.36,3.86c-0,1.34 -0.2,2.4 -0.6,3.16c-0.4,0.76 -0.98,1.36 -1.74,1.78c-0.78,0.42 -1.6,0.64 -2.52,0.64c-1.44,0 -2.62,-0.48 -3.52,-1.4c-0.88,-0.94 -1.34,-2.28 -1.34,-4.02Zm1.82,0c-0,1.32 0.28,2.32 0.86,2.98c0.58,0.66 1.3,0.98 2.18,0.98c0.88,0 1.6,-0.32 2.18,-0.98c0.58,-0.68 0.88,-1.68 0.88,-3.04c-0,-1.28 -0.3,-2.26 -0.88,-2.92c-0.58,-0.66 -1.3,-1 -2.18,-1c-0.88,0 -1.6,0.34 -2.18,1c-0.58,0.66 -0.86,1.64 -0.86,2.98Z" style="fill-rule:nonzero;"/></g><g><path d="M230.75,15.326l-0,-10.38l1.58,0l-0,1.46c0.32,-0.5 0.74,-0.92 1.28,-1.22c0.54,-0.32 1.16,-0.46 1.86,-0.46c0.76,0 1.4,0.16 1.88,0.48c0.5,0.32 0.84,0.76 1.04,1.34c0.82,-1.22 1.9,-1.82 3.2,-1.82c1.04,0 1.82,0.28 2.38,0.84c0.56,0.58 0.84,1.46 0.84,2.64l-0,7.12l-1.76,0l-0,-6.54c-0,-0.7 -0.06,-1.2 -0.16,-1.52c-0.12,-0.3 -0.32,-0.56 -0.62,-0.74c-0.3,-0.18 -0.66,-0.28 -1.06,-0.28c-0.74,0 -1.34,0.24 -1.82,0.72c-0.48,0.5 -0.72,1.26 -0.72,2.34l-0,6.02l-1.76,0l-0,-6.74c-0,-0.78 -0.14,-1.36 -0.42,-1.76c-0.3,-0.38 -0.76,-0.58 -1.42,-0.58c-0.5,0 -0.94,0.12 -1.36,0.38c-0.42,0.26 -0.74,0.64 -0.92,1.16c-0.18,0.5 -0.28,1.22 -0.28,2.16l-0,5.38l-1.76,0Z" style="fill-rule:nonzero;"/></g></g></g></g></svg>