<?xml version="1.0" encoding="UTF-8" standalone="no"?>
<!DOCTYPE svg PUBLIC "-//W3C//DTD SVG 1.1//EN" "http://www.w3.org/Graphics/SVG/1.1/DTD/svg11.dtd">
<svg width="100%" height="100%" viewBox="0 0 4891 4890" version="1.1" xmlns="http://www.w3.org/2000/svg" xmlns:xlink="http://www.w3.org/1999/xlink" xml:space="preserve" xmlns:serif="http://www.serif.com/" style="fill-rule:evenodd;clip-rule:evenodd;stroke-miterlimit:2;">
    <g id="Artboard1" transform="matrix(1.007,0,0,1.00679,-4652.35,-2531.73)">
        <rect x="4620.01" y="2514.64" width="4856.59" height="4856.59" style="fill:none;"/>
        <clipPath id="_clip1">
            <rect x="4620.01" y="2514.64" width="4856.59" height="4856.59"/>
        </clipPath>
        <g clip-path="url(#_clip1)">
            <g transform="matrix(0.993048,0,0,0.993251,-5391.42,128.168)">
                <g transform="matrix(2.09164,0,0,2.01096,8602.14,-6134.51)">
                    <path d="M1058.88,5697.31C1047.71,5675.72 1030.78,5658.04 1008.07,5644.26C985.367,5630.49 959.497,5623.61 930.464,5623.61C917.064,5623.61 903.664,5625.1 890.264,5628.07C876.864,5631.05 864.953,5635.89 854.531,5642.59C844.108,5649.29 835.733,5657.85 829.406,5668.27C823.078,5678.69 819.914,5690.98 819.914,5705.12C819.914,5729.69 829.964,5748.49 850.064,5761.51C870.164,5774.54 901.803,5785.52 944.981,5794.46C1006.77,5807.11 1052.37,5825.54 1081.77,5849.73C1111.18,5873.93 1125.88,5906.49 1125.88,5947.44C1125.88,5977.22 1120.11,6002.34 1108.57,6022.81C1097.03,6043.29 1081.96,6060.04 1063.35,6073.06C1044.74,6086.09 1023.71,6095.4 1000.26,6100.98C976.806,6106.56 953.17,6109.36 929.347,6109.36C889.892,6109.36 851.553,6101.17 814.331,6084.79C777.108,6068.41 746.586,6042.73 722.764,6007.74L783.064,5963.07C796.464,5986.15 816.192,6005.51 842.247,6021.14C868.303,6036.77 896.964,6044.59 928.231,6044.59C944.608,6044.59 960.242,6043.1 975.131,6040.12C990.02,6037.15 1003.05,6031.93 1014.21,6024.49C1025.38,6017.05 1034.31,6007.55 1041.01,5996.01C1047.71,5984.48 1051.06,5970.15 1051.06,5953.02C1051.06,5925.48 1037.85,5904.82 1011.42,5891.05C984.995,5877.28 946.842,5864.43 896.964,5852.52C881.331,5848.8 864.767,5844.15 847.272,5838.56C829.778,5832.98 813.586,5824.79 798.697,5814C783.808,5803.2 771.525,5789.62 761.847,5773.24C752.17,5756.86 747.331,5736.39 747.331,5711.82C747.331,5685.02 752.542,5662.13 762.964,5643.15C773.386,5624.16 787.345,5608.53 804.839,5596.25C822.333,5583.96 842.247,5574.85 864.581,5568.89C886.914,5562.93 909.992,5559.96 933.814,5559.96C970.292,5559.96 1005.65,5568.15 1039.9,5584.52C1074.14,5600.9 1099.83,5623.98 1116.95,5653.76L1058.88,5697.31Z" style="fill-rule:nonzero;stroke:black;stroke-width:24.37px;"/>
                    <path d="M1689.8,6007.74C1667.46,6041.24 1638.43,6066.55 1602.7,6083.67C1566.96,6100.8 1530.11,6109.36 1492.15,6109.36C1451.2,6109.36 1414.17,6102.28 1381.04,6088.14C1347.91,6073.99 1319.62,6054.64 1296.17,6030.07C1272.72,6005.51 1254.48,5976.47 1241.46,5942.97C1228.43,5909.47 1221.91,5873.37 1221.91,5834.66C1221.91,5795.94 1228.43,5759.84 1241.46,5726.34C1254.48,5692.84 1272.72,5663.81 1296.17,5639.24C1319.62,5614.67 1347.91,5595.32 1381.04,5581.17C1414.17,5567.03 1451.2,5559.96 1492.15,5559.96C1530.11,5559.96 1566.96,5568.7 1602.7,5586.2C1638.43,5603.69 1667.46,5629.56 1689.8,5663.81L1692.03,5663.81L1692.03,5251.76L1767.96,5251.76L1767.96,6095.96L1692.03,6095.96L1692.03,6007.74L1689.8,6007.74ZM1302.31,5834.66C1302.31,5863.69 1306.78,5891.05 1315.71,5916.73C1324.65,5942.41 1337.49,5964.75 1354.24,5983.73C1370.99,6002.71 1391.65,6017.6 1416.21,6028.4C1440.78,6039.19 1468.7,6044.59 1499.96,6044.59C1529,6044.59 1555.8,6039.19 1580.36,6028.4C1604.93,6017.6 1626.15,6002.9 1644.01,5984.29C1661.88,5965.68 1675.84,5943.53 1685.89,5917.85C1695.94,5892.16 1700.96,5864.43 1700.96,5834.66C1700.96,5804.88 1695.94,5777.15 1685.89,5751.46C1675.84,5725.78 1661.88,5703.45 1644.01,5684.46C1626.15,5665.48 1604.93,5650.59 1580.36,5639.8C1555.8,5629 1529,5623.61 1499.96,5623.61C1468.7,5623.61 1440.78,5629.19 1416.21,5640.36C1391.65,5651.52 1370.99,5666.6 1354.24,5685.58C1337.49,5704.56 1324.65,5726.9 1315.71,5752.58C1306.78,5778.26 1302.31,5805.62 1302.31,5834.66Z" style="fill-rule:nonzero;stroke:black;stroke-width:24.37px;"/>
                    <path d="M1982.36,6200.92C2003.21,6227.72 2031.68,6250.43 2067.79,6269.04C2103.89,6287.65 2142.05,6296.96 2182.25,6296.96C2219.47,6296.96 2251.11,6291.56 2277.16,6280.76C2303.22,6269.97 2324.25,6255.27 2340.26,6236.66C2356.26,6218.05 2367.99,6196.27 2375.43,6171.33C2382.88,6146.39 2386.6,6119.78 2386.6,6091.49L2386.6,5993.22L2384.36,5993.22C2364.26,6025.98 2335.79,6051.29 2298.94,6069.16C2262.09,6087.02 2224.68,6095.96 2186.71,6095.96C2145.77,6095.96 2108.73,6089.26 2075.61,6075.86C2042.48,6062.46 2014.19,6044.03 1990.74,6020.58C1967.29,5997.13 1949.05,5969.03 1936.02,5936.27C1923,5903.52 1916.48,5868.16 1916.48,5830.19C1916.48,5792.97 1923,5757.98 1936.02,5725.22C1949.05,5692.47 1967.29,5663.81 1990.74,5639.24C2014.19,5614.67 2042.48,5595.32 2075.61,5581.17C2108.73,5567.03 2145.77,5559.96 2186.71,5559.96C2224.68,5559.96 2261.9,5568.89 2298.38,5586.76C2334.86,5604.62 2363.52,5630.31 2384.36,5663.81L2386.6,5663.81L2386.6,5573.36L2462.53,5573.36L2462.53,6091.49C2462.53,6119.78 2458.62,6149.93 2450.81,6181.94C2442.99,6213.95 2428.47,6243.36 2407.26,6270.16C2386.04,6296.96 2357.19,6319.29 2320.71,6337.16C2284.24,6355.02 2236.96,6363.96 2178.9,6363.96C2130.51,6363.96 2084.35,6354.65 2040.43,6336.04C1996.51,6317.43 1958.91,6291.74 1927.65,6258.99L1982.36,6200.92ZM1996.88,5827.96C1996.88,5855.5 2001.35,5881.56 2010.28,5906.12C2019.21,5930.69 2032.06,5952.28 2048.81,5970.89C2065.56,5989.5 2086.21,6004.2 2110.78,6015C2135.35,6025.79 2163.26,6031.19 2194.53,6031.19C2223.56,6031.19 2250.36,6026.35 2274.93,6016.67C2299.5,6006.99 2320.71,5993.22 2338.58,5975.36C2356.45,5957.49 2370.41,5936.09 2380.46,5911.15C2390.51,5886.21 2395.53,5858.48 2395.53,5827.96C2395.53,5800.41 2390.51,5774.36 2380.46,5749.79C2370.41,5725.22 2356.45,5703.63 2338.58,5685.02C2320.71,5666.41 2299.5,5651.52 2274.93,5640.36C2250.36,5629.19 2223.56,5623.61 2194.53,5623.61C2163.26,5623.61 2135.35,5629.19 2110.78,5640.36C2086.21,5651.52 2065.56,5666.41 2048.81,5685.02C2032.06,5703.63 2019.21,5725.22 2010.28,5749.79C2001.35,5774.36 1996.88,5800.41 1996.88,5827.96Z" style="fill-rule:nonzero;stroke:black;stroke-width:24.37px;"/>
                    <path d="M2748.4,6042.36C2748.4,6057.99 2742.81,6071.95 2731.65,6084.23C2720.48,6096.51 2705.96,6102.66 2688.1,6102.66C2670.23,6102.66 2655.71,6096.51 2644.55,6084.23C2633.38,6071.95 2627.8,6057.99 2627.8,6042.36C2627.8,6026.72 2633.38,6012.76 2644.55,6000.48C2655.71,5988.2 2670.23,5982.06 2688.1,5982.06C2705.96,5982.06 2720.48,5988.2 2731.65,6000.48C2742.81,6012.76 2748.4,6026.72 2748.4,6042.36Z" style="fill-rule:nonzero;stroke:black;stroke-width:24.37px;"/>
                </g>
                <g transform="matrix(1,0,0,1,7925.66,-1079.61)">
                    <path d="M5334.2,8351.53L7031.45,8351.53L7031.45,3494.95L2174.87,3494.95L2174.87,5272.19L2308.2,5272.19L2308.2,3628.28C2308.2,3628.28 6898.12,3628.28 6898.12,3628.28C6898.12,3628.28 6898.12,7649.09 6898.12,8218.2L5267.53,8218.2L5267.53,8351.53L5334.2,8351.53Z"/>
                </g>
            </g>
        </g>
    </g>
</svg>
