<svg id="ekIJ3oFHwmA1" xmlns="http://www.w3.org/2000/svg" xmlns:xlink="http://www.w3.org/1999/xlink" viewBox="0 0 3840 2160" shape-rendering="geometricPrecision" text-rendering="geometricPrecision"><style><![CDATA[#ekIJ3oFHwmA3_to {animation: ekIJ3oFHwmA3_to__to 10000ms linear infinite alternate forwards}@keyframes ekIJ3oFHwmA3_to__to { 0% {transform: translate(3591.199951px,486.290024px)} 7% {transform: translate(3591.199951px,486.290024px)} 16% {transform: translate(1691.319951px,486.290024px)} 30% {transform: translate(1691.319951px,486.288595px)} 44% {transform: translate(3591.199951px,486.287167px)} 90% {transform: translate(1691.319951px,486.280024px)} 100% {transform: translate(2403.779951px,486.280024px)}} #ekIJ3oFHwmA7_to {animation: ekIJ3oFHwmA7_to__to 10000ms linear infinite alternate forwards}@keyframes ekIJ3oFHwmA7_to__to { 0% {transform: translate(3353.709966px,723.77002px)} 30% {transform: translate(3353.709966px,723.77002px)} 40% {transform: translate(2403.779961px,723.770022px)} 100% {transform: translate(2403.779961px,723.770022px)}} #ekIJ3oFHwmA9_to {animation: ekIJ3oFHwmA9_to__to 10000ms linear infinite alternate forwards}@keyframes ekIJ3oFHwmA9_to__to { 0% {transform: translate(3116.22998px,961.26001px)} 70% {transform: translate(3116.22998px,961.26001px)} 80% {transform: translate(1691.31998px,961.260011px)} 90% {transform: translate(1691.31998px,961.260011px)} 100% {transform: translate(3116.23998px,961.260013px)}} #ekIJ3oFHwmA14_to {animation: ekIJ3oFHwmA14_to__to 10000ms linear infinite alternate forwards}@keyframes ekIJ3oFHwmA14_to__to { 0% {transform: translate(2878.73999px,248.799988px)} 20% {transform: translate(2878.73999px,248.799988px)} 30% {transform: translate(2878.739993px,1198.739988px)} 100% {transform: translate(2878.739993px,1198.739988px)}} #ekIJ3oFHwmA22_to {animation: ekIJ3oFHwmA22_to__to 10000ms linear infinite alternate forwards}@keyframes ekIJ3oFHwmA22_to__to { 0% {transform: translate(2403.78002px,486.290026px)} 80% {transform: translate(2403.78002px,486.290026px)} 90% {transform: translate(3591.20002px,486.290026px)} 100% {transform: translate(3591.20002px,486.290026px)}} #ekIJ3oFHwmA23_to {animation: ekIJ3oFHwmA23_to__to 10000ms linear infinite alternate forwards}@keyframes ekIJ3oFHwmA23_to__to { 0% {transform: translate(2403.77002px,723.77002px)} 10% {transform: translate(2403.77002px,723.77002px)} 20% {transform: translate(1691.32002px,723.770021px)} 66% {transform: translate(1691.32002px,723.762877px)} 80% {transform: translate(3353.71002px,723.762877px)} 100% {transform: translate(3353.71002px,723.762877px)}} #ekIJ3oFHwmA30_to {animation: ekIJ3oFHwmA30_to__to 10000ms linear infinite alternate forwards}@keyframes ekIJ3oFHwmA30_to__to { 0% {transform: translate(1928.800049px,248.799988px)} 60% {transform: translate(1928.800049px,248.799988px)} 70% {transform: translate(2878.709234px,248.799988px)} 90% {transform: translate(2878.709234px,248.799988px)} 100% {transform: translate(2878.709265px,1436.239988px)}} #ekIJ3oFHwmA34_to {animation: ekIJ3oFHwmA34_to__to 10000ms linear infinite alternate forwards}@keyframes ekIJ3oFHwmA34_to__to { 0% {transform: translate(3591.199951px,1198.73999px)} 40% {transform: translate(3591.199951px,1198.73999px)} 50% {transform: translate(3353.719951px,1198.73999px)} 60% {transform: translate(3353.719951px,1198.73999px)} 100% {transform: translate(3353.719951px,1198.73999px)}} #ekIJ3oFHwmA36_to {animation: ekIJ3oFHwmA36_to__to 10000ms linear infinite alternate forwards}@keyframes ekIJ3oFHwmA36_to__to { 0% {transform: translate(3591.199951px,1673.709961px)} 60% {transform: translate(3591.199951px,1673.709961px)} 70% {transform: translate(1928.775838px,1673.709965px)} 100% {transform: translate(1928.775838px,1673.709965px)}} #ekIJ3oFHwmA37_to {animation: ekIJ3oFHwmA37_to__to 10000ms linear infinite alternate forwards}@keyframes ekIJ3oFHwmA37_to__to { 0% {transform: translate(3353.709961px,1198.739991px)} 30% {transform: translate(1453.839961px,1198.73999px)} 50% {transform: translate(1453.839961px,1198.73999px)} 60% {transform: translate(3591.199961px,1198.73999px)} 100% {transform: translate(3591.199961px,1198.73999px)}} #ekIJ3oFHwmA40_to {animation: ekIJ3oFHwmA40_to__to 10000ms linear infinite alternate forwards}@keyframes ekIJ3oFHwmA40_to__to { 0% {transform: translate(3116.22998px,1198.73999px)} 30% {transform: translate(3116.22998px,1198.73999px)} 40% {transform: translate(3116.22998px,1673.71999px)} 100% {transform: translate(3116.22998px,1673.71999px)}} #ekIJ3oFHwmA42_to {animation: ekIJ3oFHwmA42_to__to 10000ms linear infinite alternate forwards}@keyframes ekIJ3oFHwmA42_to__to { 0% {transform: translate(3116.22998px,1673.709961px)} 10% {transform: translate(1691.31998px,1673.709962px)} 40% {transform: translate(1691.31998px,1673.709962px)} 50% {transform: translate(1691.31998px,1198.749961px)} 60% {transform: translate(3116.23998px,1198.749962px)} 100% {transform: translate(3116.23998px,1198.749962px)}} #ekIJ3oFHwmA46_to {animation: ekIJ3oFHwmA46_to__to 10000ms linear infinite alternate forwards}@keyframes ekIJ3oFHwmA46_to__to { 0% {transform: translate(2878.73999px,1198.73999px)} 15% {transform: translate(1691.31999px,1198.73999px)} 25% {transform: translate(1691.31999px,1198.73999px)} 30% {transform: translate(3353.71999px,1198.739991px)} 70% {transform: translate(3353.71999px,1673.71999px)} 90% {transform: translate(3591.19999px,1673.719994px)} 100% {transform: translate(3591.19999px,1673.719994px)}} #ekIJ3oFHwmA47_to {animation: ekIJ3oFHwmA47_to__to 10000ms linear infinite alternate forwards}@keyframes ekIJ3oFHwmA47_to__to { 0% {transform: translate(2878.74999px,1436.22998px)} 40% {transform: translate(2878.74999px,1436.22998px)} 80% {transform: translate(2878.73999px,1436.22998px)} 90% {transform: translate(2878.73999px,248.809982px)} 100% {transform: translate(2878.73999px,248.809982px)}} #ekIJ3oFHwmA64_to {animation: ekIJ3oFHwmA64_to__to 10000ms linear infinite alternate forwards}@keyframes ekIJ3oFHwmA64_to__to { 0% {transform: translate(1928.800049px,1673.709961px)} 50% {transform: translate(1928.800049px,1673.709961px)} 60% {transform: translate(3591.200049px,1673.709969px)} 70% {transform: translate(3591.200049px,1673.709969px)} 80% {transform: translate(3591.200049px,248.809963px)} 90% {transform: translate(1928.810049px,248.809963px)} 100% {transform: translate(1928.810049px,248.809963px)}}]]></style><circle id="ekIJ3oFHwmA2" r="118.74" transform="matrix(1 0 0 1 3591.2 248.8)" fill="rgb(55,93,129)" stroke="none" stroke-width="1"/><g id="ekIJ3oFHwmA3_to" transform="translate(3591.199951,486.290024)"><circle id="ekIJ3oFHwmA3" r="118.74" transform="translate(0.000049,-0.000024)" fill="rgb(156,183,207)" stroke="none" stroke-width="1"/></g><circle id="ekIJ3oFHwmA4" r="118.74" transform="matrix(1 0 0 1 3591.2 723.77)" fill="rgb(187,208,227)" stroke="none" stroke-width="1"/><circle id="ekIJ3oFHwmA5" r="118.74" transform="matrix(1 0 0 1 3353.71 248.8)" fill="rgb(106,139,171)" stroke="none" stroke-width="1"/><circle id="ekIJ3oFHwmA6" r="118.74" transform="matrix(1 0 0 1 3353.71 486.29)" fill="rgb(215,232,247)" stroke="none" stroke-width="1"/><g id="ekIJ3oFHwmA7_to" transform="translate(3353.709966,723.77002)"><circle id="ekIJ3oFHwmA7" r="118.74" transform="translate(0.000039,-0.00002)" fill="rgb(55,93,129)" stroke="none" stroke-width="1"/></g><circle id="ekIJ3oFHwmA8" r="118.74" transform="matrix(1 0 0 1 3116.23 248.8)" fill="rgb(156,183,207)" stroke="none" stroke-width="1"/><g id="ekIJ3oFHwmA9_to" transform="translate(3116.22998,961.26001)"><circle id="ekIJ3oFHwmA9" r="118.74" transform="translate(0.00002,-0.00001)" fill="rgb(187,208,227)" stroke="none" stroke-width="1"/></g><circle id="ekIJ3oFHwmA10" r="118.74" transform="matrix(1 0 0 1 3116.23 723.77)" fill="rgb(106,139,171)" stroke="none" stroke-width="1"/><circle id="ekIJ3oFHwmA11" r="118.74" transform="matrix(1 0 0 1 3591.2 961.26)" fill="rgb(215,232,247)" stroke="none" stroke-width="1"/><circle id="ekIJ3oFHwmA12" r="118.74" transform="matrix(1 0 0 1 3116.23 486.29)" fill="rgb(55,93,129)" stroke="none" stroke-width="1"/><circle id="ekIJ3oFHwmA13" r="118.74" transform="matrix(1 0 0 1 3353.71 961.26)" fill="rgb(156,183,207)" stroke="none" stroke-width="1"/><g id="ekIJ3oFHwmA14_to" transform="translate(2878.73999,248.799988)"><circle id="ekIJ3oFHwmA14" r="118.74" transform="translate(0.00001,0.000012)" fill="rgb(187,208,227)" stroke="none" stroke-width="1"/></g><circle id="ekIJ3oFHwmA15" r="118.74" transform="matrix(1 0 0 1 2878.74 486.29)" fill="rgb(106,139,171)" stroke="none" stroke-width="1"/><circle id="ekIJ3oFHwmA16" r="118.74" transform="matrix(1 0 0 1 2878.74 723.77)" fill="rgb(215,232,247)" stroke="none" stroke-width="1"/><ellipse id="ekIJ3oFHwmA17" rx="118.74" ry="118.74" transform="matrix(0.7071 -0.7071 0.7071 0.7071 2878.714887 961.270448)" fill="rgb(156,183,207)" stroke="none" stroke-width="1"/><circle id="ekIJ3oFHwmA18" r="118.74" transform="matrix(1 0 0 1 2641.26 248.8)" fill="rgb(187,208,227)" stroke="none" stroke-width="1"/><circle id="ekIJ3oFHwmA19" r="118.74" transform="matrix(1 0 0 1 2641.26 486.29)" fill="rgb(156,183,207)" stroke="none" stroke-width="1"/><circle id="ekIJ3oFHwmA20" r="118.74" transform="matrix(1 0 0 1 2641.26 723.77)" fill="rgb(187,208,227)" stroke="none" stroke-width="1"/><circle id="ekIJ3oFHwmA21" r="118.74" transform="matrix(1 0 0 1 2403.77 248.8)" fill="rgb(106,139,171)" stroke="none" stroke-width="1"/><g id="ekIJ3oFHwmA22_to" transform="translate(2403.78002,486.290026)"><circle id="ekIJ3oFHwmA22" r="118.74" transform="translate(-0.00002,-0.000024)" fill="rgb(215,232,247)" stroke="none" stroke-width="1"/></g><g id="ekIJ3oFHwmA23_to" transform="translate(2403.77002,723.77002)"><circle id="ekIJ3oFHwmA23" r="118.74" transform="translate(-0.00002,-0.00002)" fill="rgb(156,183,207)" stroke="none" stroke-width="1"/></g><circle id="ekIJ3oFHwmA24" r="118.74" transform="matrix(1 0 0 1 2166.29 248.8)" fill="rgb(156,183,207)" stroke="none" stroke-width="1"/><circle id="ekIJ3oFHwmA25" r="118.74" transform="matrix(1 0 0 1 2166.29 961.26)" fill="rgb(187,208,227)" stroke="none" stroke-width="1"/><circle id="ekIJ3oFHwmA26" r="118.74" transform="matrix(1 0 0 1 2166.29 723.77)" fill="rgb(106,139,171)" stroke="none" stroke-width="1"/><circle id="ekIJ3oFHwmA27" r="118.74" transform="matrix(1 0 0 1 2641.26 961.26)" fill="rgb(215,232,247)" stroke="none" stroke-width="1"/><circle id="ekIJ3oFHwmA28" r="118.74" transform="matrix(1 0 0 1 2166.29 486.29)" fill="rgb(55,93,129)" stroke="none" stroke-width="1"/><circle id="ekIJ3oFHwmA29" r="118.74" transform="matrix(1 0 0 1 2403.77 961.26)" fill="rgb(156,183,207)" stroke="none" stroke-width="1"/><g id="ekIJ3oFHwmA30_to" transform="translate(1928.800049,248.799988)"><circle id="ekIJ3oFHwmA30" r="118.74" transform="translate(-0.000049,0.000012)" fill="rgb(187,208,227)" stroke="none" stroke-width="1"/></g><circle id="ekIJ3oFHwmA31" r="118.74" transform="matrix(1 0 0 1 1928.8 486.29)" fill="rgb(106,139,171)" stroke="none" stroke-width="1"/><circle id="ekIJ3oFHwmA32" r="118.74" transform="matrix(1 0 0 1 1928.8 723.77)" fill="rgb(215,232,247)" stroke="none" stroke-width="1"/><ellipse id="ekIJ3oFHwmA33" rx="118.74" ry="118.74" transform="matrix(0.7071 -0.7071 0.7071 0.7071 1928.782588 961.272746)" fill="rgb(156,183,207)" stroke="none" stroke-width="1"/><g id="ekIJ3oFHwmA34_to" transform="translate(3591.199951,1198.73999)"><circle id="ekIJ3oFHwmA34" r="118.74" transform="translate(0.000049,0.00001)" fill="rgb(55,93,129)" stroke="none" stroke-width="1"/></g><circle id="ekIJ3oFHwmA35" r="118.74" transform="matrix(1 0 0 1 3591.2 1436.23)" fill="rgb(156,183,207)" stroke="none" stroke-width="1"/><g id="ekIJ3oFHwmA36_to" transform="translate(3591.199951,1673.709961)"><circle id="ekIJ3oFHwmA36" r="118.74" transform="translate(0.000049,0.000039)" fill="rgb(187,208,227)" stroke="none" stroke-width="1"/></g><g id="ekIJ3oFHwmA37_to" transform="translate(3353.709961,1198.739991)"><circle id="ekIJ3oFHwmA37" r="118.74" transform="translate(0.000039,0.00001)" fill="rgb(106,139,171)" stroke="none" stroke-width="1"/></g><circle id="ekIJ3oFHwmA38" r="118.74" transform="matrix(1 0 0 1 3353.71 1436.23)" fill="rgb(215,232,247)" stroke="none" stroke-width="1"/><circle id="ekIJ3oFHwmA39" r="118.74" transform="matrix(1 0 0 1 3353.71 1673.71)" fill="rgb(55,93,129)" stroke="none" stroke-width="1"/><g id="ekIJ3oFHwmA40_to" transform="translate(3116.22998,1198.73999)"><circle id="ekIJ3oFHwmA40" r="118.74" transform="translate(0.00002,0.00001)" fill="rgb(156,183,207)" stroke="none" stroke-width="1"/></g><circle id="ekIJ3oFHwmA41" r="118.74" transform="matrix(1 0 0 1 3116.23 1911.2)" fill="rgb(187,208,227)" stroke="none" stroke-width="1"/><g id="ekIJ3oFHwmA42_to" transform="translate(3116.22998,1673.709961)"><circle id="ekIJ3oFHwmA42" r="118.74" transform="translate(0.00002,0.000039)" fill="rgb(106,139,171)" stroke="none" stroke-width="1"/></g><circle id="ekIJ3oFHwmA43" r="118.74" transform="matrix(1 0 0 1 3591.2 1911.2)" fill="rgb(215,232,247)" stroke="none" stroke-width="1"/><circle id="ekIJ3oFHwmA44" r="118.74" transform="matrix(1 0 0 1 3116.23 1436.23)" fill="rgb(55,93,129)" stroke="none" stroke-width="1"/><circle id="ekIJ3oFHwmA45" r="118.74" transform="matrix(1 0 0 1 3353.71 1911.2)" fill="rgb(156,183,207)" stroke="none" stroke-width="1"/><g id="ekIJ3oFHwmA46_to" transform="translate(2878.73999,1198.73999)"><circle id="ekIJ3oFHwmA46" r="118.74" transform="translate(0.00001,0.00001)" fill="rgb(187,208,227)" stroke="none" stroke-width="1"/></g><g id="ekIJ3oFHwmA47_to" transform="translate(2878.74999,1436.22998)"><circle id="ekIJ3oFHwmA47" r="118.74" transform="translate(0.00001,0.00002)" fill="rgb(106,139,171)" stroke="none" stroke-width="1"/></g><circle id="ekIJ3oFHwmA48" r="118.74" transform="matrix(1 0 0 1 2878.74 1673.71)" fill="rgb(215,232,247)" stroke="none" stroke-width="1"/><ellipse id="ekIJ3oFHwmA49" rx="118.74" ry="118.74" transform="matrix(0.7071 -0.7071 0.7071 0.7071 2878.709185 1911.202746)" fill="rgb(156,183,207)" stroke="none" stroke-width="1"/><circle id="ekIJ3oFHwmA50" r="118.74" transform="matrix(1 0 0 1 2641.26 1198.74)" fill="rgb(55,93,129)" stroke="none" stroke-width="1"/><circle id="ekIJ3oFHwmA51" r="118.74" transform="matrix(1 0 0 1 2641.26 1436.23)" fill="rgb(156,183,207)" stroke="none" stroke-width="1"/><circle id="ekIJ3oFHwmA52" r="118.74" transform="matrix(1 0 0 1 2641.26 1673.71)" fill="rgb(187,208,227)" stroke="none" stroke-width="1"/><circle id="ekIJ3oFHwmA53" r="118.74" transform="matrix(1 0 0 1 2403.77 1198.74)" fill="rgb(106,139,171)" stroke="none" stroke-width="1"/><circle id="ekIJ3oFHwmA54" r="118.74" transform="matrix(1 0 0 1 2403.77 1436.23)" fill="rgb(215,232,247)" stroke="none" stroke-width="1"/><circle id="ekIJ3oFHwmA55" r="118.74" transform="matrix(1 0 0 1 2403.77 1673.71)" fill="rgb(55,93,129)" stroke="none" stroke-width="1"/><circle id="ekIJ3oFHwmA56" r="118.74" transform="matrix(1 0 0 1 2166.29 1198.74)" fill="rgb(156,183,207)" stroke="none" stroke-width="1"/><circle id="ekIJ3oFHwmA57" r="118.74" transform="matrix(1 0 0 1 2166.29 1911.2)" fill="rgb(187,208,227)" stroke="none" stroke-width="1"/><circle id="ekIJ3oFHwmA58" r="118.74" transform="matrix(1 0 0 1 2166.29 1673.72)" fill="rgb(106,139,171)" stroke="none" stroke-width="1"/><circle id="ekIJ3oFHwmA59" r="118.74" transform="matrix(1 0 0 1 2641.26 1911.2)" fill="rgb(215,232,247)" stroke="none" stroke-width="1"/><circle id="ekIJ3oFHwmA60" r="118.74" transform="matrix(1 0 0 1 2166.29 1436.23)" fill="rgb(55,93,129)" stroke="none" stroke-width="1"/><circle id="ekIJ3oFHwmA61" r="118.74" transform="matrix(1 0 0 1 2403.77 1911.2)" fill="rgb(156,183,207)" stroke="none" stroke-width="1"/><circle id="ekIJ3oFHwmA62" r="118.74" transform="matrix(1 0 0 1 1928.8 1198.74)" fill="rgb(187,208,227)" stroke="none" stroke-width="1"/><circle id="ekIJ3oFHwmA63" r="118.74" transform="matrix(1 0 0 1 1928.8 1436.23)" fill="rgb(106,139,171)" stroke="none" stroke-width="1"/><g id="ekIJ3oFHwmA64_to" transform="translate(1928.800049,1673.709961)"><circle id="ekIJ3oFHwmA64" r="118.74" transform="translate(-0.000049,0.000039)" fill="rgb(215,232,247)" stroke="none" stroke-width="1"/></g><ellipse id="ekIJ3oFHwmA65" rx="118.74" ry="118.74" transform="matrix(0.7071 -0.7071 0.7071 0.7071 1928.775887 1911.205045)" fill="rgb(215,232,247)" stroke="none" stroke-width="1"/></svg>