<?xml version="1.0" encoding="UTF-8"?>
<svg id="Layer_1" xmlns="http://www.w3.org/2000/svg" version="1.1" viewBox="0 0 2000 540">
  <defs>
    <style>
      .st0 {
        fill: #414042;
      }

      .st1 {
        fill: #231f20;
      }

#wave {
animation: wave-motion 60s linear infinite;
}

@keyframes wave-motion {
0%   { transform: translate(0px, 0px); }
3.57%  { transform: translate(59px, 20px); }
7.14%  { transform: translate(119px, 0px); }
10.71% { transform: translate(178px, -14px); }
14.28% { transform: translate(238px, 0px); }
17.85% { transform: translate(297px, 20px); }
21.42% { transform: translate(357px, 0px); }
25%    { transform: translate(416px, -14px); }
28.57% { transform: translate(476px, 0px); }
32.14% { transform: translate(535px, 20px); }
35.71% { transform: translate(595px, 0px); }
39.28% { transform: translate(654px, -14px); }
42.85% { transform: translate(714px, 0px); }
46.42% { transform: translate(773px, 20px); }
50%    { transform: translate(831px, 0px); }
53.57% { transform: translate(890px, -14px); }
57.14% { transform: translate(950px, 0px); }
60.71% { transform: translate(1009px, 26px); }
64.28% { transform: translate(1069px, 0px); }
67.85% { transform: translate(1128px, -14px); }
71.42% { transform: translate(1188px, 0px); }
75%    { transform: translate(1247px, 20px); }
78.57% { transform: translate(1307px, 0px); }
82.14% { transform: translate(1366px, -14px); }
85.71% { transform: translate(1426px, 0px); }
89.28% { transform: translate(1485px, 20px); }
92.85% { transform: translate(1545px, 0px); }
96.42% { transform: translate(1604px, -14px); }
100%   { transform: translate(1662px, 0px); }
}
    </style>
  </defs>
  <g id="wavebgcolor">
    <rect class="st0" x="-12.41" y="-13.99" width="2030.91" height="555.42"/>
  </g>
  <g id="wave">
    <g>
      <path class="st1" d="M.11,541.44V245.32c3.81,3.7,6.18,6.74,8.98,11.53,14.18-19.6,32.22-26.74,45.64-29.26,22.66-4.28,39.28,9.42,41.99,24.23,2.7,14.82-2.61,26.07-12.16,32.98-8.55,6.18-21.03.49-23.95-9.66-3.53-12.25,5.43-24.77,16.72-21.55-2.03-6.68-9.49-9.16-17.39-8.17-10.54,1.32-32.97,21.38-37.89,52.43-2.77,17.48-3.88,40.67,1.28,64.98,4.74-7.24,10.43-12.34,16.2-15.3,19.71-10.12,33.51-1.61,38.99,9.76,5.46,11.36,2.9,21.94-2.08,29-5.32,7.55-17.03,5.95-21.65-1.54-5.57-9.05-1.03-21.63,8.89-21.99-3.13-4.91-9.75-4.96-15.98-2.06-8.3,3.86-16.34,18.91-10.79,37.98.38,1.31.78,2.69,1.2,4.1,9.13,16.5,22.37,32.34,41.2,46.08-5-56.74,16.21-90.61,38.31-101.97,27.35-14.06,46.53-2.24,54.12,13.54s4.03,30.46-2.88,40.26c-7.39,10.49-23.65,8.27-30.06-2.14-7.74-12.57-1.43-30.03,12.34-30.53-4.34-6.82-13.54-6.89-22.18-2.86-11.52,5.36-22.67,26.25-14.97,52.72,5.21,17.89,12.03,43.37,35.39,62.02,35.11,5.87,75.85-1.57,90.84-12.52,17.84-13.04,29.43-25.49,39.27-59.24,7.28-24.96,20.47-41.17,34.39-48.32,27.36-14.05,46.53-2.23,54.12,13.54,7.58,15.78,4.02,30.45-2.88,40.26-7.39,10.49-23.65,8.27-30.06-2.13-7.74-12.57-1.43-30.02,12.34-30.53-4.34-6.82-13.55-6.88-22.18-2.86-11.52,5.36-22.67,26.26-14.98,52.72,6.84,23.49,16.59,58.77,62.7,76.39-16.63-77.75,9.08-123.24,36.02-137.09,28.93-14.86,49.2-2.36,57.22,14.32s4.25,32.2-3.05,42.57c-7.81,11.09-25,8.74-31.78-2.26-8.19-13.29-1.51-31.74,13.05-32.27-4.59-7.21-14.32-7.28-23.46-3.03-12.18,5.67-22.88,27.9-15.83,55.74,6.63,26.16,18.73,43.03,37.53,51.86,19.51,9.16,45.57,1.39,53.47-6.76,13.28-13.72,14.27-30.44,9.07-38.52-3.9-6.06-9.55-9.84-14.57-7.47,8.26,6.04,6.08,19.35-3,23.83-7.53,3.71-18.25-1.69-19.15-11.19-.84-8.88,2.06-19.35,12.16-25.86,10.11-6.51,25.94-5.78,37.82,14.21,4.87,8.19,7.6,19.82,6.15,33.55,3.34-2.94,6.86-5.97,10.56-9.09,17.77-14.94,40.5-30.74,65.8-45.82.5-6.02.56-11.63.66-16.6.45-23.53-13.19-37.57-23.73-38.89-7.9-.99-15.36,1.48-17.39,8.17,11.3-3.22,20.25,9.3,16.72,21.55-2.93,10.14-15.65,16.24-23.96,9.66-7.76-6.15-13.87-17.13-11.17-31.95,2.71-14.82,15.69-29.48,41-25.27,17.8,2.96,38.8,19.96,49.47,55.6,7.41-3.91,14.93-7.7,22.53-11.37,21.65-16.42,27.34-33.22,27.62-47.93.36-18.82-10.55-30.04-18.97-31.09-6.32-.79-12.29,1.19-13.91,6.53,9.03-2.57,16.19,7.43,13.36,17.23-2.33,8.11-12.51,12.98-19.15,7.72-6.21-4.91-11.09-13.7-8.93-25.54,2.16-11.85,12.55-23.57,32.78-20.21,18.25,3.04,44.72,20.11,48.93,67.41,2.61-.92,5.21-1.82,7.81-2.68,8.29-2.76,15.83-5.78,22.68-9,5.93-8.22,7.83-16.28,7.98-23.66.28-14.47-8.1-23.1-14.58-23.91-4.87-.61-9.45.91-10.7,5.02,6.95-1.98,12.45,5.72,10.28,13.25-1.79,6.23-9.61,9.98-14.72,5.94-4.77-3.78-8.53-10.54-6.87-19.65,1.66-9.11,9.65-18.12,25.21-15.54,12.04,2,26.45,14.47,32.18,41.12,10.78-8.44,17.6-18.39,22.58-27.25,9.12-16.22,20.1-41.24,37.93-59.07,18.22-18.22,35.52-23.44,48.93-25.97,22.66-4.28,39.28,9.42,41.98,24.23,2.7,14.82-2.6,26.07-12.16,32.98-8.54,6.18-21.02.49-23.95-9.66-3.53-12.25,5.42-24.77,16.72-21.55-2.03-6.68-9.49-9.16-17.39-8.17-10.54,1.32-32.97,21.38-37.89,52.43-2.77,17.48-3.88,40.67,1.28,64.98,4.74-7.24,10.43-12.34,16.2-15.3,19.71-10.12,33.52-1.61,38.99,9.76,5.46,11.36,2.89,21.94-2.08,29-5.32,7.55-17.03,5.95-21.65-1.54-5.58-9.05-1.03-21.63,8.89-21.99-3.12-4.91-9.75-4.96-15.98-2.06-8.3,3.86-16.33,18.91-10.79,37.98.38,1.31.78,2.69,1.2,4.1,9.13,16.5,22.38,32.34,41.2,46.08-5-56.74,16.22-90.61,38.31-101.97,27.35-14.06,46.53-2.24,54.12,13.54,7.59,15.78,4.02,30.46-2.89,40.26-7.39,10.49-23.65,8.27-30.06-2.14-7.73-12.57-1.42-30.03,12.34-30.53-4.34-6.82-13.54-6.89-22.19-2.86-11.52,5.36-22.66,26.25-14.97,52.72,5.21,17.89,12.03,43.37,35.39,62.02,35.11,5.87,75.86-1.57,90.84-12.52,17.83-13.04,29.43-25.49,39.27-59.24,7.28-24.96,20.47-41.17,34.39-48.32,27.36-14.05,46.53-2.23,54.11,13.54,7.59,15.78,4.02,30.45-2.88,40.26-7.4,10.49-23.65,8.27-30.06-2.13-7.74-12.57-1.43-30.02,12.34-30.53-4.34-6.82-13.55-6.88-22.19-2.86-11.52,5.36-22.67,26.26-14.97,52.72,6.84,23.49,16.59,58.77,62.7,76.39-16.63-77.75,9.08-123.24,36.02-137.09,28.93-14.86,49.2-2.36,57.22,14.32s4.25,32.2-3.05,42.57c-7.81,11.09-25,8.74-31.78-2.26-8.19-13.29-1.51-31.74,13.05-32.27-4.59-7.21-14.32-7.28-23.46-3.03-12.18,5.67-22.88,27.9-15.83,55.74,6.63,26.16,18.73,43.03,37.53,51.86,19.5,9.16,45.57,1.39,53.46-6.76,13.29-13.72,14.28-30.44,9.07-38.52-3.9-6.06-9.56-9.84-14.58-7.47,8.26,6.04,6.08,19.35-3,23.83-7.53,3.71-18.25-1.69-19.15-11.19-.84-8.88,2.06-19.35,12.16-25.86,10.11-6.51,25.94-5.78,37.83,14.21,4.87,8.19,7.59,19.82,6.15,33.55,3.34-2.94,6.85-5.97,10.56-9.09,17.77-14.94,40.5-30.74,65.8-45.82.49-6.02.56-11.63.65-16.6.45-23.53-13.19-37.57-23.73-38.89-7.9-.99-15.36,1.48-17.39,8.17,11.3-3.22,20.25,9.3,16.72,21.55-2.93,10.14-15.65,16.24-23.96,9.66-7.76-6.15-13.87-17.13-11.17-31.95,2.71-14.82,15.69-29.48,41-25.27,17.8,2.96,38.8,19.96,49.47,55.6,7.4-3.91,14.94-7.7,22.53-11.37,21.66-16.42,27.34-33.22,27.62-47.93.36-18.82-10.54-30.04-18.97-31.09-6.32-.79-12.28,1.19-13.91,6.53,9.03-2.57,16.19,7.43,13.36,17.23-2.33,8.11-12.51,12.98-19.15,7.72-6.21-4.91-11.09-13.7-8.93-25.54,2.16-11.85,12.55-23.57,32.78-20.21,18.24,3.04,44.72,20.11,48.93,67.41,2.61-.92,5.21-1.82,7.81-2.68,8.29-2.76,15.83-5.78,22.68-9,5.93-8.22,7.84-16.28,7.98-23.66.28-14.47-8.11-23.1-14.59-23.91-4.86-.61-9.45.91-10.7,5.02,6.95-1.98,12.45,5.72,10.28,13.25-1.8,6.23-9.62,9.98-14.72,5.94-4.77-3.78-8.53-10.54-6.87-19.65s9.65-18.12,25.21-15.54c12.04,2,26.45,14.47,32.18,41.12,25.19-19.71,33.55-42.07,33.84-57.71.38-21.06-14.26-32.64-28.08-33.19-8.3-.34-15.6,4.07-15.6,13.85,7.43-2.44,16.63,5.8,13.72,15.9-2.41,8.37-11.98,11.78-18.83,6.36-6.41-5.07-11.98-14.93-9.75-27.15s11.89-30.96,34.18-30.96c19.32,0,30.53,4.18,45.81,18.35v296.12H.11v.07Z"/>
      <ellipse class="st1" cx="1530.84" cy="240.01" rx="11.89" ry="13.03"/>
      <path class="st1" d="M1359.94,262.81c0,7.2,5.32,13.04,11.89,13.04s11.89-5.84,11.89-13.04-5.32-13.03-11.89-13.03-11.89,5.83-11.89,13.03Z"/>
      <path class="st1" d="M939.36,315.77c0,7.2,5.32,13.03,11.89,13.03s11.89-5.84,11.89-13.03-5.32-13.03-11.89-13.03-11.89,5.83-11.89,13.03Z"/>
      <path class="st1" d="M1006.74,295.68c0,5.16,3.82,9.35,8.53,9.35s8.52-4.19,8.52-9.35-3.82-9.35-8.52-9.35-8.53,4.18-8.53,9.35Z"/>
      <path class="st1" d="M1043.23,382.83c0,5.16,3.82,9.35,8.53,9.35s8.52-4.19,8.52-9.35-3.82-9.35-8.52-9.35-8.53,4.18-8.53,9.35Z"/>
      <path class="st1" d="M1496.31,276.66c0,5.16,3.82,9.35,8.53,9.35s8.52-4.19,8.52-9.35-3.82-9.35-8.52-9.35-8.53,4.18-8.53,9.35Z"/>
      <path class="st1" d="M1398.97,241.63c0,5.16,3.82,9.35,8.52,9.35s8.53-4.19,8.53-9.35-3.82-9.35-8.53-9.35-8.52,4.18-8.52,9.35Z"/>
      <path class="st0" d="M1654.79,528.4c-20.63-32.21-48.28-51.85-77.03-60.59-28.76-8.74-65.35-4.24-94.33,13.94,26.98-10.79,60.27-15.16,91.07-6.43,26.78,7.59,54.38,24.98,80.3,53.07h-.01Z"/>
      <path class="st0" d="M868.99,247.05c-24.74,25.55-30.79,55.31-28.08,96.42,1.53,23.19,7.76,43.7,16.14,60.7-1.03-8.26-1.36-21.83,3.33-33.17,4.72-11.4,13.55-20.45,27.93-17.41-14.1-.29-17.28,4.37-23.21,14.23-5.88,9.78-5.85,39.96,3.27,55.6,7.91,11.35,16.55,20.15,24.55,25.95-30.09-16.7-55.69-64.74-56.85-105.5-1.12-39.55,4.08-71.69,32.91-96.83h.01Z"/>
      <path class="st0" d="M1125.5,497.44c-17.1-9.61-40.61-18.54-57.7-14.87-17.32,3.72-32.64,6.6-52.33,7.05,23.05,2.91,43.37-.97,52.63-1.9,19.68-1.99,36.31,1.46,57.39,9.73h.01Z"/>
      <path class="st0" d="M1133.21,497.65c-8.91-6.11-21.19-17.43-28.7-20.77-8.92-3.97-23.41-5.5-37.06,1.53,10.87-7.94,26.75-12.53,37.34-7.64,7.84,3.62,14.21,14.05,28.42,26.88Z"/>
      <path class="st0" d="M951.53,354.67c-16.72,9.16-33.16,36.35-35.39,63.24-2.23,26.89,6.97,57.13,26.47,80.04,17.22,20.23,52.94,33,77.74,40.02-39.29-15.58-58.8-29.02-73.56-45.21-11.15-12.23-27.43-47.7-25.92-74.54,1.67-29.63,13.93-50.1,30.66-63.54h0Z"/>
      <path class="st0" d="M934.9,418.83c5.57,28.11,14.68,54.38,47.56,77.6,32.88,23.22,55.73,28.1,82.48,36.05-33.44-4.27-63.94-14.61-87.5-32.38-25.91-19.55-41.43-44.3-42.54-81.26h0Z"/>
      <path class="st0" d="M1523.6,325.34c6.97,12.53,13.65,35.13,6.41,63.54-7.25,28.41-25.73,49.98-57.96,65.69-32.6,15.88-55.73,23.22-69.38,37.88,22.01-15.58,56.43-25.35,71.89-33.91,26.47-14.66,51.45-34.25,58.24-66.6,6.41-30.55.83-53.15-9.2-66.6h0Z"/>
      <path class="st1" d="M926.76,240.74c13.56,2.33,22.52,12.1,24.18,21.57.44,2.39.64,4.64.64,6.77-.04,9.91-4.25,17.22-11.36,22.43-1.86,1.34-3.94,1.96-6.14,1.96-5.36.06-10.97-4-12.63-9.25,4.66-4.63,8.01-10.62,9.38-17.65.14,0,.28-.05.42-.05.86,0,1.77.12,2.72.4l5.98,1.73s.52-2.54-1.06-6.43c-1.58-3.89-4.69-6.76-7.78-8.46-.11-.88-.2-1.75-.37-2.65-.68-3.63-2.05-7.12-3.99-10.35v-.02Z"/>
      <path class="st1" d="M1006.11,361.41c13.56,2.33,22.52,12.1,24.18,21.57.44,2.39.64,4.64.64,6.77-.04,9.91-4.25,17.22-11.36,22.43-1.85,1.34-3.94,1.96-6.14,1.96-5.36.06-10.97-4-12.63-9.25,4.66-4.63,8.01-10.62,9.38-17.65.14,0,.28-.05.42-.05.86,0,1.77.12,2.72.4l5.98,1.73s.52-2.54-1.06-6.43c-1.58-3.89-4.69-6.76-7.78-8.46-.11-.88-.2-1.75-.36-2.65-.68-3.63-2.05-7.12-3.99-10.35v-.02Z"/>
      <path class="st1" d="M963.79,239.23c17.02-.03,28.51,11.24,30.41,22.09.44,2.39.64,4.64.64,6.77-.04,9.91-4.25,17.22-11.36,22.43-1.85,1.34-3.95,1.95-6.13,1.95-5.51.06-11.3-4.2-12.79-9.65-.42-1.48-.62-2.96-.62-4.4.03-7.12,4.8-12.89,10.59-12.9.86,0,1.77.13,2.72.4l5.97,1.73-1.95-6.44c-1.16-3.89-3.8-6.77-6.88-8.46-3.11-1.71-6.68-2.42-10.39-2.43-1.21,0-2.44.08-3.67.23-2.68.39-5.63,1.56-8.71,3.4-2.15-3.82-5.08-7.29-8.7-10.16,4.64-1.85,9.11-3.05,13.15-3.82,2.69-.51,5.27-.74,7.73-.74h0Z"/>
      <path class="st1" d="M1310.18,362.96c17.02-.02,28.51,11.24,30.41,22.09.44,2.39.64,4.64.64,6.77-.04,9.91-4.25,17.22-11.36,22.43-1.85,1.34-3.95,1.95-6.13,1.95-5.51.06-11.3-4.2-12.79-9.65-.42-1.48-.62-2.96-.62-4.4.03-7.12,4.8-12.89,10.59-12.9.86,0,1.77.13,2.72.4l5.97,1.73-1.95-6.44c-1.16-3.89-3.8-6.77-6.88-8.46-3.11-1.71-6.68-2.42-10.39-2.43-1.21,0-2.44.08-3.67.23-2.68.39-5.63,1.56-8.71,3.4-2.15-3.82-5.08-7.29-8.7-10.16,4.64-1.85,9.11-3.05,13.15-3.82,2.69-.51,5.27-.74,7.73-.74h-.01Z"/>
      <path class="st0" d="M1653.06,370c.94,18.98,4.2,36.17,9.05,51.68v11.61c-6-20.52-9-41.93-9.05-63.29h0Z"/>
      <path class="st0" d="M1654.86,333.74c1.7,12.52,4.19,24.37,7.24,35.58v12.86c-3.84-14.59-6.42-30.68-7.24-48.43h0Z"/>
      <path class="st0" d="M980.21,479.91h0c3.31.55,6.67.99,10.06,1.31,12.23,8.36,29.04,17.18,52.65,27.44,28.36,12.35,63.51,24.6,101.53,32.77h-21.09c-30.52-7.86-58.6-18-82.08-28.23-32.77-14.3-50.32-24.62-61.06-33.3h-.01Z"/>
      <path class="st0" d="M1572.9,533.35c-70.49-28.05-115.45-13.33-151.76,8.08h-26.77c39.86-24.41,96.93-47.88,178.53-8.08Z"/>
      <path class="st0" d="M1152.42,507.22c-26.36-23.74-34.66-47.49-34.11-74.95.05-8.12,2.41-27.37,8.12-37.47-3.95,11.31-5.87,26.9-5.87,36.73.08,22.34,9.51,54.16,46.74,77.57,4.3.61,8.65,1.27,13.02,1.98-33.73-20.46-42.39-43.55-48.22-67.66-2-8.28-3.76-25.51-1.21-37.42-.61,12.07.85,26.3,3.55,35.99,5.81,20.6,18.12,49.32,59.57,71.48,31.43,5.9,63.67,14.87,92.16,27.97h-27.73c-75.13-31.43-156.78-35.89-200.18-37.07,17.74-1.86,51.51-2.27,94.17,2.85h-.01Z"/>
      <path class="st0" d="M1646.48,265.16c5.48,17.42,4.74,39.2-8.46,64.46-11.98,22.94-37.52,51.12-64.83,64.36,25.64-19.35,49.14-41.24,62.05-66.19,11.59-22.4,15.6-38.9,11.24-62.63h0Z"/>
      <path class="st0" d="M1261.11,506.81c21.6,13.16,48.53,14.82,78.3,9.92,11.58-15.47,14.8-26.65,15.9-37.9l3.8-4.17c-.21,11.72-2.68,23.58-13.96,41.06,3.73-.71,7.51-1.54,11.32-2.43,13.9-19.01,29.39-32.08,45.03-41.9,13.54-13,23.69-28.94,25.95-44.97l4.22-2.5c-2.07,14.66-6,26.98-14.59,38.67,7.22-3.68,14.36-6.85,21.3-9.76,7.52-21.57,10.92-44.85-2.66-79.22,9.61,15.22,18.87,43.17,8.84,76.66,7.67-3.15,14.98-6.1,21.78-9.2,1.09-9.31.41-23.93-3.07-34.87l3.74-2.17c4.14,10.49,5.79,24.75,5.39,34.14,6.38-3.2,12.2-6.67,17.19-10.79,32.51-26.88,36.16-65.02,30.65-87.58,8.26,25.57,1.86,67.23-30.65,94.11-12.4,10.26-29.18,16.2-47.28,23.46-25.13,10.07-53.06,22.88-76.07,53.48,14.02-3.73,28.45-8.46,43.1-13.82,12.06-4.41,26.03-7.79,41.11-9.93,17.66-19.6,52-37.2,84.06-53.27,9.74-21.03,14.19-43.01,13.03-64.87l5.09-1.73c.82,12.9.34,25.81-2.25,39.89,10.41-8.9,16.26-14.52,23.73-25.97,10.3-15.81,20.62-35.04,15.79-61.31,8.73,21.39.83,46.69-13.93,68.03-11.23,16.24-20.17,22.78-27.59,28.26-1.15,4.37-2.56,8.68-4.26,12.88,15.58-7.81,30.13-15.27,41.33-22.4,47.93-30.55,69.4-72.86,69.47-114.87,2.03,33-9.92,69.9-39.71,100.36,7.63,43.05,26.03,70.07,46.88,92.7v18.1c-21.8-24.52-42.53-58.32-48.53-109.14-7.67,7.61-16.45,14.81-26.45,21.41-35.35,23.33-85.13,42.09-116.76,69.9,52.17-3.4,112.89,7.67,155.21,41.31-63.53-42.16-159.38-42.77-216.23-22-56.85,20.78-110.62,32.69-148.24,9.78-26.65-16.23-33.44-45.21-35.67-68.43,2.23,23.22,9.02,44.87,35.67,61.1l.02-.02Z"/>
      <path class="st1" d="M701.69,256.73c0,7.2,5.32,13.03,11.89,13.03s11.89-5.84,11.89-13.03-5.33-13.03-11.89-13.03-11.89,5.84-11.89,13.03Z"/>
      <path class="st1" d="M1194.22,344.59c0,7.2,5.32,13.04,11.89,13.04s11.89-5.84,11.89-13.04-5.32-13.03-11.89-13.03-11.89,5.84-11.89,13.03Z"/>
      <path class="st1" d="M1294.36,344.59c0,7.2,5.32,13.04,11.89,13.04s11.89-5.84,11.89-13.04-5.32-13.03-11.89-13.03-11.89,5.84-11.89,13.03Z"/>
      <path class="st1" d="M545.52,305.72c0,7.2,5.32,13.04,11.89,13.04s11.89-5.84,11.89-13.04-5.32-13.03-11.89-13.03-11.89,5.83-11.89,13.03Z"/>
      <path class="st1" d="M278.65,277.16c0,7.2,5.32,13.04,11.88,13.04s11.89-5.84,11.89-13.04-5.32-13.03-11.89-13.03-11.88,5.83-11.88,13.03Z"/>
      <path class="st0" d="M108.59,315.77c0,7.2,5.33,13.03,11.89,13.03s11.89-5.84,11.89-13.03-5.32-13.03-11.89-13.03-11.89,5.83-11.89,13.03Z"/>
      <path class="st0" d="M175.97,295.68c0,5.16,3.82,9.35,8.53,9.35s8.53-4.19,8.53-9.35-3.82-9.35-8.53-9.35-8.53,4.18-8.53,9.35Z"/>
      <path class="st1" d="M292.22,317.16c0,5.16,3.82,9.35,8.53,9.35s8.52-4.19,8.52-9.35-3.82-9.35-8.52-9.35-8.53,4.18-8.53,9.35Z"/>
      <path class="st0" d="M190.72,404.57c0,5.16,3.82,9.35,8.53,9.35s8.52-4.19,8.52-9.35-3.81-9.35-8.52-9.35-8.53,4.18-8.53,9.35Z"/>
      <path class="st1" d="M665.54,276.66c0,5.16,3.82,9.35,8.53,9.35s8.52-4.19,8.52-9.35-3.81-9.35-8.52-9.35-8.53,4.18-8.53,9.35Z"/>
      <path class="st1" d="M367.49,311.9c0,5.16,3.82,9.35,8.53,9.35s8.52-4.19,8.52-9.35-3.81-9.35-8.52-9.35-8.53,4.18-8.53,9.35Z"/>
      <path class="st1" d="M584.47,262.86c0,5.16,3.82,9.35,8.53,9.35s8.53-4.19,8.53-9.35-3.82-9.35-8.53-9.35-8.53,4.18-8.53,9.35Z"/>
      <path class="st1" d="M1164.89,293.51c0,5.16,3.82,9.35,8.52,9.35s8.53-4.19,8.53-9.35-3.82-9.35-8.53-9.35-8.52,4.18-8.52,9.35Z"/>
      <path class="st1" d="M1375.39,305.77c0,5.16,3.82,9.35,8.52,9.35s8.53-4.19,8.53-9.35-3.82-9.35-8.53-9.35-8.52,4.18-8.52,9.35Z"/>
      <path class="st0" d="M824.02,528.4c-20.63-32.21-48.28-51.85-77.03-60.59-28.76-8.74-65.35-4.24-94.33,13.94,26.99-10.79,60.27-15.16,91.07-6.43,26.78,7.59,54.38,24.98,80.29,53.07h0Z"/>
      <path class="st0" d="M38.22,247.05c-24.74,25.55-30.79,55.31-28.08,96.42,1.53,23.19,7.75,43.7,16.14,60.7-1.03-8.26-1.36-21.83,3.34-33.17,4.72-11.4,13.55-20.45,27.93-17.41-14.1-.29-17.27,4.37-23.2,14.23-5.88,9.78-5.86,39.96,3.27,55.6,7.91,11.35,16.55,20.15,24.55,25.95-30.09-16.7-55.69-64.74-56.85-105.5-1.12-39.55,4.08-71.69,32.91-96.83h-.01Z"/>
      <path class="st0" d="M294.73,497.44c-17.1-9.61-40.61-18.54-57.7-14.87-17.32,3.72-32.64,6.6-52.33,7.05,23.05,2.91,43.38-.97,52.63-1.9,19.68-1.99,36.31,1.46,57.39,9.73h0Z"/>
      <path class="st0" d="M302.44,497.65c-8.91-6.11-21.19-17.43-28.7-20.77-8.92-3.97-23.4-5.5-37.06,1.53,10.87-7.94,26.76-12.53,37.34-7.64,7.84,3.62,14.22,14.05,28.42,26.88Z"/>
      <path class="st0" d="M120.76,354.67c-16.72,9.16-33.16,36.35-35.39,63.24s6.97,57.13,26.47,80.04c17.22,20.23,52.94,33,77.74,40.02-39.29-15.58-58.8-29.02-73.56-45.21-11.15-12.23-27.43-47.7-25.92-74.54,1.67-29.63,13.93-50.1,30.66-63.54h0Z"/>
      <path class="st0" d="M104.13,418.83c5.57,28.11,14.68,54.38,47.56,77.6,32.88,23.22,55.73,28.1,82.48,36.05-33.43-4.27-63.94-14.61-87.49-32.38-25.91-19.55-41.43-44.3-42.54-81.26h-.01Z"/>
      <path class="st0" d="M692.83,325.34c6.97,12.53,13.65,35.13,6.41,63.54-7.24,28.41-25.73,49.98-57.96,65.69-32.6,15.88-55.73,23.22-69.38,37.88,22.02-15.58,56.42-25.35,71.89-33.91,26.47-14.66,51.45-34.25,58.24-66.6,6.41-30.55.83-53.15-9.2-66.6h0Z"/>
      <path class="st0" d="M96,240.74c13.56,2.33,22.52,12.1,24.18,21.57.44,2.39.64,4.64.64,6.77-.04,9.91-4.25,17.22-11.36,22.43-1.85,1.34-3.95,1.96-6.14,1.96-5.36.06-10.97-4-12.63-9.25,4.66-4.63,8.02-10.62,9.38-17.65.14,0,.28-.05.42-.05.86,0,1.77.12,2.72.4l5.98,1.73s.52-2.54-1.06-6.43c-1.58-3.89-4.69-6.76-7.78-8.46-.11-.88-.2-1.75-.36-2.65-.68-3.63-2.05-7.12-3.99-10.35v-.02Z"/>
      <path class="st0" d="M133.03,239.23c17.02-.03,28.51,11.24,30.41,22.09.44,2.39.64,4.64.64,6.77-.05,9.91-4.25,17.22-11.36,22.43-1.85,1.34-3.94,1.95-6.13,1.95-5.51.06-11.3-4.2-12.79-9.65-.42-1.48-.62-2.96-.62-4.4.03-7.12,4.8-12.89,10.59-12.9.86,0,1.77.13,2.72.4l5.98,1.73-1.96-6.44c-1.16-3.89-3.79-6.77-6.88-8.46-3.11-1.71-6.68-2.42-10.39-2.43-1.21,0-2.44.08-3.67.23-2.68.39-5.63,1.56-8.71,3.4-2.15-3.82-5.08-7.29-8.7-10.16,4.64-1.85,9.11-3.05,13.15-3.82,2.69-.51,5.27-.74,7.73-.74h0Z"/>
      <path class="st0" d="M830.87,502.9c-22.46-25.25-43.36-60.31-48.61-113.73l1.33-2.1c7.04,46.03,25.62,74.23,47.28,97.73,3.15,3.42,6.35,6.74,9.59,10,19.87,20.03,37.18,34.71,56.94,46.63h-26.01c-10.09-8.15-20.13-17.45-30.93-28.34-3.19-3.21-6.4-6.62-9.59-10.2h0Z"/>
      <path class="st0" d="M830.87,433.3c-6-20.52-8.53-41.93-8.58-63.29.94,18.98,3.73,36.17,8.58,51.68,11.3,36.14,31.25,63.04,50.83,81.68,16.34,15.55,30.38,27.83,44.83,38.08h-20.36c-9.75-8.18-19.54-17.27-29.25-27.32-22.15-22.94-37.31-50.91-46.05-80.82h0Z"/>
      <path class="st0" d="M830.87,382.18c-3.84-14.59-5.95-30.68-6.77-48.43,1.7,12.52,3.72,24.37,6.77,35.58,12.19,44.7,33.87,78.81,55.48,100.62,9.68,9.75,18.73,18.2,27.73,25.69-5.14-17.46-6.1-33.05-7.27-49.22,1.06.82,2.15,1.63,3.25,2.44,2.54,17.62,4.63,34.52,12.31,53.4,21.98,16.83,44.79,28.42,77.11,39.18h-14.62c-42.08-15.67-68.43-34.5-101.52-67.9-20.36-20.51-41.53-49.84-52.45-91.36h-.02Z"/>
      <path class="st0" d="M46.15,514.11C24,491.18,8.84,463.2.11,433.3v-11.61c11.29,36.14,31.25,63.04,50.83,81.68,16.34,15.55,30.38,27.83,44.83,38.08h-20.36c-9.75-8.18-19.54-17.27-29.25-27.32v-.02Z"/>
      <path class="st0" d="M.11,502.9v-18.1c3.15,3.42,6.35,6.74,9.59,10,19.87,20.03,37.18,34.71,56.94,46.63h-26.01c-10.09-8.15-20.13-17.45-30.93-28.34-3.19-3.21-6.4-6.62-9.59-10.2h0Z"/>
      <path class="st0" d="M149.44,479.91h0c3.31.55,6.67.99,10.06,1.31,12.22,8.36,29.04,17.18,52.65,27.44,28.36,12.35,63.52,24.6,101.53,32.77h-21.09c-30.52-7.86-58.6-18-82.08-28.23-32.77-14.3-50.32-24.62-61.06-33.3h0Z"/>
      <path class="st0" d="M742.13,533.35c-70.49-28.05-115.45-13.33-151.76,8.08h-26.77c39.86-24.41,96.94-47.88,178.53-8.08Z"/>
      <path class="st0" d="M.11,382.18v-12.86c12.18,44.7,33.86,78.81,55.47,100.62,9.68,9.75,18.73,18.2,27.73,25.69-5.14-17.46-6.1-33.05-7.27-49.22,1.06.82,2.15,1.63,3.25,2.44,2.54,17.62,4.63,34.52,12.31,53.4,21.98,16.83,44.79,28.42,77.11,39.18h-14.62c-42.08-15.67-68.43-34.5-101.52-67.9C32.2,453.02,11.03,423.7.11,382.18Z"/>
      <path class="st0" d="M321.65,507.22c-26.36-23.74-34.67-47.49-34.12-74.95.05-8.12,2.41-27.37,8.13-37.47-3.95,11.31-5.88,26.9-5.88,36.73.08,22.34,9.51,54.16,46.74,77.57,4.3.61,8.65,1.27,13.02,1.98-33.73-20.46-42.39-43.55-48.22-67.66-2-8.28-3.76-25.51-1.2-37.42-.61,12.07.84,26.3,3.54,35.99,5.81,20.6,18.12,49.32,59.57,71.48,31.43,5.9,63.67,14.87,92.16,27.97h-27.73c-75.13-31.43-156.77-35.89-200.18-37.07,17.74-1.86,51.51-2.27,94.17,2.85h0Z"/>
      <path class="st0" d="M430.34,506.81c21.6,13.16,48.53,14.82,78.3,9.92,11.58-15.47,14.8-26.65,15.9-37.9l3.81-4.17c-.22,11.72-2.68,23.58-13.96,41.06,3.73-.71,7.51-1.54,11.32-2.43,13.9-19.01,29.39-32.08,45.03-41.9,13.54-13,23.69-28.94,25.95-44.97l4.22-2.5c-2.07,14.66-6,26.98-14.58,38.67,7.22-3.68,14.37-6.85,21.3-9.76,7.52-21.57,10.92-44.85-2.66-79.22,9.61,15.22,18.87,43.17,8.84,76.66,7.68-3.15,14.98-6.1,21.78-9.2,1.08-9.31.41-23.93-3.07-34.87l3.74-2.17c4.14,10.49,5.8,24.75,5.39,34.14,6.38-3.2,12.2-6.67,17.19-10.79,32.51-26.88,36.16-65.02,30.65-87.58,8.26,25.57,1.86,67.23-30.65,94.11-12.4,10.26-29.18,16.2-47.28,23.46-25.13,10.07-53.07,22.88-76.07,53.48,14.02-3.73,28.45-8.46,43.1-13.82,12.07-4.41,26.03-7.79,41.11-9.93,17.66-19.6,52-37.2,84.06-53.27,9.74-21.03,14.19-43.01,13.03-64.87l5.09-1.73c.81,12.9.34,25.81-2.25,39.89,10.42-8.9,16.26-14.52,23.73-25.97,10.31-15.81,20.62-35.04,15.79-61.31,8.73,21.39.83,46.69-13.93,68.03-11.22,16.24-20.17,22.78-27.59,28.26-1.15,4.37-2.55,8.68-4.25,12.88,15.58-7.81,30.13-15.27,41.32-22.4,47.93-30.55,52.9-61.25,69.25-103.65-10.98,40.1-17.14,78.91-67.57,112.21-35.35,23.33-85.13,42.09-116.76,69.9,52.16-3.4,112.89,7.67,155.21,41.31-63.53-42.16-159.38-42.77-216.23-22-56.84,20.78-110.62,32.69-148.24,9.78-26.65-16.23-33.44-45.21-35.67-68.43,2.23,23.22,9.02,44.87,35.67,61.1l-.02-.02Z"/>
    </g>
    <g>
      <path class="st1" d="M1662.11,541.44V245.32c3.81,3.7,6.18,6.74,8.98,11.53,14.18-19.6,32.22-26.74,45.64-29.26,22.66-4.28,39.28,9.42,41.99,24.23,2.7,14.82-2.61,26.07-12.16,32.98-8.55,6.18-21.03.49-23.95-9.66-3.53-12.25,5.43-24.77,16.72-21.55-2.03-6.68-9.49-9.16-17.39-8.17-10.54,1.32-32.97,21.38-37.89,52.43-2.77,17.48-3.88,40.67,1.28,64.98,4.74-7.24,10.43-12.34,16.2-15.3,19.71-10.12,33.51-1.61,38.99,9.76,5.46,11.36,2.9,21.94-2.08,29-5.32,7.55-17.03,5.95-21.65-1.54-5.57-9.05-1.03-21.63,8.89-21.99-3.13-4.91-9.75-4.96-15.98-2.06-8.3,3.86-16.34,18.91-10.79,37.98.38,1.31.78,2.69,1.2,4.1,9.13,16.5,22.37,32.34,41.2,46.08-5-56.74,16.21-90.61,38.31-101.97,27.35-14.06,46.53-2.24,54.12,13.54s4.03,30.46-2.88,40.26c-7.39,10.49-23.65,8.27-30.06-2.14-7.74-12.57-1.43-30.03,12.34-30.53-4.34-6.82-13.54-6.89-22.18-2.86-11.52,5.36-22.67,26.25-14.97,52.72,5.21,17.89,12.03,43.37,35.39,62.02,35.11,5.87,75.85-1.57,90.84-12.52,17.84-13.04,29.43-25.49,39.27-59.24,7.28-24.96,20.47-41.17,34.39-48.32,27.36-14.05,46.53-2.23,54.12,13.54,7.58,15.78,4.02,30.45-2.88,40.26-7.39,10.49-23.65,8.27-30.06-2.13-7.74-12.57-1.43-30.02,12.34-30.53-4.34-6.82-13.55-6.88-22.18-2.86-11.52,5.36-22.67,26.26-14.98,52.72,6.84,23.49,16.59,58.77,62.7,76.39-16.63-77.75,9.08-123.24,36.02-137.09,28.93-14.86,49.2-2.36,57.22,14.32s4.25,32.2-3.05,42.57c-7.81,11.09-25,8.74-31.78-2.26-8.19-13.29-1.51-31.74,13.05-32.27-4.59-7.21-14.32-7.28-23.46-3.03-12.18,5.67-22.88,27.9-15.83,55.74,6.63,26.16,18.73,43.03,37.53,51.86,19.51,9.16,45.57,1.39,53.47-6.76,13.28-13.72,14.27-30.44,9.07-38.52-3.9-6.06-9.55-9.84-14.57-7.47,8.26,6.04,6.08,19.35-3,23.83-7.53,3.71-18.25-1.69-19.15-11.19-.84-8.88,2.06-19.35,12.16-25.86,10.11-6.51,25.94-5.78,37.82,14.21,4.87,8.19,7.6,19.82,6.15,33.55,3.34-2.94,6.86-5.97,10.56-9.09,17.77-14.94,40.5-30.74,65.8-45.82.5-6.02.56-11.63.66-16.6.45-23.53-13.19-37.57-23.73-38.89-7.9-.99-15.36,1.48-17.39,8.17,11.3-3.22,20.25,9.3,16.72,21.55-2.93,10.14-15.65,16.24-23.96,9.66-7.76-6.15-13.87-17.13-11.17-31.95,2.71-14.82,15.69-29.48,41-25.27,17.8,2.96,38.8,19.96,49.47,55.6,7.41-3.91,14.93-7.7,22.53-11.37,21.65-16.42,27.34-33.22,27.62-47.93.36-18.82-10.55-30.04-18.97-31.09-6.32-.79-12.29,1.19-13.91,6.53,9.03-2.57,16.19,7.43,13.36,17.23-2.33,8.11-12.51,12.98-19.15,7.72-6.21-4.91-11.09-13.7-8.93-25.54,2.16-11.85,12.55-23.57,32.78-20.21,18.25,3.04,44.72,20.11,48.93,67.41,2.61-.92,5.21-1.82,7.81-2.68,8.29-2.76,15.83-5.78,22.68-9,5.93-8.22,7.83-16.28,7.98-23.66.28-14.47-8.1-23.1-14.58-23.91-4.87-.61-9.45.91-10.7,5.02,6.95-1.98,12.45,5.72,10.28,13.25-1.79,6.23-9.61,9.98-14.72,5.94-4.77-3.78-8.53-10.54-6.87-19.65s9.65-18.12,25.21-15.54c12.04,2,26.45,14.47,32.18,41.12,10.78-8.44,17.6-18.39,22.58-27.25,9.12-16.22,20.1-41.24,37.93-59.07,18.22-18.22,35.52-23.44,48.93-25.97,22.66-4.28,39.28,9.42,41.98,24.23,2.7,14.82-2.6,26.07-12.16,32.98-8.54,6.18-21.02.49-23.95-9.66-3.53-12.25,5.42-24.77,16.72-21.55-2.03-6.68-9.49-9.16-17.39-8.17-10.54,1.32-32.97,21.38-37.89,52.43-2.77,17.48-3.88,40.67,1.28,64.98,4.74-7.24,10.43-12.34,16.2-15.3,19.71-10.12,33.52-1.61,38.99,9.76,5.46,11.36,2.89,21.94-2.08,29-5.32,7.55-17.03,5.95-21.65-1.54-5.58-9.05-1.03-21.63,8.89-21.99-3.12-4.91-9.75-4.96-15.98-2.06-8.3,3.86-16.33,18.91-10.79,37.98.38,1.31.78,2.69,1.2,4.1,9.13,16.5,22.38,32.34,41.2,46.08-5-56.74,16.22-90.61,38.31-101.97,27.35-14.06,46.53-2.24,54.12,13.54s4.02,30.46-2.89,40.26c-7.39,10.49-23.65,8.27-30.06-2.14-7.73-12.57-1.42-30.03,12.34-30.53-4.34-6.82-13.54-6.89-22.19-2.86-11.52,5.36-22.66,26.25-14.97,52.72,5.21,17.89,12.03,43.37,35.39,62.02,35.11,5.87,75.86-1.57,90.84-12.52,17.83-13.04,29.43-25.49,39.27-59.24,7.28-24.96,20.47-41.17,34.39-48.32,27.36-14.05,46.53-2.23,54.11,13.54,7.59,15.78,4.02,30.45-2.88,40.26-7.4,10.49-23.65,8.27-30.06-2.13-7.74-12.57-1.43-30.02,12.34-30.53-4.34-6.82-13.55-6.88-22.19-2.86-11.52,5.36-22.67,26.26-14.97,52.72,6.84,23.49,16.59,58.77,62.7,76.39-16.63-77.75,9.08-123.24,36.02-137.09,28.93-14.86,49.2-2.36,57.22,14.32s4.25,32.2-3.05,42.57c-7.81,11.09-25,8.74-31.78-2.26-8.19-13.29-1.51-31.74,13.05-32.27-4.59-7.21-14.32-7.28-23.46-3.03-12.18,5.67-22.88,27.9-15.83,55.74,6.63,26.16,18.73,43.03,37.53,51.86,19.5,9.16,45.57,1.39,53.46-6.76,13.29-13.72,14.28-30.44,9.07-38.52-3.9-6.06-9.56-9.84-14.58-7.47,8.26,6.04,6.08,19.35-3,23.83-7.53,3.71-18.25-1.69-19.15-11.19-.84-8.88,2.06-19.35,12.16-25.86,10.11-6.51,25.94-5.78,37.83,14.21,4.87,8.19,7.59,19.82,6.15,33.55,3.34-2.94,6.85-5.97,10.56-9.09,17.77-14.94,40.5-30.74,65.8-45.82.49-6.02.56-11.63.65-16.6.45-23.53-13.19-37.57-23.73-38.89-7.9-.99-15.36,1.48-17.39,8.17,11.3-3.22,20.25,9.3,16.72,21.55-2.93,10.14-15.65,16.24-23.96,9.66-7.76-6.15-13.87-17.13-11.17-31.95,2.71-14.82,15.69-29.48,41-25.27,17.8,2.96,38.8,19.96,49.47,55.6,7.4-3.91,14.94-7.7,22.53-11.37,21.66-16.42,27.34-33.22,27.62-47.93.36-18.82-10.54-30.04-18.97-31.09-6.32-.79-12.28,1.19-13.91,6.53,9.03-2.57,16.19,7.43,13.36,17.23-2.33,8.11-12.51,12.98-19.15,7.72-6.21-4.91-11.09-13.7-8.93-25.54,2.16-11.85,12.55-23.57,32.78-20.21,18.24,3.04,44.72,20.11,48.93,67.41,2.61-.92,5.21-1.82,7.81-2.68,8.29-2.76,15.83-5.78,22.68-9,5.93-8.22,7.84-16.28,7.98-23.66.28-14.47-8.11-23.1-14.59-23.91-4.86-.61-9.45.91-10.7,5.02,6.95-1.98,12.45,5.72,10.28,13.25-1.8,6.23-9.62,9.98-14.72,5.94-4.77-3.78-8.53-10.54-6.87-19.65s9.65-18.12,25.21-15.54c12.04,2,26.45,14.47,32.18,41.12,25.19-19.71,33.55-42.07,33.84-57.71.38-21.06-14.26-32.64-28.08-33.19-8.3-.34-15.6,4.07-15.6,13.85,7.43-2.44,16.63,5.8,13.72,15.9-2.41,8.37-11.98,11.78-18.83,6.36-6.41-5.07-11.98-14.93-9.75-27.15s11.89-30.96,34.18-30.96c19.32,0,30.53,4.18,45.81,18.35v296.12h-1662l.02.07Z"/>
      <ellipse class="st1" cx="3192.84" cy="240.01" rx="11.89" ry="13.03"/>
      <path class="st1" d="M3021.94,262.81c0,7.2,5.32,13.04,11.89,13.04s11.89-5.84,11.89-13.04-5.32-13.03-11.89-13.03-11.89,5.83-11.89,13.03Z"/>
      <path class="st1" d="M2601.36,315.77c0,7.2,5.32,13.03,11.89,13.03s11.89-5.84,11.89-13.03-5.32-13.03-11.89-13.03-11.89,5.83-11.89,13.03Z"/>
      <path class="st1" d="M2668.74,295.68c0,5.16,3.82,9.35,8.53,9.35s8.52-4.19,8.52-9.35-3.82-9.35-8.52-9.35-8.53,4.18-8.53,9.35Z"/>
      <path class="st1" d="M2705.23,382.83c0,5.16,3.82,9.35,8.53,9.35s8.52-4.19,8.52-9.35-3.82-9.35-8.52-9.35-8.53,4.18-8.53,9.35Z"/>
      <path class="st1" d="M3158.31,276.66c0,5.16,3.82,9.35,8.53,9.35s8.52-4.19,8.52-9.35-3.82-9.35-8.52-9.35-8.53,4.18-8.53,9.35Z"/>
      <path class="st1" d="M3060.97,241.63c0,5.16,3.82,9.35,8.52,9.35s8.53-4.19,8.53-9.35-3.82-9.35-8.53-9.35-8.52,4.18-8.52,9.35Z"/>
      <path class="st0" d="M3316.79,528.4c-20.63-32.21-48.28-51.85-77.03-60.59-28.76-8.74-65.35-4.24-94.33,13.94,26.98-10.79,60.27-15.16,91.07-6.43,26.78,7.59,54.38,24.98,80.3,53.07h-.01Z"/>
      <path class="st0" d="M2530.99,247.05c-24.74,25.55-30.79,55.31-28.08,96.42,1.53,23.19,7.76,43.7,16.14,60.7-1.03-8.26-1.36-21.83,3.33-33.17,4.72-11.4,13.55-20.45,27.93-17.41-14.1-.29-17.28,4.37-23.21,14.23-5.88,9.78-5.85,39.96,3.27,55.6,7.91,11.35,16.55,20.15,24.55,25.95-30.09-16.7-55.69-64.74-56.85-105.5-1.12-39.55,4.08-71.69,32.91-96.83h.01Z"/>
      <path class="st0" d="M2787.5,497.44c-17.1-9.61-40.61-18.54-57.7-14.87-17.32,3.72-32.64,6.6-52.33,7.05,23.05,2.91,43.37-.97,52.63-1.9,19.68-1.99,36.31,1.46,57.39,9.73h.01Z"/>
      <path class="st0" d="M2795.21,497.65c-8.91-6.11-21.19-17.43-28.7-20.77-8.92-3.97-23.41-5.5-37.06,1.53,10.87-7.94,26.75-12.53,37.34-7.64,7.84,3.62,14.21,14.05,28.42,26.88Z"/>
      <path class="st0" d="M2613.53,354.67c-16.72,9.16-33.16,36.35-35.39,63.24s6.97,57.13,26.47,80.04c17.22,20.23,52.94,33,77.74,40.02-39.29-15.58-58.8-29.02-73.56-45.21-11.15-12.23-27.43-47.7-25.92-74.54,1.67-29.63,13.93-50.1,30.66-63.54h0Z"/>
      <path class="st0" d="M2596.9,418.83c5.57,28.11,14.68,54.38,47.56,77.6,32.88,23.22,55.73,28.1,82.48,36.05-33.44-4.27-63.94-14.61-87.5-32.38-25.91-19.55-41.43-44.3-42.54-81.26h0Z"/>
      <path class="st0" d="M3185.6,325.34c6.97,12.53,13.65,35.13,6.41,63.54-7.25,28.41-25.73,49.98-57.96,65.69-32.6,15.88-55.73,23.22-69.38,37.88,22.01-15.58,56.43-25.35,71.89-33.91,26.47-14.66,51.45-34.25,58.24-66.6,6.41-30.55.83-53.15-9.2-66.6Z"/>
      <path class="st1" d="M2588.76,240.74c13.56,2.33,22.52,12.1,24.18,21.57.44,2.39.64,4.64.64,6.77-.04,9.91-4.25,17.22-11.36,22.43-1.86,1.34-3.94,1.96-6.14,1.96-5.36.06-10.97-4-12.63-9.25,4.66-4.63,8.01-10.62,9.38-17.65.14,0,.28-.05.42-.05.86,0,1.77.12,2.72.4l5.98,1.73s.52-2.54-1.06-6.43c-1.58-3.89-4.69-6.76-7.78-8.46-.11-.88-.2-1.75-.37-2.65-.68-3.63-2.05-7.12-3.99-10.35v-.02Z"/>
      <path class="st1" d="M2668.11,361.41c13.56,2.33,22.52,12.1,24.18,21.57.44,2.39.64,4.64.64,6.77-.04,9.91-4.25,17.22-11.36,22.43-1.85,1.34-3.94,1.96-6.14,1.96-5.36.06-10.97-4-12.63-9.25,4.66-4.63,8.01-10.62,9.38-17.65.14,0,.28-.05.42-.05.86,0,1.77.12,2.72.4l5.98,1.73s.52-2.54-1.06-6.43c-1.58-3.89-4.69-6.76-7.78-8.46-.11-.88-.2-1.75-.36-2.65-.68-3.63-2.05-7.12-3.99-10.35v-.02Z"/>
      <path class="st1" d="M2625.79,239.23c17.02-.03,28.51,11.24,30.41,22.09.44,2.39.64,4.64.64,6.77-.04,9.91-4.25,17.22-11.36,22.43-1.85,1.34-3.95,1.95-6.13,1.95-5.51.06-11.3-4.2-12.79-9.65-.42-1.48-.62-2.96-.62-4.4.03-7.12,4.8-12.89,10.59-12.9.86,0,1.77.13,2.72.4l5.97,1.73-1.95-6.44c-1.16-3.89-3.8-6.77-6.88-8.46-3.11-1.71-6.68-2.42-10.39-2.43-1.21,0-2.44.08-3.67.23-2.68.39-5.63,1.56-8.71,3.4-2.15-3.82-5.08-7.29-8.7-10.16,4.64-1.85,9.11-3.05,13.15-3.82,2.69-.51,5.27-.74,7.73-.74h-.01Z"/>
      <path class="st1" d="M2972.18,362.96c17.02-.02,28.51,11.24,30.41,22.09.44,2.39.64,4.64.64,6.77-.04,9.91-4.25,17.22-11.36,22.43-1.85,1.34-3.95,1.95-6.13,1.95-5.51.06-11.3-4.2-12.79-9.65-.42-1.48-.62-2.96-.62-4.4.03-7.12,4.8-12.89,10.59-12.9.86,0,1.77.13,2.72.4l5.97,1.73-1.95-6.44c-1.16-3.89-3.8-6.77-6.88-8.46-3.11-1.71-6.68-2.42-10.39-2.43-1.21,0-2.44.08-3.67.23-2.68.39-5.63,1.56-8.71,3.4-2.15-3.82-5.08-7.29-8.7-10.16,4.64-1.85,9.11-3.05,13.15-3.82,2.69-.51,5.27-.74,7.73-.74h-.01Z"/>
      <path class="st0" d="M3315.06,370c.94,18.98,4.2,36.17,9.05,51.68v11.61c-6-20.52-9-41.93-9.05-63.29h0Z"/>
      <path class="st0" d="M3316.86,333.74c1.7,12.52,4.19,24.37,7.24,35.58v12.86c-3.84-14.59-6.42-30.68-7.24-48.43h0Z"/>
      <path class="st0" d="M2642.21,479.91h0c3.31.55,6.67.99,10.06,1.31,12.23,8.36,29.04,17.18,52.65,27.44,28.36,12.35,63.51,24.6,101.53,32.77h-21.09c-30.52-7.86-58.6-18-82.08-28.23-32.77-14.3-50.32-24.62-61.06-33.3h0Z"/>
      <path class="st0" d="M3234.9,533.35c-70.49-28.05-115.45-13.33-151.76,8.08h-26.77c39.86-24.41,96.93-47.88,178.53-8.08Z"/>
      <path class="st0" d="M2814.42,507.22c-26.36-23.74-34.66-47.49-34.11-74.95.05-8.12,2.41-27.37,8.12-37.47-3.95,11.31-5.87,26.9-5.87,36.73.08,22.34,9.51,54.16,46.74,77.57,4.3.61,8.65,1.27,13.02,1.98-33.73-20.46-42.39-43.55-48.22-67.66-2-8.28-3.76-25.51-1.21-37.42-.61,12.07.85,26.3,3.55,35.99,5.81,20.6,18.12,49.32,59.57,71.48,31.43,5.9,63.67,14.87,92.16,27.97h-27.73c-75.13-31.43-156.78-35.89-200.18-37.07,17.74-1.86,51.51-2.27,94.17,2.85h-.01Z"/>
      <path class="st0" d="M3308.48,265.16c5.48,17.42,4.74,39.2-8.46,64.46-11.98,22.94-37.52,51.12-64.83,64.36,25.64-19.35,49.14-41.24,62.05-66.19,11.59-22.4,15.6-38.9,11.24-62.63h0Z"/>
      <path class="st0" d="M2923.11,506.81c21.6,13.16,48.53,14.82,78.3,9.92,11.58-15.47,14.8-26.65,15.9-37.9l3.8-4.17c-.21,11.72-2.68,23.58-13.96,41.06,3.73-.71,7.51-1.54,11.32-2.43,13.9-19.01,29.39-32.08,45.03-41.9,13.54-13,23.69-28.94,25.95-44.97l4.22-2.5c-2.07,14.66-6,26.98-14.59,38.67,7.22-3.68,14.36-6.85,21.3-9.76,7.52-21.57,10.92-44.85-2.66-79.22,9.61,15.22,18.87,43.17,8.84,76.66,7.67-3.15,14.98-6.1,21.78-9.2,1.09-9.31.41-23.93-3.07-34.87l3.74-2.17c4.14,10.49,5.79,24.75,5.39,34.14,6.38-3.2,12.2-6.67,17.19-10.79,32.51-26.88,36.16-65.02,30.65-87.58,8.26,25.57,1.86,67.23-30.65,94.11-12.4,10.26-29.18,16.2-47.28,23.46-25.13,10.07-53.06,22.88-76.07,53.48,14.02-3.73,28.45-8.46,43.1-13.82,12.06-4.41,26.03-7.79,41.11-9.93,17.66-19.6,52-37.2,84.06-53.27,9.74-21.03,14.19-43.01,13.03-64.87l5.09-1.73c.82,12.9.34,25.81-2.25,39.89,10.41-8.9,16.26-14.52,23.73-25.97,10.3-15.81,20.62-35.04,15.79-61.31,8.73,21.39.83,46.69-13.93,68.03-11.23,16.24-20.17,22.78-27.59,28.26-1.15,4.37-2.56,8.68-4.26,12.88,15.58-7.81,30.13-15.27,41.33-22.4,47.93-30.55,69.4-72.86,69.47-114.87,2.03,33-9.92,69.9-39.71,100.36,7.63,43.05,26.03,70.07,46.88,92.7v18.1c-21.8-24.52-42.53-58.32-48.53-109.14-7.67,7.61-16.45,14.81-26.45,21.41-35.35,23.33-85.13,42.09-116.76,69.9,52.17-3.4,112.89,7.67,155.21,41.31-63.53-42.16-159.38-42.77-216.23-22-56.85,20.78-110.62,32.69-148.24,9.78-26.65-16.23-33.44-45.21-35.67-68.43,2.23,23.22,9.02,44.87,35.67,61.1l.02-.02Z"/>
      <path class="st1" d="M2363.69,256.73c0,7.2,5.32,13.03,11.89,13.03s11.89-5.84,11.89-13.03-5.33-13.03-11.89-13.03-11.89,5.84-11.89,13.03Z"/>
      <path class="st1" d="M2856.22,344.59c0,7.2,5.32,13.04,11.89,13.04s11.89-5.84,11.89-13.04-5.32-13.03-11.89-13.03-11.89,5.84-11.89,13.03Z"/>
      <path class="st1" d="M2956.36,344.59c0,7.2,5.32,13.04,11.89,13.04s11.89-5.84,11.89-13.04-5.32-13.03-11.89-13.03-11.89,5.84-11.89,13.03Z"/>
      <path class="st1" d="M2207.52,305.72c0,7.2,5.32,13.04,11.89,13.04s11.89-5.84,11.89-13.04-5.32-13.03-11.89-13.03-11.89,5.83-11.89,13.03Z"/>
      <path class="st1" d="M1940.65,277.16c0,7.2,5.32,13.04,11.88,13.04s11.89-5.84,11.89-13.04-5.32-13.03-11.89-13.03-11.88,5.83-11.88,13.03Z"/>
      <path class="st0" d="M1770.59,315.77c0,7.2,5.33,13.03,11.89,13.03s11.89-5.84,11.89-13.03-5.32-13.03-11.89-13.03-11.89,5.83-11.89,13.03Z"/>
      <path class="st0" d="M1837.97,295.68c0,5.16,3.82,9.35,8.53,9.35s8.53-4.19,8.53-9.35-3.82-9.35-8.53-9.35-8.53,4.18-8.53,9.35Z"/>
      <path class="st1" d="M1954.22,317.16c0,5.16,3.82,9.35,8.53,9.35s8.52-4.19,8.52-9.35-3.82-9.35-8.52-9.35-8.53,4.18-8.53,9.35Z"/>
      <path class="st0" d="M1852.72,404.57c0,5.16,3.82,9.35,8.53,9.35s8.52-4.19,8.52-9.35-3.81-9.35-8.52-9.35-8.53,4.18-8.53,9.35Z"/>
      <path class="st1" d="M2327.54,276.66c0,5.16,3.82,9.35,8.53,9.35s8.52-4.19,8.52-9.35-3.81-9.35-8.52-9.35-8.53,4.18-8.53,9.35Z"/>
      <path class="st1" d="M2029.49,311.9c0,5.16,3.82,9.35,8.53,9.35s8.52-4.19,8.52-9.35-3.81-9.35-8.52-9.35-8.53,4.18-8.53,9.35Z"/>
      <path class="st1" d="M2246.47,262.86c0,5.16,3.82,9.35,8.53,9.35s8.53-4.19,8.53-9.35-3.82-9.35-8.53-9.35-8.53,4.18-8.53,9.35Z"/>
      <path class="st1" d="M2826.89,293.51c0,5.16,3.82,9.35,8.52,9.35s8.53-4.19,8.53-9.35-3.82-9.35-8.53-9.35-8.52,4.18-8.52,9.35Z"/>
      <path class="st1" d="M3037.39,305.77c0,5.16,3.82,9.35,8.52,9.35s8.53-4.19,8.53-9.35-3.82-9.35-8.53-9.35-8.52,4.18-8.52,9.35Z"/>
      <path class="st0" d="M2486.02,528.4c-20.63-32.21-48.28-51.85-77.03-60.59-28.76-8.74-65.35-4.24-94.33,13.94,26.99-10.79,60.27-15.16,91.07-6.43,26.78,7.59,54.38,24.98,80.29,53.07h0Z"/>
      <path class="st0" d="M1700.22,247.05c-24.74,25.55-30.79,55.31-28.08,96.42,1.53,23.19,7.75,43.7,16.14,60.7-1.03-8.26-1.36-21.83,3.34-33.17,4.72-11.4,13.55-20.45,27.93-17.41-14.1-.29-17.27,4.37-23.2,14.23-5.88,9.78-5.86,39.96,3.27,55.6,7.91,11.35,16.55,20.15,24.55,25.95-30.09-16.7-55.69-64.74-56.85-105.5-1.12-39.55,4.08-71.69,32.91-96.83h-.01Z"/>
      <path class="st0" d="M1956.73,497.44c-17.1-9.61-40.61-18.54-57.7-14.87-17.32,3.72-32.64,6.6-52.33,7.05,23.05,2.91,43.38-.97,52.63-1.9,19.68-1.99,36.31,1.46,57.39,9.73h0Z"/>
      <path class="st0" d="M1964.44,497.65c-8.91-6.11-21.19-17.43-28.7-20.77-8.92-3.97-23.4-5.5-37.06,1.53,10.87-7.94,26.76-12.53,37.34-7.64,7.84,3.62,14.22,14.05,28.42,26.88Z"/>
      <path class="st0" d="M1782.76,354.67c-16.72,9.16-33.16,36.35-35.39,63.24s6.97,57.13,26.47,80.04c17.22,20.23,52.94,33,77.74,40.02-39.29-15.58-58.8-29.02-73.56-45.21-11.15-12.23-27.43-47.7-25.92-74.54,1.67-29.63,13.93-50.1,30.66-63.54h0Z"/>
      <path class="st0" d="M1766.13,418.83c5.57,28.11,14.68,54.38,47.56,77.6,32.88,23.22,55.73,28.1,82.48,36.05-33.43-4.27-63.94-14.61-87.49-32.38-25.91-19.55-41.43-44.3-42.54-81.26h-.01Z"/>
      <path class="st0" d="M2354.83,325.34c6.97,12.53,13.65,35.13,6.41,63.54s-25.73,49.98-57.96,65.69c-32.6,15.88-55.73,23.22-69.38,37.88,22.02-15.58,56.42-25.35,71.89-33.91,26.47-14.66,51.45-34.25,58.24-66.6,6.41-30.55.83-53.15-9.2-66.6Z"/>
      <path class="st0" d="M1758,240.74c13.56,2.33,22.52,12.1,24.18,21.57.44,2.39.64,4.64.64,6.77-.04,9.91-4.25,17.22-11.36,22.43-1.85,1.34-3.95,1.96-6.14,1.96-5.36.06-10.97-4-12.63-9.25,4.66-4.63,8.02-10.62,9.38-17.65.14,0,.28-.05.42-.05.86,0,1.77.12,2.72.4l5.98,1.73s.52-2.54-1.06-6.43c-1.58-3.89-4.69-6.76-7.78-8.46-.11-.88-.2-1.75-.36-2.65-.68-3.63-2.05-7.12-3.99-10.35v-.02Z"/>
      <path class="st0" d="M1795.03,239.23c17.02-.03,28.51,11.24,30.41,22.09.44,2.39.64,4.64.64,6.77-.05,9.91-4.25,17.22-11.36,22.43-1.85,1.34-3.94,1.95-6.13,1.95-5.51.06-11.3-4.2-12.79-9.65-.42-1.48-.62-2.96-.62-4.4.03-7.12,4.8-12.89,10.59-12.9.86,0,1.77.13,2.72.4l5.98,1.73-1.96-6.44c-1.16-3.89-3.79-6.77-6.88-8.46-3.11-1.71-6.68-2.42-10.39-2.43-1.21,0-2.44.08-3.67.23-2.68.39-5.63,1.56-8.71,3.4-2.15-3.82-5.08-7.29-8.7-10.16,4.64-1.85,9.11-3.05,13.15-3.82,2.69-.51,5.27-.74,7.73-.74h-.01Z"/>
      <path class="st0" d="M2492.87,502.9c-22.46-25.25-43.36-60.31-48.61-113.73l1.33-2.1c7.04,46.03,25.62,74.23,47.28,97.73,3.15,3.42,6.35,6.74,9.59,10,19.87,20.03,37.18,34.71,56.94,46.63h-26.01c-10.09-8.15-20.13-17.45-30.93-28.34-3.19-3.21-6.4-6.62-9.59-10.2h0Z"/>
      <path class="st0" d="M2492.87,433.3c-6-20.52-8.53-41.93-8.58-63.29.94,18.98,3.73,36.17,8.58,51.68,11.3,36.14,31.25,63.04,50.83,81.68,16.34,15.55,30.38,27.83,44.83,38.08h-20.36c-9.75-8.18-19.54-17.27-29.25-27.32-22.15-22.94-37.31-50.91-46.05-80.82h0Z"/>
      <path class="st0" d="M2492.87,382.18c-3.84-14.59-5.95-30.68-6.77-48.43,1.7,12.52,3.72,24.37,6.77,35.58,12.19,44.7,33.87,78.81,55.48,100.62,9.68,9.75,18.73,18.2,27.73,25.69-5.14-17.46-6.1-33.05-7.27-49.22,1.06.82,2.15,1.63,3.25,2.44,2.54,17.62,4.63,34.52,12.31,53.4,21.98,16.83,44.79,28.42,77.11,39.18h-14.62c-42.08-15.67-68.43-34.5-101.52-67.9-20.36-20.51-41.53-49.84-52.45-91.36h-.02Z"/>
      <path class="st0" d="M1708.15,514.11c-22.15-22.94-37.31-50.91-46.05-80.82v-11.61c11.29,36.14,31.25,63.04,50.83,81.68,16.34,15.55,30.38,27.83,44.83,38.08h-20.36c-9.75-8.18-19.54-17.27-29.25-27.32h0Z"/>
      <path class="st0" d="M1662.11,502.9v-18.1c3.15,3.42,6.35,6.74,9.59,10,19.87,20.03,37.18,34.71,56.94,46.63h-26.01c-10.09-8.15-20.13-17.45-30.93-28.34-3.19-3.21-6.4-6.62-9.59-10.2h0Z"/>
      <path class="st0" d="M1811.44,479.91h0c3.31.55,6.67.99,10.06,1.31,12.22,8.36,29.04,17.18,52.65,27.44,28.36,12.35,63.52,24.6,101.53,32.77h-21.09c-30.52-7.86-58.6-18-82.08-28.23-32.77-14.3-50.32-24.62-61.06-33.3h-.01Z"/>
      <path class="st0" d="M2404.13,533.35c-70.49-28.05-115.45-13.33-151.76,8.08h-26.77c39.86-24.41,96.94-47.88,178.53-8.08Z"/>
      <path class="st0" d="M1662.11,382.18v-12.86c12.18,44.7,33.86,78.81,55.47,100.62,9.68,9.75,18.73,18.2,27.73,25.69-5.14-17.46-6.1-33.05-7.27-49.22,1.06.82,2.15,1.63,3.25,2.44,2.54,17.62,4.63,34.52,12.31,53.4,21.98,16.83,44.79,28.42,77.11,39.18h-14.62c-42.08-15.67-68.43-34.5-101.52-67.9-20.36-20.51-41.53-49.84-52.45-91.36h-.01Z"/>
      <path class="st0" d="M1983.65,507.22c-26.36-23.74-34.67-47.49-34.12-74.95.05-8.12,2.41-27.37,8.13-37.47-3.95,11.31-5.88,26.9-5.88,36.73.08,22.34,9.51,54.16,46.74,77.57,4.3.61,8.65,1.27,13.02,1.98-33.73-20.46-42.39-43.55-48.22-67.66-2-8.28-3.76-25.51-1.2-37.42-.61,12.07.84,26.3,3.54,35.99,5.81,20.6,18.12,49.32,59.57,71.48,31.43,5.9,63.67,14.87,92.16,27.97h-27.73c-75.13-31.43-156.77-35.89-200.18-37.07,17.74-1.86,51.51-2.27,94.17,2.85h0Z"/>
      <path class="st0" d="M2092.34,506.81c21.6,13.16,48.53,14.82,78.3,9.92,11.58-15.47,14.8-26.65,15.9-37.9l3.81-4.17c-.22,11.72-2.68,23.58-13.96,41.06,3.73-.71,7.51-1.54,11.32-2.43,13.9-19.01,29.39-32.08,45.03-41.9,13.54-13,23.69-28.94,25.95-44.97l4.22-2.5c-2.07,14.66-6,26.98-14.58,38.67,7.22-3.68,14.37-6.85,21.3-9.76,7.52-21.57,10.92-44.85-2.66-79.22,9.61,15.22,18.87,43.17,8.84,76.66,7.68-3.15,14.98-6.1,21.78-9.2,1.08-9.31.41-23.93-3.07-34.87l3.74-2.17c4.14,10.49,5.8,24.75,5.39,34.14,6.38-3.2,12.2-6.67,17.19-10.79,32.51-26.88,36.16-65.02,30.65-87.58,8.26,25.57,1.86,67.23-30.65,94.11-12.4,10.26-29.18,16.2-47.28,23.46-25.13,10.07-53.07,22.88-76.07,53.48,14.02-3.73,28.45-8.46,43.1-13.82,12.07-4.41,26.03-7.79,41.11-9.93,17.66-19.6,52-37.2,84.06-53.27,9.74-21.03,14.19-43.01,13.03-64.87l5.09-1.73c.81,12.9.34,25.81-2.25,39.89,10.42-8.9,16.26-14.52,23.73-25.97,10.31-15.81,20.62-35.04,15.79-61.31,8.73,21.39.83,46.69-13.93,68.03-11.22,16.24-20.17,22.78-27.59,28.26-1.15,4.37-2.55,8.68-4.25,12.88,15.58-7.81,30.13-15.27,41.32-22.4,47.93-30.55,52.9-61.25,69.25-103.65-10.98,40.1-17.14,78.91-67.57,112.21-35.35,23.33-85.13,42.09-116.76,69.9,52.16-3.4,112.89,7.67,155.21,41.31-63.53-42.16-159.38-42.77-216.23-22-56.84,20.78-110.62,32.69-148.24,9.78-26.65-16.23-33.44-45.21-35.67-68.43,2.23,23.22,9.02,44.87,35.67,61.1l-.02-.02Z"/>
    </g>
    <g>
      <path class="st1" d="M-1662,541.44V245.32c3.81,3.7,6.18,6.74,8.98,11.53,14.18-19.6,32.22-26.74,45.64-29.26,22.66-4.28,39.28,9.42,41.99,24.23,2.7,14.82-2.61,26.07-12.16,32.98-8.55,6.18-21.03.49-23.95-9.66-3.53-12.25,5.43-24.77,16.72-21.55-2.03-6.68-9.49-9.16-17.39-8.17-10.54,1.32-32.97,21.38-37.89,52.43-2.77,17.48-3.88,40.67,1.28,64.98,4.74-7.24,10.43-12.34,16.2-15.3,19.71-10.12,33.51-1.61,38.99,9.76,5.46,11.36,2.9,21.94-2.08,29-5.32,7.55-17.03,5.95-21.65-1.54-5.57-9.05-1.03-21.63,8.89-21.99-3.13-4.91-9.75-4.96-15.98-2.06-8.3,3.86-16.34,18.91-10.79,37.98.38,1.31.78,2.69,1.2,4.1,9.13,16.5,22.37,32.34,41.2,46.08-5-56.74,16.21-90.61,38.31-101.97,27.35-14.06,46.53-2.24,54.12,13.54s4.03,30.46-2.88,40.26c-7.39,10.49-23.65,8.27-30.06-2.14-7.74-12.57-1.43-30.03,12.34-30.53-4.34-6.82-13.54-6.89-22.18-2.86-11.52,5.36-22.67,26.25-14.97,52.72,5.21,17.89,12.03,43.37,35.39,62.02,35.11,5.87,75.85-1.57,90.84-12.52,17.84-13.04,29.43-25.49,39.27-59.24,7.28-24.96,20.47-41.17,34.39-48.32,27.36-14.05,46.53-2.23,54.12,13.54,7.58,15.78,4.02,30.45-2.88,40.26-7.39,10.49-23.65,8.27-30.06-2.13-7.74-12.57-1.43-30.02,12.34-30.53-4.34-6.82-13.55-6.88-22.18-2.86-11.52,5.36-22.67,26.26-14.98,52.72,6.84,23.49,16.59,58.77,62.7,76.39-16.63-77.75,9.08-123.24,36.02-137.09,28.93-14.86,49.2-2.36,57.22,14.32s4.25,32.2-3.05,42.57c-7.81,11.09-25,8.74-31.78-2.26-8.19-13.29-1.51-31.74,13.05-32.27-4.59-7.21-14.32-7.28-23.46-3.03-12.18,5.67-22.88,27.9-15.83,55.74,6.63,26.16,18.73,43.03,37.53,51.86,19.51,9.16,45.57,1.39,53.47-6.76,13.28-13.72,14.27-30.44,9.07-38.52-3.9-6.06-9.55-9.84-14.57-7.47,8.26,6.04,6.08,19.35-3,23.83-7.53,3.71-18.25-1.69-19.15-11.19-.84-8.88,2.06-19.35,12.16-25.86,10.11-6.51,25.94-5.78,37.82,14.21,4.87,8.19,7.6,19.82,6.15,33.55,3.34-2.94,6.86-5.97,10.56-9.09,17.77-14.94,40.5-30.74,65.8-45.82.5-6.02.56-11.63.66-16.6.45-23.53-13.19-37.57-23.73-38.89-7.9-.99-15.36,1.48-17.39,8.17,11.3-3.22,20.25,9.3,16.72,21.55-2.93,10.14-15.65,16.24-23.96,9.66-7.76-6.15-13.87-17.13-11.17-31.95,2.71-14.82,15.69-29.48,41-25.27,17.8,2.96,38.8,19.96,49.47,55.6,7.41-3.91,14.93-7.7,22.53-11.37,21.65-16.42,27.34-33.22,27.62-47.93.36-18.82-10.55-30.04-18.97-31.09-6.32-.79-12.29,1.19-13.91,6.53,9.03-2.57,16.19,7.43,13.36,17.23-2.33,8.11-12.51,12.98-19.15,7.72-6.21-4.91-11.09-13.7-8.93-25.54,2.16-11.85,12.55-23.57,32.78-20.21,18.25,3.04,44.72,20.11,48.93,67.41,2.61-.92,5.21-1.82,7.81-2.68,8.29-2.76,15.83-5.78,22.68-9,5.93-8.22,7.83-16.28,7.98-23.66.28-14.47-8.1-23.1-14.58-23.91-4.87-.61-9.45.91-10.7,5.02,6.95-1.98,12.45,5.72,10.28,13.25-1.79,6.23-9.61,9.98-14.72,5.94-4.77-3.78-8.53-10.54-6.87-19.65,1.66-9.11,9.65-18.12,25.21-15.54,12.04,2,26.45,14.47,32.18,41.12,10.78-8.44,17.6-18.39,22.58-27.25,9.12-16.22,20.1-41.24,37.93-59.07,18.22-18.22,35.52-23.44,48.93-25.97,22.66-4.28,39.28,9.42,41.98,24.23,2.7,14.82-2.6,26.07-12.16,32.98-8.54,6.18-21.02.49-23.95-9.66-3.53-12.25,5.42-24.77,16.72-21.55-2.03-6.68-9.49-9.16-17.39-8.17-10.54,1.32-32.97,21.38-37.89,52.43-2.77,17.48-3.88,40.67,1.28,64.98,4.74-7.24,10.43-12.34,16.2-15.3,19.71-10.12,33.52-1.61,38.99,9.76,5.46,11.36,2.89,21.94-2.08,29-5.32,7.55-17.03,5.95-21.65-1.54-5.58-9.05-1.03-21.63,8.89-21.99-3.12-4.91-9.75-4.96-15.98-2.06-8.3,3.86-16.33,18.91-10.79,37.98.38,1.31.78,2.69,1.2,4.1,9.13,16.5,22.38,32.34,41.2,46.08-5-56.74,16.22-90.61,38.31-101.97,27.35-14.06,46.53-2.24,54.12,13.54,7.59,15.78,4.02,30.46-2.89,40.26-7.39,10.49-23.65,8.27-30.06-2.14-7.73-12.57-1.42-30.03,12.34-30.53-4.34-6.82-13.54-6.89-22.19-2.86-11.52,5.36-22.66,26.25-14.97,52.72,5.21,17.89,12.03,43.37,35.39,62.02,35.11,5.87,75.86-1.57,90.84-12.52,17.83-13.04,29.43-25.49,39.27-59.24,7.28-24.96,20.47-41.17,34.39-48.32,27.36-14.05,46.53-2.23,54.11,13.54,7.59,15.78,4.02,30.45-2.88,40.26-7.4,10.49-23.65,8.27-30.06-2.13-7.74-12.57-1.43-30.02,12.34-30.53-4.34-6.82-13.55-6.88-22.19-2.86-11.52,5.36-22.67,26.26-14.97,52.72,6.84,23.49,16.59,58.77,62.7,76.39-16.63-77.75,9.08-123.24,36.02-137.09,28.93-14.86,49.2-2.36,57.22,14.32s4.25,32.2-3.05,42.57c-7.81,11.09-25,8.74-31.78-2.26-8.19-13.29-1.51-31.74,13.05-32.27-4.59-7.21-14.32-7.28-23.46-3.03-12.18,5.67-22.88,27.9-15.83,55.74,6.63,26.16,18.73,43.03,37.53,51.86,19.5,9.16,45.57,1.39,53.46-6.76,13.29-13.72,14.28-30.44,9.07-38.52-3.9-6.06-9.56-9.84-14.58-7.47,8.26,6.04,6.08,19.35-3,23.83-7.53,3.71-18.25-1.69-19.15-11.19-.84-8.88,2.06-19.35,12.16-25.86,10.11-6.51,25.94-5.78,37.83,14.21,4.87,8.19,7.59,19.82,6.15,33.55,3.34-2.94,6.85-5.97,10.56-9.09,17.77-14.94,40.5-30.74,65.8-45.82.49-6.02.56-11.63.65-16.6.45-23.53-13.19-37.57-23.73-38.89-7.9-.99-15.36,1.48-17.39,8.17,11.3-3.22,20.25,9.3,16.72,21.55-2.93,10.14-15.65,16.24-23.96,9.66-7.76-6.15-13.87-17.13-11.17-31.95,2.71-14.82,15.69-29.48,41-25.27,17.8,2.96,38.8,19.96,49.47,55.6,7.4-3.91,14.94-7.7,22.53-11.37,21.66-16.42,27.34-33.22,27.62-47.93.36-18.82-10.54-30.04-18.97-31.09-6.32-.79-12.28,1.19-13.91,6.53,9.03-2.57,16.19,7.43,13.36,17.23-2.33,8.11-12.51,12.98-19.15,7.72-6.21-4.91-11.09-13.7-8.93-25.54,2.16-11.85,12.55-23.57,32.78-20.21,18.24,3.04,44.72,20.11,48.93,67.41,2.61-.92,5.21-1.82,7.81-2.68,8.29-2.76,15.83-5.78,22.68-9,5.93-8.22,7.84-16.28,7.98-23.66.28-14.47-8.11-23.1-14.59-23.91-4.86-.61-9.45.91-10.7,5.02,6.95-1.98,12.45,5.72,10.28,13.25-1.8,6.23-9.62,9.98-14.72,5.94-4.77-3.78-8.53-10.54-6.87-19.65,1.66-9.11,9.65-18.12,25.21-15.54,12.04,2,26.45,14.47,32.18,41.12,25.19-19.71,33.55-42.07,33.84-57.71.38-21.06-14.26-32.64-28.08-33.19-8.3-.34-15.6,4.07-15.6,13.85,7.43-2.44,16.63,5.8,13.72,15.9-2.41,8.37-11.98,11.78-18.83,6.36-6.41-5.07-11.98-14.93-9.75-27.15s11.89-30.96,34.18-30.96c19.32,0,30.53,4.18,45.81,18.35v296.12h-1662l.02.07Z"/>
      <ellipse class="st1" cx="-131.26" cy="240.01" rx="11.89" ry="13.03"/>
      <path class="st1" d="M-302.17,262.81c0,7.2,5.32,13.04,11.89,13.04s11.89-5.84,11.89-13.04-5.32-13.03-11.89-13.03-11.89,5.83-11.89,13.03Z"/>
      <path class="st1" d="M-722.75,315.77c0,7.2,5.32,13.03,11.89,13.03s11.89-5.84,11.89-13.03-5.32-13.03-11.89-13.03-11.89,5.83-11.89,13.03Z"/>
      <path class="st1" d="M-655.37,295.68c0,5.16,3.82,9.35,8.53,9.35s8.52-4.19,8.52-9.35-3.82-9.35-8.52-9.35-8.53,4.18-8.53,9.35Z"/>
      <path class="st1" d="M-618.88,382.83c0,5.16,3.82,9.35,8.53,9.35s8.52-4.19,8.52-9.35-3.82-9.35-8.52-9.35-8.53,4.18-8.53,9.35Z"/>
      <path class="st1" d="M-165.8,276.66c0,5.16,3.82,9.35,8.53,9.35s8.52-4.19,8.52-9.35-3.82-9.35-8.52-9.35-8.53,4.18-8.53,9.35Z"/>
      <path class="st1" d="M-263.14,241.63c0,5.16,3.82,9.35,8.52,9.35s8.53-4.19,8.53-9.35-3.82-9.35-8.53-9.35-8.52,4.18-8.52,9.35Z"/>
      <path class="st0" d="M-7.32,528.4c-20.63-32.21-48.28-51.85-77.03-60.59-28.76-8.74-65.35-4.24-94.33,13.94,26.98-10.79,60.27-15.16,91.07-6.43,26.78,7.59,54.38,24.98,80.3,53.07h-.01Z"/>
      <path class="st0" d="M-793.12,247.05c-24.74,25.55-30.79,55.31-28.08,96.42,1.53,23.19,7.76,43.7,16.14,60.7-1.03-8.26-1.36-21.83,3.33-33.17,4.72-11.4,13.55-20.45,27.93-17.41-14.1-.29-17.28,4.37-23.21,14.23-5.88,9.78-5.85,39.96,3.27,55.6,7.91,11.35,16.55,20.15,24.55,25.95-30.09-16.7-55.69-64.74-56.85-105.5-1.12-39.55,4.08-71.69,32.91-96.83h.01Z"/>
      <path class="st0" d="M-536.61,497.44c-17.1-9.61-40.61-18.54-57.7-14.87-17.32,3.72-32.64,6.6-52.33,7.05,23.05,2.91,43.37-.97,52.63-1.9,19.68-1.99,36.31,1.46,57.39,9.73h.01Z"/>
      <path class="st0" d="M-528.9,497.65c-8.91-6.11-21.19-17.43-28.7-20.77-8.92-3.97-23.41-5.5-37.06,1.53,10.87-7.94,26.75-12.53,37.34-7.64,7.84,3.62,14.21,14.05,28.42,26.88Z"/>
      <path class="st0" d="M-710.58,354.67c-16.72,9.16-33.16,36.35-35.39,63.24-2.23,26.89,6.97,57.13,26.47,80.04,17.22,20.23,52.94,33,77.74,40.02-39.29-15.58-58.8-29.02-73.56-45.21-11.15-12.23-27.43-47.7-25.92-74.54,1.67-29.63,13.93-50.1,30.66-63.54h0Z"/>
      <path class="st0" d="M-727.21,418.83c5.57,28.11,14.68,54.38,47.56,77.6,32.88,23.22,55.73,28.1,82.48,36.05-33.44-4.27-63.94-14.61-87.5-32.38-25.91-19.55-41.43-44.3-42.54-81.26h0Z"/>
      <path class="st0" d="M-138.51,325.34c6.97,12.53,13.65,35.13,6.41,63.54-7.25,28.41-25.73,49.98-57.96,65.69-32.6,15.88-55.73,23.22-69.38,37.88,22.01-15.58,56.43-25.35,71.89-33.91,26.47-14.66,51.45-34.25,58.24-66.6,6.41-30.55.83-53.15-9.2-66.6Z"/>
      <path class="st1" d="M-735.34,240.74c13.56,2.33,22.52,12.1,24.18,21.57.44,2.39.64,4.64.64,6.77-.04,9.91-4.25,17.22-11.36,22.43-1.86,1.34-3.94,1.96-6.14,1.96-5.36.06-10.97-4-12.63-9.25,4.66-4.63,8.01-10.62,9.38-17.65.14,0,.28-.05.42-.05.86,0,1.77.12,2.72.4l5.98,1.73s.52-2.54-1.06-6.43c-1.58-3.89-4.69-6.76-7.78-8.46-.11-.88-.2-1.75-.37-2.65-.68-3.63-2.05-7.12-3.99-10.35v-.02Z"/>
      <path class="st1" d="M-655.99,361.41c13.56,2.33,22.52,12.1,24.18,21.57.44,2.39.64,4.64.64,6.77-.04,9.91-4.25,17.22-11.36,22.43-1.85,1.34-3.94,1.96-6.14,1.96-5.36.06-10.97-4-12.63-9.25,4.66-4.63,8.01-10.62,9.38-17.65.14,0,.28-.05.42-.05.86,0,1.77.12,2.72.4l5.98,1.73s.52-2.54-1.06-6.43c-1.58-3.89-4.69-6.76-7.78-8.46-.11-.88-.2-1.75-.36-2.65-.68-3.63-2.05-7.12-3.99-10.35v-.02Z"/>
      <path class="st1" d="M-698.31,239.23c17.02-.03,28.51,11.24,30.41,22.09.44,2.39.64,4.64.64,6.77-.04,9.91-4.25,17.22-11.36,22.43-1.85,1.34-3.95,1.95-6.13,1.95-5.51.06-11.3-4.2-12.79-9.65-.42-1.48-.62-2.96-.62-4.4.03-7.12,4.8-12.89,10.59-12.9.86,0,1.77.13,2.72.4l5.97,1.73-1.95-6.44c-1.16-3.89-3.8-6.77-6.88-8.46-3.11-1.71-6.68-2.42-10.39-2.43-1.21,0-2.44.08-3.67.23-2.68.39-5.63,1.56-8.71,3.4-2.15-3.82-5.08-7.29-8.7-10.16,4.64-1.85,9.11-3.05,13.15-3.82,2.69-.51,5.27-.74,7.73-.74h0Z"/>
      <path class="st1" d="M-351.93,362.96c17.02-.02,28.51,11.24,30.41,22.09.44,2.39.64,4.64.64,6.77-.04,9.91-4.25,17.22-11.36,22.43-1.85,1.34-3.95,1.95-6.13,1.95-5.51.06-11.3-4.2-12.79-9.65-.42-1.48-.62-2.96-.62-4.4.03-7.12,4.8-12.89,10.59-12.9.86,0,1.77.13,2.72.4l5.97,1.73-1.95-6.44c-1.16-3.89-3.8-6.77-6.88-8.46-3.11-1.71-6.68-2.42-10.39-2.43-1.21,0-2.44.08-3.67.23-2.68.39-5.63,1.56-8.71,3.4-2.15-3.82-5.08-7.29-8.7-10.16,4.64-1.85,9.11-3.05,13.15-3.82,2.69-.51,5.27-.74,7.73-.74h0Z"/>
      <path class="st0" d="M-9.05,370c.94,18.98,4.2,36.17,9.05,51.68v11.61c-6-20.52-9-41.93-9.05-63.29h0Z"/>
      <path class="st0" d="M-7.24,333.74c1.7,12.52,4.19,24.37,7.24,35.58v12.86c-3.84-14.59-6.42-30.68-7.24-48.43h0Z"/>
      <path class="st0" d="M-681.9,479.91h0c3.31.55,6.67.99,10.06,1.31,12.23,8.36,29.04,17.18,52.65,27.44,28.36,12.35,63.51,24.6,101.53,32.77h-21.09c-30.52-7.86-58.6-18-82.08-28.23-32.77-14.3-50.32-24.62-61.06-33.3h0Z"/>
      <path class="st0" d="M-89.21,533.35c-70.49-28.05-115.45-13.33-151.76,8.08h-26.77c39.86-24.41,96.93-47.88,178.53-8.08Z"/>
      <path class="st0" d="M-509.69,507.22c-26.36-23.74-34.66-47.49-34.11-74.95.05-8.12,2.41-27.37,8.12-37.47-3.95,11.31-5.87,26.9-5.87,36.73.08,22.34,9.51,54.16,46.74,77.57,4.3.61,8.65,1.27,13.02,1.98-33.73-20.46-42.39-43.55-48.22-67.66-2-8.28-3.76-25.51-1.21-37.42-.61,12.07.85,26.3,3.55,35.99,5.81,20.6,18.12,49.32,59.57,71.48,31.43,5.9,63.67,14.87,92.16,27.97h-27.73c-75.13-31.43-156.78-35.89-200.18-37.07,17.74-1.86,51.51-2.27,94.17,2.85h0Z"/>
      <path class="st0" d="M-15.62,265.16c5.48,17.42,4.74,39.2-8.46,64.46-11.98,22.94-37.52,51.12-64.83,64.36,25.64-19.35,49.14-41.24,62.05-66.19,11.59-22.4,15.6-38.9,11.24-62.63h0Z"/>
      <path class="st0" d="M-401,506.81c21.6,13.16,48.53,14.82,78.3,9.92,11.58-15.47,14.8-26.65,15.9-37.9l3.8-4.17c-.21,11.72-2.68,23.58-13.96,41.06,3.73-.71,7.51-1.54,11.32-2.43,13.9-19.01,29.39-32.08,45.03-41.9,13.54-13,23.69-28.94,25.95-44.97l4.22-2.5c-2.07,14.66-6,26.98-14.59,38.67,7.22-3.68,14.36-6.85,21.3-9.76,7.52-21.57,10.92-44.85-2.66-79.22,9.61,15.22,18.87,43.17,8.84,76.66,7.67-3.15,14.98-6.1,21.78-9.2,1.09-9.31.41-23.93-3.07-34.87l3.74-2.17c4.14,10.49,5.79,24.75,5.39,34.14,6.38-3.2,12.2-6.67,17.19-10.79,32.51-26.88,36.16-65.02,30.65-87.58,8.26,25.57,1.86,67.23-30.65,94.11-12.4,10.26-29.18,16.2-47.28,23.46-25.13,10.07-53.06,22.88-76.07,53.48,14.02-3.73,28.45-8.46,43.1-13.82,12.06-4.41,26.03-7.79,41.11-9.93,17.66-19.6,52-37.2,84.06-53.27,9.74-21.03,14.19-43.01,13.03-64.87l5.09-1.73c.82,12.9.34,25.81-2.25,39.89,10.41-8.9,16.26-14.52,23.73-25.97,10.3-15.81,20.62-35.04,15.79-61.31,8.73,21.39.83,46.69-13.93,68.03-11.23,16.24-20.17,22.78-27.59,28.26-1.15,4.37-2.56,8.68-4.26,12.88,15.58-7.81,30.13-15.27,41.33-22.4C-28.72,376.06-7.24,333.74-7.18,291.74c2.03,33-9.92,69.9-39.71,100.36C-39.26,435.15-20.86,462.17,0,484.8v18.1c-21.8-24.52-42.53-58.32-48.53-109.14-7.67,7.61-16.45,14.81-26.45,21.41-35.35,23.33-85.13,42.09-116.76,69.9,52.17-3.4,112.89,7.67,155.21,41.31-63.53-42.16-159.38-42.77-216.23-22-56.85,20.78-110.62,32.69-148.24,9.78-26.65-16.23-33.44-45.21-35.67-68.43,2.23,23.22,9.02,44.87,35.67,61.1v-.02Z"/>
      <path class="st1" d="M-960.42,256.73c0,7.2,5.32,13.03,11.89,13.03s11.89-5.84,11.89-13.03-5.33-13.03-11.89-13.03-11.89,5.84-11.89,13.03Z"/>
      <path class="st1" d="M-467.88,344.59c0,7.2,5.32,13.04,11.89,13.04s11.89-5.84,11.89-13.04-5.32-13.03-11.89-13.03-11.89,5.84-11.89,13.03Z"/>
      <path class="st1" d="M-367.74,344.59c0,7.2,5.32,13.04,11.89,13.04s11.89-5.84,11.89-13.04-5.32-13.03-11.89-13.03-11.89,5.84-11.89,13.03Z"/>
      <path class="st1" d="M-1116.59,305.72c0,7.2,5.32,13.04,11.89,13.04s11.89-5.84,11.89-13.04-5.32-13.03-11.89-13.03-11.89,5.83-11.89,13.03Z"/>
      <path class="st1" d="M-1383.46,277.16c0,7.2,5.32,13.04,11.88,13.04s11.89-5.84,11.89-13.04-5.32-13.03-11.89-13.03-11.88,5.83-11.88,13.03Z"/>
      <path class="st0" d="M-1553.52,315.77c0,7.2,5.33,13.03,11.89,13.03s11.89-5.84,11.89-13.03-5.32-13.03-11.89-13.03-11.89,5.83-11.89,13.03Z"/>
      <path class="st0" d="M-1486.13,295.68c0,5.16,3.82,9.35,8.53,9.35s8.53-4.19,8.53-9.35-3.82-9.35-8.53-9.35-8.53,4.18-8.53,9.35Z"/>
      <path class="st1" d="M-1369.88,317.16c0,5.16,3.82,9.35,8.53,9.35s8.52-4.19,8.52-9.35-3.82-9.35-8.52-9.35-8.53,4.18-8.53,9.35Z"/>
      <path class="st0" d="M-1471.38,404.57c0,5.16,3.82,9.35,8.53,9.35s8.52-4.19,8.52-9.35-3.81-9.35-8.52-9.35-8.53,4.18-8.53,9.35Z"/>
      <path class="st1" d="M-996.57,276.66c0,5.16,3.82,9.35,8.53,9.35s8.52-4.19,8.52-9.35-3.81-9.35-8.52-9.35-8.53,4.18-8.53,9.35Z"/>
      <path class="st1" d="M-1294.61,311.9c0,5.16,3.82,9.35,8.53,9.35s8.52-4.19,8.52-9.35-3.81-9.35-8.52-9.35-8.53,4.18-8.53,9.35Z"/>
      <path class="st1" d="M-1077.63,262.86c0,5.16,3.82,9.35,8.53,9.35s8.53-4.19,8.53-9.35-3.82-9.35-8.53-9.35-8.53,4.18-8.53,9.35Z"/>
      <path class="st1" d="M-497.22,293.51c0,5.16,3.82,9.35,8.52,9.35s8.53-4.19,8.53-9.35-3.82-9.35-8.53-9.35-8.52,4.18-8.52,9.35Z"/>
      <path class="st1" d="M-286.72,305.77c0,5.16,3.82,9.35,8.52,9.35s8.53-4.19,8.53-9.35-3.82-9.35-8.53-9.35-8.52,4.18-8.52,9.35Z"/>
      <path class="st0" d="M-838.09,528.4c-20.63-32.21-48.28-51.85-77.03-60.59-28.76-8.74-65.35-4.24-94.33,13.94,26.99-10.79,60.27-15.16,91.07-6.43,26.78,7.59,54.38,24.98,80.29,53.07h0Z"/>
      <path class="st0" d="M-1623.89,247.05c-24.74,25.55-30.79,55.31-28.08,96.42,1.53,23.19,7.75,43.7,16.14,60.7-1.03-8.26-1.36-21.83,3.34-33.17,4.72-11.4,13.55-20.45,27.93-17.41-14.1-.29-17.27,4.37-23.2,14.23-5.88,9.78-5.86,39.96,3.27,55.6,7.91,11.35,16.55,20.15,24.55,25.95-30.09-16.7-55.69-64.74-56.85-105.5-1.12-39.55,4.08-71.69,32.91-96.83h-.01Z"/>
      <path class="st0" d="M-1367.38,497.44c-17.1-9.61-40.61-18.54-57.7-14.87-17.32,3.72-32.64,6.6-52.33,7.05,23.05,2.91,43.38-.97,52.63-1.9,19.68-1.99,36.31,1.46,57.39,9.73h0Z"/>
      <path class="st0" d="M-1359.67,497.65c-8.91-6.11-21.19-17.43-28.7-20.77-8.92-3.97-23.4-5.5-37.06,1.53,10.87-7.94,26.76-12.53,37.34-7.64,7.84,3.62,14.22,14.05,28.42,26.88Z"/>
      <path class="st0" d="M-1541.34,354.67c-16.72,9.16-33.16,36.35-35.39,63.24s6.97,57.13,26.47,80.04c17.22,20.23,52.94,33,77.74,40.02-39.29-15.58-58.8-29.02-73.56-45.21-11.15-12.23-27.43-47.7-25.92-74.54,1.67-29.63,13.93-50.1,30.66-63.54h0Z"/>
      <path class="st0" d="M-1557.97,418.83c5.57,28.11,14.68,54.38,47.56,77.6,32.88,23.22,55.73,28.1,82.48,36.05-33.43-4.27-63.94-14.61-87.49-32.38-25.91-19.55-41.43-44.3-42.54-81.26h-.01Z"/>
      <path class="st0" d="M-969.28,325.34c6.97,12.53,13.65,35.13,6.41,63.54-7.24,28.41-25.73,49.98-57.96,65.69-32.6,15.88-55.73,23.22-69.38,37.88,22.02-15.58,56.42-25.35,71.89-33.91,26.47-14.66,51.45-34.25,58.24-66.6,6.41-30.55.83-53.15-9.2-66.6h0Z"/>
      <path class="st0" d="M-1566.11,240.74c13.56,2.33,22.52,12.1,24.18,21.57.44,2.39.64,4.64.64,6.77-.04,9.91-4.25,17.22-11.36,22.43-1.85,1.34-3.95,1.96-6.14,1.96-5.36.06-10.97-4-12.63-9.25,4.66-4.63,8.02-10.62,9.38-17.65.14,0,.28-.05.42-.05.86,0,1.77.12,2.72.4l5.98,1.73s.52-2.54-1.06-6.43c-1.58-3.89-4.69-6.76-7.78-8.46-.11-.88-.2-1.75-.36-2.65-.68-3.63-2.05-7.12-3.99-10.35v-.02Z"/>
      <path class="st0" d="M-1529.08,239.23c17.02-.03,28.51,11.24,30.41,22.09.44,2.39.64,4.64.64,6.77-.05,9.91-4.25,17.22-11.36,22.43-1.85,1.34-3.94,1.95-6.13,1.95-5.51.06-11.3-4.2-12.79-9.65-.42-1.48-.62-2.96-.62-4.4.03-7.12,4.8-12.89,10.59-12.9.86,0,1.77.13,2.72.4l5.98,1.73-1.96-6.44c-1.16-3.89-3.79-6.77-6.88-8.46-3.11-1.71-6.68-2.42-10.39-2.43-1.21,0-2.44.08-3.67.23-2.68.39-5.63,1.56-8.71,3.4-2.15-3.82-5.08-7.29-8.7-10.16,4.64-1.85,9.11-3.05,13.15-3.82,2.69-.51,5.27-.74,7.73-.74h-.01Z"/>
      <path class="st0" d="M-831.24,502.9c-22.46-25.25-43.36-60.31-48.61-113.73l1.33-2.1c7.04,46.03,25.62,74.23,47.28,97.73,3.15,3.42,6.35,6.74,9.59,10,19.87,20.03,37.18,34.71,56.94,46.63h-26.01c-10.09-8.15-20.13-17.45-30.93-28.34-3.19-3.21-6.4-6.62-9.59-10.2h0Z"/>
      <path class="st0" d="M-831.24,433.3c-6-20.52-8.53-41.93-8.58-63.29.94,18.98,3.73,36.17,8.58,51.68,11.3,36.14,31.25,63.04,50.83,81.68,16.34,15.55,30.38,27.83,44.83,38.08h-20.36c-9.75-8.18-19.54-17.27-29.25-27.32-22.15-22.94-37.31-50.91-46.05-80.82h0Z"/>
      <path class="st0" d="M-831.24,382.18c-3.84-14.59-5.95-30.68-6.77-48.43,1.7,12.52,3.72,24.37,6.77,35.58,12.19,44.7,33.87,78.81,55.48,100.62,9.68,9.75,18.73,18.2,27.73,25.69-5.14-17.46-6.1-33.05-7.27-49.22,1.06.82,2.15,1.63,3.25,2.44,2.54,17.62,4.63,34.52,12.31,53.4,21.98,16.83,44.79,28.42,77.11,39.18h-14.62c-42.08-15.67-68.43-34.5-101.52-67.9-20.36-20.51-41.53-49.84-52.45-91.36h-.02Z"/>
      <path class="st0" d="M-1615.95,514.11c-22.15-22.94-37.31-50.91-46.05-80.82v-11.61c11.29,36.14,31.25,63.04,50.83,81.68,16.34,15.55,30.38,27.83,44.83,38.08h-20.36c-9.75-8.18-19.54-17.27-29.25-27.32h0Z"/>
      <path class="st0" d="M-1662,502.9v-18.1c3.15,3.42,6.35,6.74,9.59,10,19.87,20.03,37.18,34.71,56.94,46.63h-26.01c-10.09-8.15-20.13-17.45-30.93-28.34-3.19-3.21-6.4-6.62-9.59-10.2h0Z"/>
      <path class="st0" d="M-1512.66,479.91h0c3.31.55,6.67.99,10.06,1.31,12.22,8.36,29.04,17.18,52.65,27.44,28.36,12.35,63.52,24.6,101.53,32.77h-21.09c-30.52-7.86-58.6-18-82.08-28.23-32.77-14.3-50.32-24.62-61.06-33.3h-.01Z"/>
      <path class="st0" d="M-919.97,533.35c-70.49-28.05-115.45-13.33-151.76,8.08h-26.77c39.86-24.41,96.94-47.88,178.53-8.08Z"/>
      <path class="st0" d="M-1662,382.18v-12.86c12.18,44.7,33.86,78.81,55.47,100.62,9.68,9.75,18.73,18.2,27.73,25.69-5.14-17.46-6.1-33.05-7.27-49.22,1.06.82,2.15,1.63,3.25,2.44,2.54,17.62,4.63,34.52,12.31,53.4,21.98,16.83,44.79,28.42,77.11,39.18h-14.62c-42.08-15.67-68.43-34.5-101.52-67.9-20.36-20.51-41.53-49.84-52.45-91.36h-.01Z"/>
      <path class="st0" d="M-1340.46,507.22c-26.36-23.74-34.67-47.49-34.12-74.95.05-8.12,2.41-27.37,8.13-37.47-3.95,11.31-5.88,26.9-5.88,36.73.08,22.34,9.51,54.16,46.74,77.57,4.3.61,8.65,1.27,13.02,1.98-33.73-20.46-42.39-43.55-48.22-67.66-2-8.28-3.76-25.51-1.2-37.42-.61,12.07.84,26.3,3.54,35.99,5.81,20.6,18.12,49.32,59.57,71.48,31.43,5.9,63.67,14.87,92.16,27.97h-27.73c-75.13-31.43-156.77-35.89-200.18-37.07,17.74-1.86,51.51-2.27,94.17,2.85h0Z"/>
      <path class="st0" d="M-1231.76,506.81c21.6,13.16,48.53,14.82,78.3,9.92,11.58-15.47,14.8-26.65,15.9-37.9l3.81-4.17c-.22,11.72-2.68,23.58-13.96,41.06,3.73-.71,7.51-1.54,11.32-2.43,13.9-19.01,29.39-32.08,45.03-41.9,13.54-13,23.69-28.94,25.95-44.97l4.22-2.5c-2.07,14.66-6,26.98-14.58,38.67,7.22-3.68,14.37-6.85,21.3-9.76,7.52-21.57,10.92-44.85-2.66-79.22,9.61,15.22,18.87,43.17,8.84,76.66,7.68-3.15,14.98-6.1,21.78-9.2,1.08-9.31.41-23.93-3.07-34.87l3.74-2.17c4.14,10.49,5.8,24.75,5.39,34.14,6.38-3.2,12.2-6.67,17.19-10.79,32.51-26.88,36.16-65.02,30.65-87.58,8.26,25.57,1.86,67.23-30.65,94.11-12.4,10.26-29.18,16.2-47.28,23.46-25.13,10.07-53.07,22.88-76.07,53.48,14.02-3.73,28.45-8.46,43.1-13.82,12.07-4.41,26.03-7.79,41.11-9.93,17.66-19.6,52-37.2,84.06-53.27,9.74-21.03,14.19-43.01,13.03-64.87l5.09-1.73c.81,12.9.34,25.81-2.25,39.89,10.42-8.9,16.26-14.52,23.73-25.97,10.31-15.81,20.62-35.04,15.79-61.31,8.73,21.39.83,46.69-13.93,68.03-11.22,16.24-20.17,22.78-27.59,28.26-1.15,4.37-2.55,8.68-4.25,12.88,15.58-7.81,30.13-15.27,41.32-22.4,47.93-30.55,52.9-61.25,69.25-103.65-10.98,40.1-17.14,78.91-67.57,112.21-35.35,23.33-85.13,42.09-116.76,69.9,52.16-3.4,112.89,7.67,155.21,41.31-63.53-42.16-159.38-42.77-216.23-22-56.84,20.78-110.62,32.69-148.24,9.78-26.65-16.23-33.44-45.21-35.67-68.43,2.23,23.22,9.02,44.87,35.67,61.1l-.02-.02Z"/>
    </g>
    <rect class="st1" x="-1662.02" y="541.37" width="3959.95" height="242.02"/>
  </g>
</svg>
