<?xml version="1.0" encoding="UTF-8"?>
<svg id="Layer_1" xmlns="http://www.w3.org/2000/svg" version="1.1" viewBox="0 0 741.1 66.99">
  <!-- Generator: Adobe Illustrator 29.8.3, SVG Export Plug-In . SVG Version: 2.1.1 Build 3)  -->
  <path d="M1.29,51.03v-4.72l21.85-25.08c-2.48.13-4.67.19-6.56.19H2.58v-4.72h28.05v3.85l-18.58,21.78-3.59,3.98c2.61-.19,5.05-.29,7.34-.29h15.87v5.01H1.29Z"/>
  <path d="M35.29,33.87c0-6.36,1.77-11.06,5.3-14.12,2.95-2.54,6.55-3.81,10.79-3.81,4.72,0,8.58,1.55,11.57,4.64,2.99,3.09,4.49,7.36,4.49,12.81,0,4.42-.66,7.89-1.99,10.42-1.33,2.53-3.25,4.5-5.79,5.9-2.53,1.4-5.3,2.1-8.29,2.1-4.81,0-8.69-1.54-11.65-4.62-2.96-3.08-4.44-7.52-4.44-13.32ZM41.27,33.87c0,4.4.96,7.69,2.88,9.87,1.92,2.19,4.33,3.28,7.24,3.28s5.29-1.1,7.21-3.3c1.92-2.2,2.88-5.55,2.88-10.05,0-4.24-.96-7.46-2.89-9.65-1.93-2.19-4.33-3.28-7.19-3.28s-5.32,1.09-7.24,3.26c-1.92,2.18-2.88,5.46-2.88,9.86Z"/>
  <path d="M74.27,51.03V16.71h5.2v4.82c1.08-1.68,2.51-3.03,4.3-4.06s3.82-1.54,6.11-1.54c2.54,0,4.63.53,6.25,1.58,1.63,1.06,2.77,2.53,3.44,4.43,2.71-4.01,6.25-6.01,10.6-6.01,3.4,0,6.02.94,7.85,2.83,1.83,1.89,2.75,4.79,2.75,8.71v23.56h-5.79v-21.62c0-2.33-.19-4-.57-5.03s-1.06-1.85-2.05-2.47c-.99-.62-2.15-.94-3.49-.94-2.41,0-4.42.8-6.01,2.41-1.59,1.61-2.39,4.17-2.39,7.71v19.94h-5.82v-22.3c0-2.59-.47-4.52-1.42-5.82-.95-1.29-2.5-1.94-4.65-1.94-1.64,0-3.15.43-4.54,1.29-1.39.86-2.4,2.12-3.02,3.78-.62,1.66-.94,4.05-.94,7.17v17.81h-5.82Z"/>
  <path d="M152.91,39.98l6.01.74c-.95,3.51-2.7,6.24-5.27,8.18-2.56,1.94-5.84,2.91-9.83,2.91-5.02,0-9-1.55-11.94-4.64-2.94-3.09-4.41-7.43-4.41-13.01s1.49-10.26,4.46-13.45c2.97-3.19,6.83-4.78,11.57-4.78s8.34,1.56,11.25,4.69c2.91,3.12,4.36,7.52,4.36,13.19,0,.34-.01.86-.03,1.55h-25.6c.22,3.77,1.28,6.66,3.2,8.66,1.92,2,4.31,3.01,7.18,3.01,2.13,0,3.95-.56,5.46-1.68,1.51-1.12,2.7-2.91,3.59-5.37ZM133.81,30.57h19.17c-.26-2.89-.99-5.05-2.2-6.5-1.85-2.24-4.26-3.36-7.21-3.36-2.67,0-4.92.89-6.74,2.68-1.82,1.79-2.83,4.18-3.02,7.18Z"/>
  <path d="M171.59,51.03h-5.4V3.65h5.82v16.9c2.46-3.08,5.59-4.62,9.41-4.62,2.11,0,4.11.43,6,1.28,1.89.85,3.44,2.05,4.65,3.59s2.17,3.4,2.86,5.58,1.03,4.5,1.03,6.98c0,5.88-1.45,10.43-4.36,13.64-2.91,3.21-6.4,4.82-10.47,4.82s-7.23-1.69-9.53-5.07v4.3ZM171.52,33.61c0,4.12.56,7.09,1.68,8.92,1.83,3,4.31,4.49,7.43,4.49,2.54,0,4.74-1.1,6.59-3.31,1.85-2.21,2.78-5.5,2.78-9.87s-.89-7.79-2.67-9.92c-1.78-2.13-3.93-3.2-6.45-3.2s-4.74,1.1-6.59,3.31c-1.85,2.21-2.78,5.4-2.78,9.58Z"/>
  <path d="M225.53,51.03v-5.04c-2.67,3.88-6.3,5.82-10.89,5.82-2.03,0-3.92-.39-5.67-1.16-1.76-.78-3.06-1.75-3.91-2.92-.85-1.17-1.45-2.61-1.79-4.32-.24-1.14-.36-2.95-.36-5.43v-21.27h5.82v19.04c0,3.04.12,5.08.36,6.14.37,1.53,1.14,2.73,2.33,3.6,1.18.87,2.65,1.31,4.4,1.31s3.38-.45,4.91-1.34c1.53-.89,2.61-2.11,3.25-3.65.64-1.54.95-3.78.95-6.71v-18.39h5.82v34.32h-5.2Z"/>
  <path d="M239.88,10.34V3.65h5.82v6.69h-5.82ZM239.88,51.03V16.71h5.82v34.32h-5.82Z"/>
  <path d="M254.42,51.03V3.65h5.82v47.38h-5.82Z"/>
  <path d="M291.53,51.03v-4.33c-2.18,3.41-5.38,5.11-9.6,5.11-2.74,0-5.25-.75-7.55-2.26-2.29-1.51-4.07-3.61-5.33-6.32-1.26-2.7-1.89-5.81-1.89-9.32s.57-6.53,1.71-9.32c1.14-2.79,2.85-4.93,5.14-6.42,2.28-1.49,4.84-2.23,7.66-2.23,2.07,0,3.91.44,5.53,1.31,1.62.87,2.93,2.01,3.94,3.41V3.65h5.79v47.38h-5.4ZM273.14,33.9c0,4.4.93,7.68,2.78,9.86,1.85,2.18,4.04,3.26,6.56,3.26s4.7-1.04,6.48-3.12c1.78-2.08,2.67-5.25,2.67-9.52,0-4.7-.91-8.14-2.71-10.34-1.81-2.2-4.04-3.3-6.69-3.3s-4.75,1.06-6.48,3.17c-1.73,2.11-2.6,5.44-2.6,9.99Z"/>
  <path d="M329.57,39.98l6.01.74c-.95,3.51-2.7,6.24-5.27,8.18-2.56,1.94-5.84,2.91-9.83,2.91-5.02,0-9-1.55-11.94-4.64-2.94-3.09-4.41-7.43-4.41-13.01s1.49-10.26,4.46-13.45c2.97-3.19,6.83-4.78,11.57-4.78s8.34,1.56,11.25,4.69c2.91,3.12,4.36,7.52,4.36,13.19,0,.34-.01.86-.03,1.55h-25.6c.22,3.77,1.28,6.66,3.2,8.66,1.92,2,4.31,3.01,7.18,3.01,2.13,0,3.95-.56,5.46-1.68,1.51-1.12,2.7-2.91,3.59-5.37ZM310.47,30.57h19.17c-.26-2.89-.99-5.05-2.2-6.5-1.85-2.24-4.26-3.36-7.21-3.36-2.67,0-4.92.89-6.74,2.68-1.82,1.79-2.83,4.18-3.02,7.18Z"/>
  <path d="M342.82,51.03V16.71h5.24v5.2c1.34-2.43,2.57-4.04,3.7-4.82,1.13-.78,2.38-1.16,3.73-1.16,1.96,0,3.95.62,5.98,1.87l-2,5.4c-1.42-.84-2.84-1.26-4.27-1.26-1.27,0-2.41.38-3.43,1.15-1.01.77-1.73,1.83-2.17,3.18-.65,2.07-.97,4.33-.97,6.79v17.97h-5.82Z"/>
  <path d="M398.09,45.76c-1.4,1.62-2.97,2.92-4.7,3.89-1.73.98-3.47,1.47-5.22,1.47-1.92,0-3.78-.56-5.59-1.68-1.81-1.12-3.28-2.84-4.41-5.17-1.13-2.33-1.7-4.88-1.7-7.66,0-3.43.88-6.86,2.63-10.29,1.76-3.44,3.94-6.02,6.54-7.74,2.61-1.72,5.14-2.59,7.6-2.59,1.87,0,3.66.49,5.37,1.47,1.7.98,3.17,2.47,4.4,4.48l1.1-5.01h5.79l-4.65,21.69c-.65,3.02-.97,4.69-.97,5.01,0,.58.22,1.08.66,1.5.44.42.97.63,1.6.63,1.14,0,2.64-.66,4.49-1.97,2.46-1.72,4.4-4.04,5.83-6.93,1.43-2.9,2.15-5.89,2.15-8.97,0-3.6-.92-6.96-2.76-10.08-1.84-3.12-4.59-5.62-8.24-7.5-3.65-1.87-7.69-2.81-12.1-2.81-5.04,0-9.65,1.18-13.82,3.54-4.17,2.36-7.4,5.74-9.7,10.15-2.29,4.41-3.44,9.13-3.44,14.17s1.15,9.83,3.44,13.64c2.29,3.81,5.61,6.63,9.95,8.45,4.34,1.82,9.15,2.73,14.43,2.73,5.65,0,10.37-.95,14.19-2.84,3.81-1.9,6.67-4.2,8.56-6.92h5.85c-1.1,2.26-2.98,4.57-5.66,6.92-2.67,2.35-5.85,4.21-9.53,5.58-3.68,1.37-8.12,2.05-13.32,2.05-4.78,0-9.19-.61-13.23-1.84s-7.48-3.08-10.33-5.54c-2.84-2.47-4.99-5.31-6.43-8.52-1.81-4.07-2.71-8.47-2.71-13.19,0-5.26,1.08-10.27,3.23-15.03,2.63-5.84,6.36-10.31,11.2-13.41,4.84-3.1,10.7-4.65,17.6-4.65,5.34,0,10.14,1.09,14.4,3.28,4.25,2.19,7.61,5.45,10.07,9.78,2.09,3.73,3.13,7.78,3.13,12.15,0,6.25-2.2,11.8-6.59,16.65-3.92,4.35-8.21,6.53-12.86,6.53-1.49,0-2.69-.23-3.6-.68-.92-.45-1.59-1.1-2.02-1.94-.28-.54-.48-1.47-.61-2.78ZM382.44,37c0,2.95.7,5.25,2.1,6.88,1.4,1.64,3.01,2.46,4.82,2.46,1.21,0,2.48-.36,3.81-1.08,1.34-.72,2.61-1.79,3.83-3.22,1.22-1.42,2.21-3.23,2.99-5.41.78-2.19,1.16-4.38,1.16-6.58,0-2.93-.73-5.2-2.18-6.82s-3.23-2.42-5.32-2.42c-1.38,0-2.68.35-3.89,1.05s-2.4,1.83-3.54,3.38-2.06,3.44-2.75,5.66c-.69,2.22-1.03,4.26-1.03,6.11Z"/>
  <path d="M431.05,53.87l5.66.84c.24,1.75.89,3.02,1.97,3.81,1.44,1.08,3.41,1.62,5.91,1.62,2.69,0,4.77-.54,6.24-1.62,1.46-1.08,2.46-2.58,2.97-4.52.3-1.19.44-3.67.42-7.47-2.54,3-5.71,4.49-9.5,4.49-4.72,0-8.37-1.7-10.96-5.11-2.59-3.4-3.88-7.49-3.88-12.25,0-3.27.59-6.3,1.78-9.07,1.19-2.77,2.9-4.91,5.16-6.42,2.25-1.51,4.9-2.26,7.93-2.26,4.05,0,7.39,1.64,10.02,4.91v-4.14h5.37v29.67c0,5.34-.54,9.13-1.63,11.36-1.09,2.23-2.81,3.99-5.17,5.29-2.36,1.29-5.26,1.94-8.71,1.94-4.09,0-7.4-.92-9.92-2.76-2.52-1.84-3.74-4.62-3.65-8.32ZM435.87,33.25c0,4.5.89,7.79,2.68,9.86,1.79,2.07,4.03,3.1,6.72,3.1s4.91-1.03,6.72-3.09,2.71-5.28,2.71-9.68-.93-7.37-2.8-9.5c-1.86-2.13-4.11-3.2-6.74-3.2s-4.78,1.05-6.59,3.15c-1.81,2.1-2.71,5.22-2.71,9.36Z"/>
  <path d="M468.93,51.03V16.71h5.2v4.82c1.08-1.68,2.51-3.03,4.3-4.06,1.79-1.02,3.82-1.54,6.11-1.54,2.54,0,4.63.53,6.25,1.58,1.63,1.06,2.77,2.53,3.44,4.43,2.71-4.01,6.25-6.01,10.6-6.01,3.4,0,6.02.94,7.85,2.83,1.83,1.89,2.75,4.79,2.75,8.71v23.56h-5.79v-21.62c0-2.33-.19-4-.57-5.03s-1.06-1.85-2.05-2.47c-.99-.62-2.15-.94-3.49-.94-2.41,0-4.42.8-6.01,2.41-1.59,1.61-2.39,4.17-2.39,7.71v19.94h-5.82v-22.3c0-2.59-.47-4.52-1.42-5.82-.95-1.29-2.5-1.94-4.65-1.94-1.64,0-3.15.43-4.54,1.29-1.39.86-2.4,2.12-3.02,3.78s-.94,4.05-.94,7.17v17.81h-5.82Z"/>
  <path d="M546.47,46.8c-2.15,1.83-4.23,3.12-6.22,3.88s-4.13,1.13-6.42,1.13c-3.77,0-6.67-.92-8.69-2.76-2.03-1.84-3.04-4.2-3.04-7.06,0-1.68.38-3.22,1.15-4.61s1.77-2.5,3.01-3.35c1.24-.84,2.63-1.48,4.19-1.91,1.14-.3,2.87-.59,5.17-.87,4.7-.56,8.16-1.23,10.38-2,.02-.8.03-1.3.03-1.52,0-2.37-.55-4.04-1.65-5.01-1.49-1.31-3.7-1.97-6.62-1.97-2.74,0-4.76.48-6.06,1.44-1.3.96-2.27,2.66-2.89,5.09l-5.69-.78c.52-2.43,1.37-4.4,2.55-5.9,1.18-1.5,2.9-2.65,5.14-3.46,2.24-.81,4.84-1.21,7.79-1.21s5.31.34,7.14,1.03c1.83.69,3.18,1.56,4.04,2.6.86,1.05,1.46,2.37,1.81,3.96.19.99.29,2.78.29,5.37v7.76c0,5.41.12,8.83.37,10.26.25,1.43.74,2.81,1.47,4.12h-6.08c-.6-1.21-.99-2.62-1.16-4.23ZM545.99,33.8c-2.11.86-5.28,1.59-9.5,2.2-2.39.35-4.08.73-5.07,1.16-.99.43-1.76,1.06-2.29,1.89-.54.83-.81,1.75-.81,2.76,0,1.55.59,2.84,1.76,3.88s2.89,1.55,5.16,1.55,4.23-.49,5.98-1.47,3.03-2.32,3.85-4.02c.62-1.31.94-3.25.94-5.82v-2.13Z"/>
  <path d="M560.92,10.34V3.65h5.82v6.69h-5.82ZM560.92,51.03V16.71h5.82v34.32h-5.82Z"/>
  <path d="M575.46,51.03V3.65h5.82v47.38h-5.82Z"/>
  <path d="M591.95,51.03v-6.63h6.63v6.63h-6.63Z"/>
  <path d="M631.08,38.46l5.72.74c-.62,3.94-2.22,7.03-4.8,9.26-2.58,2.23-5.74,3.34-9.49,3.34-4.7,0-8.47-1.54-11.33-4.61-2.86-3.07-4.28-7.47-4.28-13.2,0-3.71.61-6.95,1.84-9.73,1.23-2.78,3.1-4.86,5.61-6.25s5.24-2.08,8.19-2.08c3.73,0,6.78.94,9.15,2.83,2.37,1.89,3.89,4.56,4.56,8.03l-5.66.87c-.54-2.31-1.49-4.04-2.86-5.2s-3.02-1.75-4.96-1.75c-2.93,0-5.31,1.05-7.14,3.15-1.83,2.1-2.75,5.42-2.75,9.97s.88,7.96,2.65,10.05,4.07,3.13,6.92,3.13c2.28,0,4.19-.7,5.72-2.1,1.53-1.4,2.5-3.56,2.91-6.46Z"/>
  <path d="M639.62,33.87c0-6.36,1.77-11.06,5.3-14.12,2.95-2.54,6.55-3.81,10.79-3.81,4.72,0,8.58,1.55,11.57,4.64,2.99,3.09,4.49,7.36,4.49,12.81,0,4.42-.66,7.89-1.99,10.42-1.33,2.53-3.25,4.5-5.79,5.9-2.53,1.4-5.29,2.1-8.29,2.1-4.8,0-8.69-1.54-11.65-4.62s-4.44-7.52-4.44-13.32ZM645.6,33.87c0,4.4.96,7.69,2.88,9.87,1.92,2.19,4.33,3.28,7.24,3.28s5.29-1.1,7.21-3.3c1.92-2.2,2.88-5.55,2.88-10.05,0-4.24-.96-7.46-2.89-9.65s-4.33-3.28-7.19-3.28-5.32,1.09-7.24,3.26c-1.92,2.18-2.88,5.46-2.88,9.86Z"/>
  <path d="M678.6,51.03V16.71h5.2v4.82c1.08-1.68,2.51-3.03,4.3-4.06s3.82-1.54,6.11-1.54c2.54,0,4.63.53,6.25,1.58,1.63,1.06,2.77,2.53,3.44,4.43,2.71-4.01,6.25-6.01,10.6-6.01,3.4,0,6.02.94,7.85,2.83,1.83,1.89,2.75,4.79,2.75,8.71v23.56h-5.79v-21.62c0-2.33-.19-4-.57-5.03-.38-1.02-1.06-1.85-2.05-2.47-.99-.62-2.16-.94-3.49-.94-2.41,0-4.42.8-6.01,2.41-1.59,1.61-2.39,4.17-2.39,7.71v19.94h-5.82v-22.3c0-2.59-.47-4.52-1.42-5.82s-2.5-1.94-4.65-1.94c-1.64,0-3.15.43-4.54,1.29-1.39.86-2.4,2.12-3.02,3.78s-.94,4.05-.94,7.17v17.81h-5.82Z"/>
</svg>